<?xml version="1.0" standalone="no"?><!DOCTYPE svg PUBLIC "-//W3C//DTD SVG 1.1//EN" "http://www.w3.org/Graphics/SVG/1.1/DTD/svg11.dtd" ><svg xmlns="http://www.w3.org/2000/svg"><metadata></metadata><defs><font id="1.000;UKWN;RealtimeRounded-Black" horiz-adv-x="2170"><font-face font-family="Realtime Rounded Black" font-weight="900" font-stretch="normal" units-per-em="2048" panose-1="0 0 10 0 0 0 0 0 0 0" ascent="2028" descent="-429" x-height="0" bbox="-10 -389 1987 1759" underline-thickness="102" underline-position="-663" unicode-range="U+0020-25fc" /><missing-glyph horiz-adv-x="748" d="M68 0 l0 1365 l544 0 l0 -1365 l-544 0 ZM136 68 l408 0 l0 1229 l-408 0 l0 -1229 Z" /><glyph glyph-name="glyph1" unicode="" d="" /><glyph glyph-name="glyph2" unicode="" d="" /><glyph glyph-name="space" unicode=" " d="" /><glyph glyph-name="exclam" unicode="!" d="M391 45 l0 213 q0 45 45 45 l213 0 q45 0 45 -45 l0 -213 q0 -45 -45 -45 l-213 0 q-45 0 -45 45 ZM420 836 l0 430 q0 45 45 45 l156 0 q45 0 45 -45 l0 -430 l-27 -265 q-3 -43 -47 -43 l-98 0 q-45 0 -48 43 l-26 265 Z" /><glyph glyph-name="quotedbl" unicode="&quot;" d="M248 1264 q0 47 45 47 l151 0 q45 0 45 -47 l-30 -482 q-3 -43 -45 -43 l-90 0 q-42 0 -45 43 l-31 482 ZM596 1264 q0 47 45 47 l152 0 q45 0 45 -47 l-31 -482 q-3 -43 -45 -43 l-90 0 q-42 0 -45 43 l-31 482 Z" /><glyph glyph-name="numbersign" unicode="#" d="M90 393 l0 92 q0 45 45 45 l82 0 l45 250 l-65 0 q-45 0 -45 45 l0 93 q0 45 45 45 l96 0 l55 307 q6 41 47 41 l117 0 q47 0 41 -49 l-53 -299 l192 0 l56 307 q6 41 47 41 l116 0 q47 0 41 -49 l-53 -299 l53 0 q45 0 45 -45 l0 -93 q0 -45 -45 -45 l-84 0 l-45 -250 l68 0 q45 0 45 -45 l0 -92 q0 -45 -45 -45 l-98 0 l-56 -307 q-6 -41 -47 -41 l-117 0 q-47 0 -41 49 l54 299 l-193 0 l-55 -307 q-6 -41 -47 -41 l-117 0 q-47 0 -41 49 l53 299 l-51 0 q-45 0 -45 45 ZM424 530 l192 0 l43 250 l-192 0 l-43 -250 Z" /><glyph glyph-name="dollar" unicode="$" d="M133 952 q0 163 87 260.5 q87 97.5 251 114.5 l0 72 q0 45 45 45 l53 0 q45 0 45 -45 l0 -72 q152 -17 238.5 -107.5 q86.5 -90.5 97.5 -240.5 q3 -47 -43 -47 l-157 0 q-21 0 -32 10.5 q-11 10.5 -16 34.5 q-14 87 -88 117 l0 -340 q45 -21 69.5 -33 q24.5 -12 65.5 -36 q41 -24 65 -44 q24 -20 54 -51 q30 -31 45.5 -63.5 q15.5 -32.5 27 -76 q11.5 -43.5 11.5 -92.5 q0 -163 -87 -260 q-87 -97 -251 -114 l0 -72 q0 -45 -45 -45 l-53 0 q-45 0 -45 45 l0 72 q-152 17 -238.5 107.5 q-86.5 90.5 -97.5 240.5 q-3 47 43 47 l158 0 q21 0 31.5 -10.5 q10.5 -10.5 15.5 -34.5 q14 -87 88 -117 l0 340 q-45 21 -69.5 33 q-24.5 12 -66 36 q-41.5 24 -65 43.5 q-23.5 19.5 -53.5 51 q-30 31.5 -45.5 63.5 q-15.5 32 -27 75.5 q-11.5 43.5 -11.5 92.5 ZM379 973 q0 -82 92 -144 l0 269 q-92 -27 -92 -125 ZM614 213 q93 27 93 125 q0 80 -93 143 l0 -268 Z" /><glyph glyph-name="percent" unicode="%" d="M113 791 l0 77 q0 94 51.5 145.5 q51.5 51.5 154.5 51.5 q104 0 155.5 -51.5 q51.5 -51.5 51.5 -145.5 l0 -77 q0 -94 -51.5 -145.5 q-51.5 -51.5 -155.5 -51.5 q-103 0 -154.5 51 q-51.5 51 -51.5 146 ZM156 74 l696 954 q26 36 63 10 l13 -8 q36 -23 10 -63 l-696 -955 q-25 -38 -64 -10 l-12 8 q-36 23 -10 64 ZM246 778 q0 -61 73 -61 q74 0 74 61 l0 103 q0 63 -74 63 q-73 0 -73 -63 l0 -103 ZM569 186 l0 78 q0 94 51.5 145.5 q51.5 51.5 155.5 51.5 q104 0 155.5 -51.5 q51.5 -51.5 51.5 -145.5 l0 -78 q0 -94 -51.5 -145 q-51.5 -51 -155.5 -51 q-104 0 -155.5 51 q-51.5 51 -51.5 145 ZM702 174 q0 -61 74 -61 q74 0 74 61 l0 102 q0 64 -74 64 q-74 0 -74 -64 l0 -102 Z" /><glyph glyph-name="ampersand" unicode="&amp;" d="M133 369 l0 82 q0 257 182 346 q-69 145 -69 270 q0 137 81.5 221 q81.5 84 235.5 84 q113 0 223 -67 q38 -21 17 -62 l-51 -92 q-18 -37 -60 -18 q-67 26 -112 26 q-115 0 -115 -117 q0 -50 19 -102 q19 -52 65 -131 l205 -346 q15 55 18 123 q3 45 47 45 l99 0 q45 0 45 -45 q-9 -196 -80 -342 l75 -127 q15 -30 15 -58 l0 -14 q0 -45 -45 -45 l-115 0 q-34 0 -53 31 l-21 35 q-109 -86 -258 -86 q-163 0 -255.5 103 q-92.5 103 -92.5 286 ZM371 340 q0 -73 41 -108 q41 -35 100 -35 q66 0 121 49 l-207 354 q-55 -38 -55 -119 l0 -141 Z" /><glyph glyph-name="quotesingle" unicode="&#39;" d="M422 1264 q0 47 45 47 l151 0 q46 0 46 -47 l-31 -482 q-3 -43 -45 -43 l-90 0 q-42 0 -45 43 l-31 482 Z" /><glyph glyph-name="parenleft" unicode="(" d="M382.5 145.5 q-77.5 216.5 -77.5 450.5 q0 234 77.5 450.5 q77.5 216.5 217.5 391.5 q27 35 64 6 l112 -92 q33 -26 8 -62 q-211 -308 -211 -694 q0 -386 211 -694 q25 -36 -8 -62 l-112 -92 q-37 -29 -64 6 q-140 175 -217.5 391.5 Z" /><glyph glyph-name="parenright" unicode=")" d="M301 -98 q211 308 211 694 q0 386 -211 694 q-25 36 8 62 l113 92 q36 28 63 -6 q140 -175 217.5 -391.5 q77.5 -216.5 77.5 -450.5 q0 -234 -77.5 -450.5 q-77.5 -216.5 -217.5 -391.5 q-27 -34 -63 -6 l-113 92 q-33 26 -8 62 Z" /><glyph glyph-name="asterisk" unicode="*" d="M190 1110 l29 90 q15 41 57 27 l203 -76 l-10 217 q-3 45 45 45 l90 0 q48 0 45 -45 l-10 -217 l203 76 q42 14 57 -27 l29 -90 q16 -42 -31 -55 l-207 -58 l133 -168 q29 -40 -8 -63 l-74 -55 q-37 -24 -63 12 l-119 180 l-121 -180 q-23 -36 -61 -12 l-74 55 q-37 23 -8 63 l133 168 l-207 58 q-47 13 -31 55 Z" /><glyph glyph-name="plus" unicode="+" d="M154 555 l0 90 q0 45 45 45 l254 0 l0 254 q0 45 45 45 l90 0 q45 0 45 -45 l0 -254 l254 0 q45 0 45 -45 l0 -90 q0 -45 -45 -45 l-254 0 l0 -254 q0 -45 -45 -45 l-90 0 q-45 0 -45 45 l0 254 l-254 0 q-45 0 -45 45 Z" /><glyph glyph-name="comma" unicode="," d="M391 45 l0 213 q0 45 45 45 l213 0 q45 0 45 -45 l0 -145 q0 -31 -10 -56 l-119 -309 q-14 -35 -53 -35 l-49 0 q-51 0 -39 51 l68 236 l-56 0 q-45 0 -45 45 Z" /><glyph glyph-name="hyphen" unicode="-" d="M297 504 l0 110 q0 45 45 45 l401 0 q45 0 45 -45 l0 -110 q0 -45 -45 -45 l-401 0 q-45 0 -45 45 Z" /><glyph glyph-name="period" unicode="." d="M391 45 l0 213 q0 45 45 45 l213 0 q45 0 45 -45 l0 -213 q0 -45 -45 -45 l-213 0 q-45 0 -45 45 Z" /><glyph glyph-name="slash" unicode="/" d="M238 -10 l368 1343 q9 39 49 39 l154 0 q51 0 39 -51 l-369 -1344 q-8 -38 -49 -38 l-154 0 q-50 0 -38 51 Z" /><glyph glyph-name="zero" unicode="0" d="M123 369 l0 573 q0 187 102 288 q102 101 307 101 q205 0 307.5 -101 q102.5 -101 102.5 -288 l0 -573 q0 -187 -102.5 -288 q-102.5 -101 -307.5 -101 q-205 0 -307 101 q-102 101 -102 288 ZM369 348 q0 -143 163 -143 q164 0 164 143 l0 615 q0 143 -164 143 q-163 0 -163 -143 l0 -615 ZM444 612 l0 86 q0 45 45 45 l86 0 q46 0 46 -45 l0 -86 q0 -45 -46 -45 l-86 0 q-45 0 -45 45 Z" /><glyph glyph-name="one" unicode="1" d="M158 1071 q-23 40 16 62 l283 163 q30 15 57 15 l107 0 q45 0 45 -45 l0 -1041 l180 0 q45 0 45 -45 l0 -135 q0 -45 -45 -45 l-606 0 q-45 0 -45 45 l0 135 q0 45 45 45 l180 0 l0 776 l-133 -67 q-41 -23 -62 18 l-67 119 Z" /><glyph glyph-name="two" unicode="2" d="M133 45 l0 260 q0 30 25 55 l438 388 q68 59 89.5 99 q21.5 40 21.5 95 q0 95 -41 129.5 q-41 34.5 -123 34.5 q-164 0 -164 -143 l0 -31 q0 -45 -45 -45 l-156 0 q-45 0 -45 45 l0 10 q0 187 102.5 288 q102.5 101 307.5 101 q205 0 307 -101 q102 -101 102 -288 q0 -99 -38 -174 q-38 -75 -140 -164 l-405 -354 l0 -25 l526 0 q45 0 45 -45 l0 -135 q0 -45 -45 -45 l-717 0 q-45 0 -45 45 Z" /><glyph glyph-name="three" unicode="3" d="M133 369 q0 34 45 34 l156 0 q45 0 45 -45 l0 -10 q0 -143 164 -143 q164 0 164 143 l0 41 q0 93 -48 135.5 q-48 42.5 -147 42.5 l-16 0 q-45 0 -45 45 l0 95 q0 45 45 45 l16 0 q101 0 148 39 q47 39 47 131 l0 41 q0 143 -164 143 q-164 0 -164 -143 l0 -11 q0 -45 -45 -45 l-156 0 q-45 0 -45 35 q0 187 102.5 288 q102.5 101 307.5 101 q205 0 307 -101 q102 -101 102 -288 q0 -204 -129 -287 q129 -83 129 -286 q0 -187 -102 -288 q-102 -101 -307 -101 q-205 0 -307.5 101 q-102.5 101 -102.5 288 Z" /><glyph glyph-name="four" unicode="4" d="M102 299 l0 154 q0 23 13 55 l356 770 q17 33 53 33 l181 0 q26 0 35.5 -15.5 q9.5 -15.5 -1.5 -38.5 l-360 -778 l205 0 l0 234 q0 45 45 45 l155 0 q45 0 45 -45 l0 -234 l109 0 q45 0 45 -45 l0 -135 q0 -45 -45 -45 l-109 0 l0 -209 q0 -45 -45 -45 l-155 0 q-45 0 -45 45 l0 209 l-437 0 q-45 0 -45 45 Z" /><glyph glyph-name="five" unicode="5" d="M135 293 q-3 45 45 45 l156 0 q21 0 31.5 -10 q10.5 -10 15.5 -33 q26 -90 160 -90 q164 0 164 143 l0 170 q0 144 -164 144 q-112 0 -168 -74 q-23 -33 -58 -27 l-133 23 q-44 6 -41 49 l37 635 q3 43 45 43 l649 0 q46 0 46 -45 l0 -136 q0 -45 -46 -45 l-479 0 l-14 -239 q87 41 186 41 q180 0 282.5 -103 q102.5 -103 102.5 -286 l0 -129 q0 -187 -102 -288 q-102 -101 -307 -101 q-186 0 -290 85.5 q-104 85.5 -118 227.5 Z" /><glyph glyph-name="six" unicode="6" d="M133 369 l0 573 q0 186 102 287.5 q102 101.5 304 101.5 q184 0 284.5 -87.5 q100.5 -87.5 112.5 -244.5 q3 -47 -43 -47 l-158 0 q-21 0 -31.5 10 q-10.5 10 -15.5 33 q-19 111 -149 111 q-160 0 -160 -143 l0 -164 q80 47 194 47 q184 0 281.5 -102 q97.5 -102 97.5 -287 l0 -88 q0 -187 -102 -288 q-102 -101 -307 -101 q-205 0 -307.5 101 q-102.5 101 -102.5 288 ZM379 348 q0 -143 164 -143 q164 0 164 143 l0 129 q0 144 -160 144 q-168 0 -168 -162 l0 -111 Z" /><glyph glyph-name="seven" unicode="7" d="M143 1018 l0 248 q0 45 45 45 l709 0 q45 0 45 -45 l0 -254 q0 -26 -12 -56 l-408 -921 q-14 -35 -51 -35 l-154 0 q-54 0 -32 53 l411 924 l0 108 l-317 0 l0 -67 q0 -45 -45 -45 l-146 0 q-45 0 -45 45 Z" /><glyph glyph-name="eight" unicode="8" d="M119 369 q0 217 147 299 q-121 83 -121 274 q0 185 102 287 q102 102 296 102 q194 0 295.5 -102 q101.5 -102 101.5 -287 q0 -191 -121 -274 q148 -83 148 -299 q0 -186 -107.5 -287.5 q-107.5 -101.5 -316.5 -101.5 q-209 0 -316.5 101.5 q-107.5 101.5 -107.5 287.5 ZM365 360 q0 -72 49 -113.5 q49 -41.5 129 -41.5 q80 0 129 41.5 q49 41.5 49 113.5 l0 41 q0 83 -48.5 125.5 q-48.5 42.5 -129.5 42.5 q-81 0 -129.5 -42.5 q-48.5 -42.5 -48.5 -125.5 l0 -41 ZM391 918 q0 -78 40 -117 q40 -39 112 -39 q72 0 111.5 39 q39.5 39 39.5 117 l0 40 q0 70 -40 109 q-40 39 -111 39 q-71 0 -111.5 -39 q-40.5 -39 -40.5 -109 l0 -40 Z" /><glyph glyph-name="nine" unicode="9" d="M133 854 l0 88 q0 187 102.5 288 q102.5 101 307.5 101 q205 0 307 -101 q102 -101 102 -288 l0 -573 q0 -187 -101.5 -288 q-101.5 -101 -303.5 -101 q-184 0 -284.5 87 q-100.5 87 -112.5 244 q-3 47 43 47 l157 0 q21 0 31.5 -10 q10.5 -10 15.5 -33 q19 -110 150 -110 q160 0 160 143 l0 164 q-80 -47 -195 -47 q-184 0 -281.5 102 q-97.5 102 -97.5 287 ZM379 834 q0 -144 160 -144 q168 0 168 162 l0 111 q0 143 -164 143 q-164 0 -164 -143 l0 -129 Z" /><glyph glyph-name="colon" unicode=":" d="M391 45 l0 213 q0 45 45 45 l213 0 q45 0 45 -45 l0 -213 q0 -45 -45 -45 l-213 0 q-45 0 -45 45 ZM391 684 l0 213 q0 45 45 45 l213 0 q45 0 45 -45 l0 -213 q0 -45 -45 -45 l-213 0 q-45 0 -45 45 Z" /><glyph glyph-name="semicolon" unicode=";" d="M391 45 l0 213 q0 45 45 45 l213 0 q45 0 45 -45 l0 -145 q0 -31 -10 -56 l-119 -309 q-14 -35 -53 -35 l-49 0 q-51 0 -39 51 l68 236 l-56 0 q-45 0 -45 45 ZM391 684 l0 213 q0 45 45 45 l213 0 q45 0 45 -45 l0 -213 q0 -45 -45 -45 l-213 0 q-45 0 -45 45 Z" /><glyph glyph-name="less" unicode="&lt;" d="M154 567 l0 66 q0 38 34 53 l693 262 q23 9 37 -0.5 q14 -9.5 14 -34.5 l0 -98 q0 -38 -35 -53 l-428 -162 l428 -162 q35 -15 35 -53 l0 -98 q0 -25 -14 -34.5 q-14 -9.5 -37 -0.5 l-693 262 q-34 15 -34 53 Z" /><glyph glyph-name="equal" unicode="=" d="M154 391 l0 90 q0 45 45 45 l688 0 q45 0 45 -45 l0 -90 q0 -45 -45 -45 l-688 0 q-45 0 -45 45 ZM154 719 l0 90 q0 45 45 45 l688 0 q45 0 45 -45 l0 -90 q0 -45 -45 -45 l-688 0 q-45 0 -45 45 Z" /><glyph glyph-name="greater" unicode="&gt;" d="M154 287 l0 98 q0 38 34 53 l428 162 l-428 162 q-34 15 -34 53 l0 98 q0 25 14 34.5 q14 9.5 37 0.5 l692 -262 q35 -15 35 -53 l0 -66 q0 -38 -35 -53 l-692 -262 q-23 -9 -37 0.5 q-14 9.5 -14 34.5 Z" /><glyph glyph-name="question" unicode="?" d="M133 942 q0 187 102.5 288 q102.5 101 307.5 101 q205 0 307 -101 q102 -101 102 -288 l0 -31 q0 -158 -73 -255.5 q-73 -97.5 -220 -123.5 l-2 -47 q-3 -45 -47 -45 l-135 0 q-44 0 -47 45 l-6 209 q-3 45 43 45 l78 0 q164 0 164 144 l0 80 q0 143 -164 143 q-164 0 -164 -143 l0 -21 q0 -45 -45 -45 l-156 0 q-45 0 -45 45 ZM391 45 l0 213 q0 45 45 45 l213 0 q45 0 45 -45 l0 -213 q0 -45 -45 -45 l-213 0 q-45 0 -45 45 Z" /><glyph glyph-name="at" unicode="@" d="M113 369 l0 491 q0 188 105.5 288.5 q105.5 100.5 324.5 100.5 q219 0 324.5 -100.5 q105.5 -100.5 105.5 -288.5 l0 -477 q0 -45 -45 -45 l-78 0 q-40 0 -49 39 l-2 4 q-64 -64 -170 -64 q-106 0 -178 72.5 q-72 72.5 -72 183.5 l0 7 q0 280 305 280 l84 0 l0 21 q0 81 -51.5 127.5 q-51.5 46.5 -153.5 46.5 q-119 0 -182.5 -47 q-63.5 -47 -63.5 -127 l0 -533 q0 -174 232 -174 q133 0 258 55 q41 18 59 -22 l39 -82 q20 -44 -20 -62 q-174 -83 -342 -83 q-219 0 -324.5 100.5 q-105.5 100.5 -105.5 288.5 ZM573 590 q0 -42 27 -65 q27 -23 62 -23 q41 0 73.5 25.5 q32.5 25.5 32.5 76.5 l0 84 l-86 0 q-46 0 -77.5 -23.5 q-31.5 -23.5 -31.5 -66.5 l0 -8 Z" /><glyph glyph-name="A" unicode="a" d="M123 45 l0 113 q0 23 6 53 l242 1061 q9 39 49 39 l246 0 q40 0 49 -39 l241 -1061 q7 -35 7 -53 l0 -113 q0 -45 -45 -45 l-156 0 q-45 0 -45 45 l0 148 l-33 155 l-283 0 l-32 -155 l0 -148 q0 -45 -45 -45 l-156 0 q-45 0 -45 45 ZM446 573 l193 0 l-96 467 l-97 -467 Z" /><glyph glyph-name="B" unicode="b" d="M133 45 l0 1221 q0 45 45 45 l334 0 q205 0 307.5 -101 q102.5 -101 102.5 -288 q0 -167 -97 -254 q127 -87 127 -279 q0 -187 -102 -288 q-102 -101 -307 -101 l-365 0 q-45 0 -45 45 ZM379 225 l164 0 q164 0 164 144 l0 41 q0 143 -164 143 l-164 0 l0 -328 ZM379 758 l133 0 q164 0 164 143 l0 41 q0 143 -164 143 l-133 0 l0 -327 Z" /><glyph glyph-name="C" unicode="c" d="M133 369 l0 573 q0 187 102.5 288 q102.5 101 307.5 101 q205 0 307 -101 q102 -101 102 -288 l0 -10 q0 -45 -45 -45 l-155 0 q-45 0 -45 45 l0 31 q0 143 -164 143 q-164 0 -164 -143 l0 -615 q0 -143 164 -143 q164 0 164 143 l0 31 q0 45 45 45 l155 0 q45 0 45 -45 l0 -10 q0 -187 -102 -288 q-102 -101 -307 -101 q-205 0 -307.5 101 q-102.5 101 -102.5 288 Z" /><glyph glyph-name="D" unicode="d" d="M133 45 l0 1221 q0 45 45 45 l365 0 q205 0 307 -101 q102 -101 102 -288 l0 -533 q0 -187 -102 -288 q-102 -101 -307 -101 l-365 0 q-45 0 -45 45 ZM379 225 l164 0 q164 0 164 144 l0 573 q0 143 -164 143 l-164 0 l0 -860 Z" /><glyph glyph-name="E" unicode="e" d="M174 45 l0 1221 q0 45 45 45 l647 0 q45 0 45 -45 l0 -136 q0 -45 -45 -45 l-446 0 l0 -317 l344 0 q45 0 45 -45 l0 -135 q0 -45 -45 -45 l-344 0 l0 -318 l446 0 q45 0 45 -45 l0 -135 q0 -45 -45 -45 l-647 0 q-45 0 -45 45 Z" /><glyph glyph-name="F" unicode="f" d="M174 45 l0 1221 q0 45 45 45 l647 0 q45 0 45 -45 l0 -136 q0 -45 -45 -45 l-446 0 l0 -317 l344 0 q45 0 45 -45 l0 -135 q0 -45 -45 -45 l-344 0 l0 -498 q0 -45 -45 -45 l-156 0 q-45 0 -45 45 Z" /><glyph glyph-name="G" unicode="g" d="M133 369 l0 573 q0 187 102.5 288 q102.5 101 307.5 101 q205 0 307 -101 q102 -101 102 -288 q0 -35 -45 -35 l-155 0 q-45 0 -45 45 l0 11 q0 143 -164 143 q-164 0 -164 -143 l0 -615 q0 -143 164 -143 q164 0 164 143 l0 103 l-119 0 q-45 0 -45 45 l0 135 q0 45 45 45 l319 0 q45 0 45 -45 l0 -262 q0 -187 -102 -288 q-102 -101 -307 -101 q-205 0 -307.5 101 q-102.5 101 -102.5 288 Z" /><glyph glyph-name="H" unicode="h" d="M133 45 l0 1221 q0 45 45 45 l156 0 q45 0 45 -45 l0 -488 l328 0 l0 488 q0 45 45 45 l155 0 q45 0 45 -45 l0 -1221 q0 -45 -45 -45 l-155 0 q-45 0 -45 45 l0 508 l-328 0 l0 -508 q0 -45 -45 -45 l-156 0 q-45 0 -45 45 Z" /><glyph glyph-name="I" unicode="i" d="M195 45 l0 135 q0 45 45 45 l180 0 l0 860 l-180 0 q-45 0 -45 45 l0 136 q0 45 45 45 l606 0 q45 0 45 -45 l0 -136 q0 -45 -45 -45 l-180 0 l0 -860 l180 0 q45 0 45 -45 l0 -135 q0 -45 -45 -45 l-606 0 q-45 0 -45 45 Z" /><glyph glyph-name="J" unicode="j" d="M133 369 q0 34 45 34 l156 0 q45 0 45 -45 l0 -10 q0 -143 164 -143 q164 0 164 143 l0 737 l-385 0 q-46 0 -46 45 l0 136 q0 45 46 45 l585 0 q45 0 45 -45 l0 -897 q0 -187 -102 -288 q-102 -101 -307 -101 q-205 0 -307.5 101 q-102.5 101 -102.5 288 Z" /><glyph glyph-name="K" unicode="k" d="M133 45 l0 1221 q0 45 45 45 l156 0 q45 0 45 -45 l0 -488 l102 0 l244 500 q17 33 53 33 l129 0 q45 0 45 -45 l0 -39 q0 -26 -12 -56 l-254 -505 l254 -506 q12 -30 12 -56 l0 -59 q0 -45 -45 -45 l-121 0 q-36 0 -53 33 l-254 520 l-100 0 l0 -508 q0 -45 -45 -45 l-156 0 q-45 0 -45 45 Z" /><glyph glyph-name="L" unicode="l" d="M174 45 l0 1221 q0 45 45 45 l156 0 q45 0 45 -45 l0 -1041 l446 0 q45 0 45 -45 l0 -135 q0 -45 -45 -45 l-647 0 q-45 0 -45 45 Z" /><glyph glyph-name="M" unicode="m" d="M133 45 l0 1221 q0 45 45 45 l96 0 q37 0 54 -33 l215 -457 l215 457 q17 33 53 33 l96 0 q45 0 45 -45 l0 -1221 q0 -45 -45 -45 l-155 0 q-45 0 -45 45 l0 711 l-99 -193 q-14 -33 -53 -33 l-27 0 q-39 0 -53 33 l-96 189 l0 -707 q0 -45 -45 -45 l-156 0 q-45 0 -45 45 Z" /><glyph glyph-name="N" unicode="n" d="M133 45 l0 1221 q0 45 45 45 l103 0 q36 0 53 -33 l373 -750 l0 738 q0 45 45 45 l155 0 q45 0 45 -45 l0 -1221 q0 -45 -45 -45 l-102 0 q-36 0 -53 33 l-373 749 l0 -737 q0 -45 -45 -45 l-156 0 q-45 0 -45 45 Z" /><glyph glyph-name="O" unicode="o" d="M133 369 l0 573 q0 187 102.5 288 q102.5 101 307.5 101 q205 0 307 -101 q102 -101 102 -288 l0 -573 q0 -187 -102 -288 q-102 -101 -307 -101 q-205 0 -307.5 101 q-102.5 101 -102.5 288 ZM379 348 q0 -143 164 -143 q164 0 164 143 l0 615 q0 143 -164 143 q-164 0 -164 -143 l0 -615 Z" /><glyph glyph-name="P" unicode="p" d="M133 45 l0 1221 q0 45 45 45 l365 0 q205 0 307 -101 q102 -101 102 -288 q0 -187 -102 -288.5 q-102 -101.5 -307 -101.5 l-164 0 l0 -487 q0 -45 -45 -45 l-156 0 q-45 0 -45 45 ZM379 758 l164 0 q164 0 164 143 l0 41 q0 143 -164 143 l-164 0 l0 -327 Z" /><glyph glyph-name="Q" unicode="q" d="M123 369 l0 573 q0 187 102 288 q102 101 307 101 q205 0 307.5 -101 q102.5 -101 102.5 -288 l0 -573 q0 -167 -81.5 -266 q-81.5 -99 -246.5 -119 l0 -103 q0 -45 -45 -45 l-53 0 q-45 0 -45 45 l0 101 q-174 15 -261 115 q-87 100 -87 272 ZM369 348 q0 -114 102 -137 l0 92 q0 45 45 45 l53 0 q45 0 45 -45 l0 -86 q82 29 82 131 l0 615 q0 143 -164 143 q-163 0 -163 -143 l0 -615 Z" /><glyph glyph-name="R" unicode="r" d="M133 45 l0 1221 q0 45 45 45 l365 0 q205 0 307 -101 q102 -101 102 -288 q0 -260 -188 -347 l178 -446 q10 -25 10 -55 l0 -29 q0 -45 -45 -45 l-141 0 q-38 0 -53 35 l-189 497 l-145 0 l0 -487 q0 -45 -45 -45 l-156 0 q-45 0 -45 45 ZM379 758 l164 0 q164 0 164 143 l0 41 q0 143 -164 143 l-164 0 l0 -327 Z" /><glyph glyph-name="S" unicode="s" d="M133 952 q0 181 106.5 280 q106.5 99 303.5 99 q184 0 289.5 -92.5 q105.5 -92.5 117.5 -259.5 q0 -3 0 -6 q0 -41 -43 -41 l-157 0 q-21 0 -32 10.5 q-11 10.5 -16 34.5 q-19 129 -163 129 q-77 0 -118.5 -35 q-41.5 -35 -41.5 -98 q0 -50 31.5 -89.5 q31.5 -39.5 82 -68 q50.5 -28.5 112 -56 q61.5 -27.5 122.5 -62 q61 -34.5 111.5 -77 q50.5 -42.5 82 -110 q31.5 -67.5 31.5 -152.5 q0 -181 -106 -279.5 q-106 -98.5 -303 -98.5 q-185 0 -290.5 92.5 q-105.5 92.5 -117.5 259.5 q0 3 0 6 q0 41 43 41 l158 0 q21 0 31.5 -10.5 q10.5 -10.5 15.5 -34.5 q10 -67 54 -98 q44 -31 110 -31 q77 0 118.5 35 q41.5 35 41.5 98 q0 50 -31.5 89.5 q-31.5 39.5 -82.5 67.5 q-51 28 -112 55.5 q-61 27.5 -122 62 q-61 34.5 -112 77 q-51 42.5 -82.5 110 q-31.5 67.5 -31.5 152.5 Z" /><glyph glyph-name="T" unicode="t" d="M133 1130 l0 136 q0 45 45 45 l729 0 q45 0 45 -45 l0 -136 q0 -45 -45 -45 l-241 0 l0 -1040 q0 -45 -45 -45 l-156 0 q-45 0 -45 45 l0 1040 l-242 0 q-45 0 -45 45 Z" /><glyph glyph-name="U" unicode="u" d="M133 369 l0 897 q0 45 45 45 l156 0 q45 0 45 -45 l0 -918 q0 -143 164 -143 q164 0 164 143 l0 918 q0 45 45 45 l155 0 q45 0 45 -45 l0 -897 q0 -187 -102 -288 q-102 -101 -307 -101 q-205 0 -307.5 101 q-102.5 101 -102.5 288 Z" /><glyph glyph-name="V" unicode="v" d="M123 1153 l0 113 q0 45 45 45 l156 0 q45 0 45 -45 l0 -148 l174 -848 l174 848 l0 148 q0 45 45 45 l156 0 q45 0 45 -45 l0 -113 q0 -18 -7 -53 l-241 -1061 q-9 -39 -49 -39 l-246 0 q-40 0 -49 39 l-242 1061 q-6 30 -6 53 Z" /><glyph glyph-name="W" unicode="w" d="M106 1264 q0 47 46 47 l143 0 q44 0 47 -43 l53 -736 l90 213 q14 35 52 35 l10 0 q37 0 51 -35 l90 -217 l55 740 q3 43 48 43 l143 0 q45 0 45 -47 l-78 -1221 q-3 -43 -45 -43 l-106 0 q-39 0 -54 37 l-153 416 l-154 -416 q-15 -37 -53 -37 l-107 0 q-42 0 -45 43 l-78 1221 Z" /><glyph glyph-name="X" unicode="x" d="M133 45 l0 59 q0 26 12 56 l254 506 l-254 505 q-12 30 -12 56 l0 39 q0 45 45 45 l129 0 q36 0 53 -35 l183 -399 l182 399 q17 35 53 35 l129 0 q45 0 45 -45 l0 -39 q0 -26 -12 -56 l-254 -505 l254 -506 q12 -30 12 -56 l0 -59 q0 -45 -45 -45 l-121 0 q-36 0 -53 35 l-190 420 l-191 -420 q-17 -35 -53 -35 l-121 0 q-45 0 -45 45 Z" /><glyph glyph-name="Y" unicode="y" d="M133 1073 l0 193 q0 45 45 45 l156 0 q45 0 45 -45 l0 -179 l164 -350 l164 350 l0 179 q0 45 45 45 l155 0 q45 0 45 -45 l0 -193 q0 -27 -14 -55 l-272 -529 l0 -444 q0 -45 -45 -45 l-156 0 q-45 0 -45 45 l0 444 l-273 529 q-14 28 -14 55 Z" /><glyph glyph-name="Z" unicode="z" d="M143 45 l0 252 q0 28 21 55 l543 674 l0 59 l-519 0 q-45 0 -45 45 l0 136 q0 45 45 45 l709 0 q45 0 45 -45 l0 -252 q0 -30 -20 -56 l-543 -673 l0 -60 l518 0 q45 0 45 -45 l0 -135 q0 -45 -45 -45 l-709 0 q-45 0 -45 45 Z" /><glyph glyph-name="bracketleft" unicode="[" d="M317 -170 l0 1548 q0 45 45 45 l422 0 q45 0 45 -45 l0 -135 q0 -45 -45 -45 l-221 0 l0 -1188 l221 0 q45 0 45 -45 l0 -135 q0 -45 -45 -45 l-422 0 q-45 0 -45 45 Z" /><glyph glyph-name="backslash" unicode="\" d="M238 1321 q-12 51 38 51 l154 0 q40 0 49 -39 l369 -1343 q12 -51 -39 -51 l-154 0 q-41 0 -49 38 l-368 1344 Z" /><glyph glyph-name="bracketright" unicode="]" d="M256 -35 q0 45 45 45 l221 0 l0 1188 l-221 0 q-45 0 -45 45 l0 135 q0 45 45 45 l422 0 q45 0 45 -45 l0 -1548 q0 -45 -45 -45 l-422 0 q-45 0 -45 45 l0 135 Z" /><glyph glyph-name="asciicircum" unicode="^" d="M199 684 l264 592 q14 35 51 35 l55 0 q38 0 52 -35 l264 -592 q11 -25 2 -39 q-9 -14 -35 -14 l-115 0 q-37 0 -51 35 l-143 327 l-142 -327 q-14 -35 -51 -35 l-117 0 q-53 0 -34 53 Z" /><glyph glyph-name="underscore" unicode="_" d="M-10 -190 q0 45 45 45 l1016 0 q45 0 45 -45 l0 -52 q0 -45 -45 -45 l-1016 0 q-45 0 -45 45 l0 52 Z" /><glyph glyph-name="grave" unicode="`" d="M352 1296 q0 35 45 35 l152 0 q35 0 55 -28 l98 -142 q19 -24 19 -55 q0 -37 -45 -37 l-92 0 q-33 0 -56 23 l-153 149 q-23 23 -23 55 Z" /><glyph glyph-name="a" unicode="a" d="M133 256 l0 6 q0 142 99.5 211.5 q99.5 69.5 277.5 69.5 l186 0 l0 69 q0 72 -38 109 q-38 37 -109 37 q-99 0 -137 -58 q-21 -34 -54 -34 l-135 0 q-48 0 -45 24 q5 50 30.5 96.5 q25.5 46.5 71.5 87 q46 40.5 122 65 q76 24.5 171 24.5 q173 0 271 -100.5 q98 -100.5 98 -270.5 l0 -547 q0 -45 -45 -45 l-119 0 q-41 0 -49 41 l-8 39 q-108 -100 -266 -100 q-150 0 -236 74 q-86 74 -86 202 ZM369 272 q0 -43 30 -65.5 q30 -22.5 82 -22.5 q79 0 147 38 q68 38 68 85 l0 64 l-188 0 q-139 0 -139 -90 l0 -9 Z" /><glyph glyph-name="b" unicode="b" d="M143 45 l0 1221 q0 45 45 45 l156 0 q45 0 45 -45 l0 -383 q93 80 219 80 q150 0 247 -92.5 q97 -92.5 97 -266.5 l0 -266 q0 -174 -96 -266 q-96 -92 -246 -92 q-149 0 -245 104 l-9 -43 q-8 -41 -49 -41 l-119 0 q-45 0 -45 45 ZM389 369 q0 -82 50 -123 q50 -41 122 -41 q61 0 103.5 39.5 q42.5 39.5 42.5 113.5 l0 226 q0 74 -42.5 113.5 q-42.5 39.5 -103.5 39.5 q-72 0 -122 -41 q-50 -41 -50 -123 l0 -204 Z" /><glyph glyph-name="c" unicode="c" d="M133 369 l0 204 q0 187 102.5 288.5 q102.5 101.5 307.5 101.5 q185 0 288 -82 q103 -82 119 -217 q0 -3 0 -5 q0 -41 -45 -41 l-157 0 q-36 0 -48 41 q-28 78 -157 78 q-164 0 -164 -143 l0 -246 q0 -143 164 -143 q129 0 157 78 q12 41 48 41 l157 0 q45 0 45 -40 q0 -2 0 -5 q-16 -135 -119 -217 q-103 -82 -288 -82 q-205 0 -307.5 101 q-102.5 101 -102.5 288 Z" /><glyph glyph-name="d" unicode="d" d="M133 338 l0 266 q0 174 97 266.5 q97 92.5 247 92.5 q126 0 219 -80 l0 383 q0 45 45 45 l156 0 q45 0 45 -45 l0 -1221 q0 -45 -45 -45 l-119 0 q-41 0 -49 41 l-8 43 q-96 -104 -246 -104 q-150 0 -246 92 q-96 92 -96 266 ZM379 358 q0 -74 42 -113.5 q42 -39.5 103 -39.5 q72 0 122 41 q50 41 50 123 l0 204 q0 82 -50 123 q-50 41 -122 41 q-61 0 -103 -39.5 q-42 -39.5 -42 -113.5 l0 -226 Z" /><glyph glyph-name="e" unicode="e" d="M133 369 l0 204 q0 187 102.5 288.5 q102.5 101.5 307.5 101.5 q204 0 306.5 -99.5 q102.5 -99.5 102.5 -279.5 l0 -109 q0 -45 -45 -45 l-528 0 l0 -92 q0 -143 164 -143 q114 0 153 59 q9 15 13.5 20.5 q4.5 5.5 13.5 11 q9 5.5 22 5.5 l160 0 q24 0 35.5 -12 q11.5 -12 7.5 -35 q-21 -109 -125.5 -186.5 q-104.5 -77.5 -279.5 -77.5 q-205 0 -307.5 101 q-102.5 101 -102.5 288 ZM379 575 l328 0 l0 29 q0 144 -164 144 q-164 0 -164 -144 l0 -29 Z" /><glyph glyph-name="f" unicode="f" d="M133 762 l0 135 q0 45 45 45 l184 0 l0 59 q0 173 88.5 272 q88.5 99 256.5 99 q101 0 243 -49 q31 -10 31 -36 q0 -9 -4 -21 l-33 -95 q-10 -28 -41 -28 q-11 0 -26 4 q-96 27 -158 27 q-111 0 -111 -142 l0 -90 l252 0 q45 0 45 -45 l0 -135 q0 -45 -45 -45 l-252 0 l0 -672 q0 -45 -45 -45 l-155 0 q-46 0 -46 45 l0 672 l-184 0 q-45 0 -45 45 Z" /><glyph glyph-name="g" unicode="g" d="M133 502 l0 102 q0 174 97 266.5 q97 92.5 247 92.5 q149 0 244 -103 l8 41 q8 41 49 41 l119 0 q45 0 45 -45 l0 -774 q0 -186 -99 -287.5 q-99 -101.5 -290 -101.5 q-166 0 -263.5 79.5 q-97.5 79.5 -113.5 200.5 q0 3 0 5 q0 42 45 42 l158 0 q35 0 47 -41 q12 -34 45.5 -52.5 q33.5 -18.5 81.5 -18.5 q65 0 104 34.5 q39 34.5 39 108.5 l0 131 q-93 -80 -221 -80 q-150 0 -246 92.5 q-96 92.5 -96 266.5 ZM379 522 q0 -74 42 -113.5 q42 -39.5 103 -39.5 q72 0 122 40.5 q50 40.5 50 122.5 l0 41 q0 82 -50 123 q-50 41 -122 41 q-61 0 -103 -39.5 q-42 -39.5 -42 -113.5 l0 -62 Z" /><glyph glyph-name="h" unicode="h" d="M143 45 l0 1221 q0 45 45 45 l156 0 q45 0 45 -45 l0 -387 q96 84 238 84 q144 0 229.5 -85.5 q85.5 -85.5 85.5 -252.5 l0 -580 q0 -45 -45 -45 l-156 0 q-45 0 -45 45 l0 559 q0 133 -125 133 q-77 0 -129.5 -46 q-52.5 -46 -52.5 -159 l0 -487 q0 -45 -45 -45 l-156 0 q-45 0 -45 45 Z" /><glyph glyph-name="i" unicode="i" d="M215 45 l0 135 q0 45 45 45 l160 0 l0 492 l-160 0 q-45 0 -45 45 l0 135 q0 45 45 45 l361 0 q45 0 45 -45 l0 -672 l159 0 q45 0 45 -45 l0 -135 q0 -45 -45 -45 l-565 0 q-45 0 -45 45 ZM410 1110 l0 176 q0 45 45 45 l176 0 q45 0 45 -45 l0 -176 q0 -45 -45 -45 l-176 0 q-45 0 -45 45 Z" /><glyph glyph-name="j" unicode="j" d="M147 -160 l33 94 q12 32 40 32 q8 0 18 -3 q105 -31 168 -31 q110 0 110 142 l0 643 l-160 0 q-45 0 -45 45 l0 135 q0 45 45 45 l361 0 q45 0 45 -45 l0 -793 q0 -173 -88 -271.5 q-88 -98.5 -256 -98.5 q-102 0 -244 49 q-31 10 -31 36 q0 9 4 21 ZM506 1110 l0 176 q0 45 45 45 l176 0 q45 0 45 -45 l0 -176 q0 -45 -45 -45 l-176 0 q-45 0 -45 45 Z" /><glyph glyph-name="k" unicode="k" d="M133 45 l0 1221 q0 45 45 45 l156 0 q45 0 45 -45 l0 -672 l92 0 l260 321 q21 27 55 27 l121 0 q45 0 45 -45 l0 -23 q0 -28 -18 -55 l-268 -338 l268 -338 q18 -27 18 -55 l0 -43 q0 -45 -45 -45 l-112 0 q-35 0 -56 27 l-270 342 l-90 0 l0 -324 q0 -45 -45 -45 l-156 0 q-45 0 -45 45 Z" /><glyph glyph-name="l" unicode="l" d="M215 45 l0 135 q0 45 45 45 l160 0 l0 860 l-160 0 q-45 0 -45 45 l0 136 q0 45 45 45 l361 0 q45 0 45 -45 l0 -1041 l159 0 q45 0 45 -45 l0 -135 q0 -45 -45 -45 l-565 0 q-45 0 -45 45 Z" /><glyph glyph-name="m" unicode="m" d="M102 45 l0 852 q0 45 45 45 l89 0 q40 0 49 -39 l4 -10 q34 32 81.5 51 q47.5 19 94.5 19 q99 0 149 -70 q73 70 177 70 q90 0 141 -56 q51 -56 51 -149 l0 -713 q0 -45 -45 -45 l-127 0 q-45 0 -45 45 l0 705 q0 49 -49 49 q-27 0 -46.5 -18.5 q-19.5 -18.5 -19.5 -45.5 l0 -690 q0 -45 -45 -45 l-127 0 q-45 0 -45 45 l0 705 q0 49 -47 49 q-27 0 -47.5 -18.5 q-20.5 -18.5 -20.5 -45.5 l0 -690 q0 -45 -45 -45 l-127 0 q-45 0 -45 45 Z" /><glyph glyph-name="n" unicode="n" d="M143 45 l0 852 q0 45 45 45 l119 0 q41 0 49 -41 l9 -45 q104 107 262 107 q144 0 229.5 -85.5 q85.5 -85.5 85.5 -252.5 l0 -580 q0 -45 -45 -45 l-156 0 q-45 0 -45 45 l0 559 q0 133 -125 133 q-77 0 -129.5 -46 q-52.5 -46 -52.5 -159 l0 -487 q0 -45 -45 -45 l-156 0 q-45 0 -45 45 Z" /><glyph glyph-name="o" unicode="o" d="M133 369 l0 204 q0 187 102.5 288.5 q102.5 101.5 307.5 101.5 q205 0 307 -101.5 q102 -101.5 102 -288.5 l0 -204 q0 -187 -102 -288 q-102 -101 -307 -101 q-205 0 -307.5 101 q-102.5 101 -102.5 288 ZM379 348 q0 -143 164 -143 q164 0 164 143 l0 246 q0 143 -164 143 q-164 0 -164 -143 l0 -246 Z" /><glyph glyph-name="p" unicode="p" d="M143 -201 l0 1098 q0 45 45 45 l119 0 q41 0 49 -41 l9 -41 q95 103 243 103 q150 0 247 -92.5 q97 -92.5 97 -266.5 l0 -266 q0 -174 -96 -266 q-96 -92 -246 -92 q-130 0 -221 79 l0 -260 q0 -45 -45 -45 l-156 0 q-45 0 -45 45 ZM389 369 q0 -82 50 -123 q50 -41 122 -41 q61 0 103.5 39.5 q42.5 39.5 42.5 113.5 l0 226 q0 74 -42.5 113.5 q-42.5 39.5 -103.5 39.5 q-72 0 -122 -41 q-50 -41 -50 -123 l0 -204 Z" /><glyph glyph-name="q" unicode="q" d="M133 338 l0 266 q0 174 97 266.5 q97 92.5 247 92.5 q149 0 244 -103 l8 41 q8 41 49 41 l119 0 q45 0 45 -45 l0 -1098 q0 -45 -45 -45 l-156 0 q-45 0 -45 45 l0 260 q-91 -79 -221 -79 q-150 0 -246 92 q-96 92 -96 266 ZM379 358 q0 -74 42 -113.5 q42 -39.5 103 -39.5 q72 0 122 41 q50 41 50 123 l0 204 q0 82 -50 123 q-50 41 -122 41 q-61 0 -103 -39.5 q-42 -39.5 -42 -113.5 l0 -226 Z" /><glyph glyph-name="r" unicode="r" d="M174 45 l0 852 q0 45 45 45 l119 0 q41 0 49 -41 l8 -45 q104 107 262 107 q146 0 231 -90.5 q85 -90.5 85 -278.5 l0 -37 q0 -45 -45 -45 l-156 0 q-45 0 -45 45 l0 37 q0 143 -125 143 q-77 0 -129.5 -46 q-52.5 -46 -52.5 -159 l0 -487 q0 -45 -45 -45 l-156 0 q-45 0 -45 45 Z" /><glyph glyph-name="s" unicode="s" d="M154 668 q0 131 104.5 213 q104.5 82 284.5 82 q163 0 265 -76.5 q102 -76.5 120 -198.5 q1 -5 1 -10 q0 -37 -44 -37 l-160 0 q-19 0 -30 8.5 q-11 8.5 -21 28.5 q-36 65 -148 65 q-57 0 -94 -19 q-37 -19 -37 -56 q0 -41 45 -62 q45 -21 135 -37 q43 -8 69.5 -13.5 q26.5 -5.5 68.5 -18 q42 -12.5 68.5 -26 q26.5 -13.5 58 -36 q31.5 -22.5 49.5 -49.5 q18 -27 30.5 -66 q12.5 -39 12.5 -86 q0 -131 -104.5 -212.5 q-104.5 -81.5 -284.5 -81.5 q-163 0 -265 76 q-102 76 -120 198 q-1 5 -1 10 q0 37 44 37 l159 0 q34 0 52 -37 q36 -65 147 -65 q57 0 94 19 q37 19 37 56 q0 41 -45 62 q-45 21 -135 37 q-43 8 -69.5 13.5 q-26.5 5.5 -68.5 18 q-42 12.5 -68.5 26 q-26.5 13.5 -58 36 q-31.5 22.5 -49 49.5 q-17.5 27 -30 66 q-12.5 39 -12.5 86 Z" /><glyph glyph-name="t" unicode="t" d="M127 762 l0 135 q0 45 45 45 l190 0 l0 154 q0 41 41 49 l156 33 q7 1 14 1 q35 0 35 -42 l0 -195 l273 0 q45 0 45 -45 l0 -135 q0 -45 -45 -45 l-273 0 l0 -383 q0 -141 107 -141 q49 0 131 20 q8 2 15 2 q30 0 40 -33 l35 -108 q4 -12 4 -22 q0 -27 -33 -36 q-122 -36 -245 -36 q-138 0 -219 94.5 q-81 94.5 -81 255.5 l0 387 l-190 0 q-45 0 -45 45 Z" /><glyph glyph-name="u" unicode="u" d="M143 317 l0 580 q0 45 45 45 l156 0 q45 0 45 -45 l0 -559 q0 -133 125 -133 q77 0 129.5 46 q52.5 46 52.5 159 l0 487 q0 45 45 45 l156 0 q45 0 45 -45 l0 -852 q0 -45 -45 -45 l-119 0 q-41 0 -49 41 l-8 45 q-103 -106 -262 -106 q-144 0 -230 85 q-86 85 -86 252 Z" /><glyph glyph-name="v" unicode="v" d="M113 786 l0 111 q0 45 45 45 l155 0 q45 0 45 -45 l0 -119 l185 -532 l184 532 l0 119 q0 45 45 45 l156 0 q45 0 45 -45 l0 -111 q0 -30 -10 -55 l-263 -696 q-15 -35 -53 -35 l-209 0 q-38 0 -53 35 l-262 696 q-10 25 -10 55 Z" /><glyph glyph-name="w" unicode="w" d="M109 895 q0 3 0 6 q0 41 43 41 l143 0 q44 0 47 -43 l45 -393 l98 260 q15 35 54 35 l6 0 q38 0 53 -35 l100 -264 l45 397 q3 43 48 43 l143 0 q43 0 43 -41 q0 -3 0 -6 l-74 -852 q-3 -43 -47 -43 l-106 0 q-40 0 -52 37 l-155 442 l-156 -442 q-12 -37 -51 -37 l-107 0 q-44 0 -47 43 l-73 852 Z" /><glyph glyph-name="x" unicode="x" d="M133 45 l0 43 q0 31 19 55 l245 338 l-245 338 q-19 24 -19 55 l0 23 q0 45 45 45 l127 0 q35 0 55 -29 l183 -268 l182 268 q20 29 55 29 l127 0 q45 0 45 -45 l0 -23 q0 -32 -18 -55 l-246 -338 l246 -338 q18 -23 18 -55 l0 -43 q0 -45 -45 -45 l-119 0 q-36 0 -53 29 l-192 284 l-193 -284 q-17 -29 -53 -29 l-119 0 q-45 0 -45 45 Z" /><glyph glyph-name="y" unicode="y" d="M113 786 l0 111 q0 45 45 45 l155 0 q45 0 45 -45 l0 -135 l185 -481 l184 481 l0 135 q0 45 45 45 l156 0 q45 0 45 -45 l0 -111 q0 -30 -10 -55 l-400 -942 q-14 -35 -51 -35 l-127 0 q-25 0 -34.5 14 q-9.5 14 -0.5 37 l78 199 l-305 727 q-10 25 -10 55 Z" /><glyph glyph-name="z" unicode="z" d="M158 45 l0 215 q0 35 26 55 l506 402 l-487 0 q-45 0 -45 45 l0 135 q0 45 45 45 l680 0 q45 0 45 -45 l0 -215 q0 -34 -27 -55 l-506 -402 l488 0 q45 0 45 -45 l0 -135 q0 -45 -45 -45 l-680 0 q-45 0 -45 45 Z" /><glyph glyph-name="braceleft" unicode="{" d="M184 535 l0 124 q0 42 45 48 q111 10 153 48.5 q42 38.5 42 98.5 q0 48 -4 133 q-4 85 -4 135 q0 78 18 131 q18 53 64.5 95.5 q46.5 42.5 131.5 64 q85 21.5 214 25.5 q47 0 47 -45 l0 -131 q0 -45 -47 -45 q-62 -2 -99.5 -10 q-37.5 -8 -57 -24.5 q-19.5 -16.5 -26 -36.5 q-6.5 -20 -6.5 -54 q0 -45 1 -131.5 q1 -86.5 1 -137.5 q0 -72 -41 -134.5 q-41 -62.5 -114 -90.5 q73 -30 114 -92 q41 -62 41 -133 q0 -52 -1 -139 q-1 -87 -1 -132 q0 -34 6.5 -54 q6.5 -20 26 -36.5 q19.5 -16.5 57 -24.5 q37.5 -8 99.5 -10 q47 0 47 -45 l0 -131 q0 -45 -47 -45 q-129 4 -214 25.5 q-85 21.5 -131.5 64 q-46.5 42.5 -64.5 95.5 q-18 53 -18 131 q0 51 4 136.5 q4 85.5 4 131.5 q0 60 -42 98.5 q-42 38.5 -153 48.5 q-45 6 -45 48 Z" /><glyph glyph-name="bar" unicode="|" d="M440 -201 l0 1712 q0 45 45 45 l115 0 q45 0 45 -45 l0 -1712 q0 -45 -45 -45 l-115 0 q-45 0 -45 45 Z" /><glyph glyph-name="braceright" unicode="}" d="M195 -68 q0 45 47 45 q81 3 122.5 18 q41.5 15 53.5 38.5 q12 23.5 12 68.5 q0 45 -1 132 q-1 87 -1 139 q0 71 41.5 133 q41.5 62 114.5 92 q-73 28 -114.5 91 q-41.5 63 -41.5 134 q0 51 1 137.5 q1 86.5 1 131.5 q0 45 -12 68.5 q-12 23.5 -53.5 38.5 q-41.5 15 -122.5 18 q-47 0 -47 45 l0 131 q0 45 47 45 q129 -4 214 -25.5 q85 -21.5 131.5 -64 q46.5 -42.5 64.5 -95.5 q18 -53 18 -131 q0 -50 -4 -135 q-4 -85 -4 -133 q0 -60 42 -98.5 q42 -38.5 152 -48.5 q45 -6 45 -48 l0 -124 q0 -42 -45 -48 q-110 -10 -152 -48.5 q-42 -38.5 -42 -98.5 q0 -46 4 -131.5 q4 -85.5 4 -136.5 q0 -78 -18 -131 q-18 -53 -64.5 -95.5 q-46.5 -42.5 -131.5 -64 q-85 -21.5 -214 -25.5 q-47 0 -47 45 l0 131 Z" /><glyph glyph-name="asciitilde" unicode="~" d="M147 549 q12 104 63 160.5 q51 56.5 138 56.5 q41 0 86.5 -14 q45.5 -14 71.5 -27 q26 -13 80 -43 q37 -21 55.5 -30.5 q18.5 -9.5 42.5 -18 q24 -8.5 41 -8.5 q46 0 61 51 q12 41 48 41 l61 0 q46 0 43 -47 q-9 -112 -60 -172 q-51 -60 -141 -60 q-40 0 -84 13 q-44 13 -73 27.5 q-29 14.5 -80 43.5 q-100 58 -140 58 q-43 0 -59 -52 q-9 -41 -47 -41 l-64 0 q-22 0 -34 16.5 q-12 16.5 -9 45.5 Z" /><glyph glyph-name="uni00A0" unicode=" " d="" /><glyph glyph-name="exclamdown" unicode="¡" d="M391 684 l0 213 q0 45 45 45 l213 0 q45 0 45 -45 l0 -213 q0 -45 -45 -45 l-213 0 q-45 0 -45 45 ZM420 106 l26 265 q3 43 48 43 l98 0 q44 0 47 -43 l27 -265 l0 -430 q0 -45 -45 -45 l-156 0 q-45 0 -45 45 l0 430 Z" /><glyph glyph-name="cent" unicode="¢" d="M133 369 l0 204 q0 169 84.5 268.5 q84.5 99.5 253.5 116.5 l0 72 q0 45 45 45 l53 0 q45 0 45 -45 l0 -72 q151 -14 236.5 -93 q85.5 -79 99.5 -199 q3 -48 -45 -48 l-157 0 q-36 0 -48 41 q-17 51 -86 70 l0 -516 q69 19 86 70 q12 41 48 41 l157 0 q48 0 45 -48 q-14 -120 -99.5 -199 q-85.5 -79 -236.5 -93 l0 -72 q0 -45 -45 -45 l-53 0 q-45 0 -45 45 l0 72 q-169 17 -253.5 116.5 q-84.5 99.5 -84.5 268.5 ZM379 348 q0 -109 92 -135 l0 516 q-92 -26 -92 -135 l0 -246 Z" /><glyph glyph-name="sterling" unicode="£" d="M154 45 l0 98 q0 29 18 56 q102 138 115 309 l-68 0 q-45 0 -45 45 l0 53 q0 45 45 45 l60 0 q-8 38 -28 99.5 q-20 61.5 -33 117.5 q-13 56 -13 115 q0 147 97 247.5 q97 100.5 261 100.5 q157 0 250 -86 q93 -86 105 -235 q3 -47 -44 -47 l-155 0 q-21 0 -31.5 10.5 q-10.5 10.5 -15.5 34.5 q-17 98 -109 98 q-49 0 -80.5 -35 q-31.5 -35 -31.5 -100 q0 -56 27.5 -158.5 q27.5 -102.5 35.5 -161.5 l209 0 q45 0 45 -45 l0 -53 q0 -45 -45 -45 l-205 0 q-8 -151 -88 -283 l457 0 q45 0 45 -45 l0 -135 q0 -45 -45 -45 l-688 0 q-45 0 -45 45 Z" /><glyph glyph-name="currency" unicode="¤" d="M154 223 q-33 33 0 66 l90 88 q-45 79 -45 172 q0 93 45 172 l-90 88 q-32 33 0 65 l63 64 q33 33 66 0 l90 -92 q71 41 170 41 q99 0 170 -41 l90 92 q33 32 65 0 l64 -64 q32 -32 0 -65 l-90 -88 q45 -79 45 -172 q0 -93 -45 -172 l90 -88 q33 -33 0 -66 l-64 -63 q-32 -32 -65 0 l-90 92 q-71 -41 -170 -41 q-99 0 -170 41 l-90 -92 q-33 -33 -66 0 l-63 63 ZM430.5 665.5 q-45.5 -43.5 -45.5 -116.5 q0 -73 45.5 -116.5 q45.5 -43.5 112.5 -43.5 q67 0 112 43.5 q45 43.5 45 116.5 q0 73 -45 116.5 q-45 43.5 -112 43.5 q-67 0 -112.5 -43.5 Z" /><glyph glyph-name="yen" unicode="¥" d="M133 1073 l0 193 q0 45 45 45 l156 0 q45 0 45 -45 l0 -179 l164 -350 l164 350 l0 179 q0 45 45 45 l155 0 q45 0 45 -45 l0 -193 q0 -27 -14 -55 l-90 -174 l39 0 q45 0 45 -45 l0 -54 q0 -45 -45 -45 l-113 0 l-45 -90 l158 0 q45 0 45 -45 l0 -53 q0 -45 -45 -45 l-221 0 l0 -422 q0 -45 -45 -45 l-156 0 q-45 0 -45 45 l0 422 l-221 0 q-45 0 -45 45 l0 53 q0 45 45 45 l157 0 l-45 90 l-112 0 q-45 0 -45 45 l0 54 q0 45 45 45 l39 0 l-91 174 q-14 28 -14 55 Z" /><glyph glyph-name="brokenbar" unicode="¦" d="M440 -201 l0 617 q0 45 45 45 l115 0 q45 0 45 -45 l0 -617 q0 -45 -45 -45 l-115 0 q-45 0 -45 45 ZM440 895 l0 616 q0 45 45 45 l115 0 q45 0 45 -45 l0 -616 q0 -45 -45 -45 l-115 0 q-45 0 -45 45 Z" /><glyph glyph-name="section" unicode="§" d="M133 580 q0 153 119 231 q-82 79 -82 199 q0 152 99 236.5 q99 84.5 274 84.5 q160 0 257.5 -76 q97.5 -76 112.5 -208 q3 -48 -45 -48 l-155 0 q-21 0 -32 10 q-11 10 -17 33 q-21 74 -125 74 q-123 0 -123 -102 q0 -38 29.5 -67.5 q29.5 -29.5 77 -51 q47.5 -21.5 104.5 -43.5 q57 -22 114 -52 q57 -30 104.5 -68.5 q47.5 -38.5 77 -102 q29.5 -63.5 29.5 -144.5 q0 -154 -121 -231 q84 -77 84 -199 q0 -152 -98.5 -236.5 q-98.5 -84.5 -273.5 -84.5 q-160 0 -258 76 q-98 76 -113 208 q-3 48 45 48 l156 0 q21 0 32 -10 q11 -10 17 -33 q21 -74 125 -74 q123 0 123 102 q0 38 -29.5 67.5 q-29.5 29.5 -77 51 q-47.5 21.5 -104.5 43.5 q-57 22 -114.5 52 q-57.5 30 -105 68.5 q-47.5 38.5 -77 102 q-29.5 63.5 -29.5 144.5 ZM379 575 q0 -35 17.5 -63.5 q17.5 -28.5 50.5 -50.5 q33 -22 69 -39.5 q36 -17.5 85 -37.5 q21 -8 32 -13 q74 35 74 118 q0 35 -17 63.5 q-17 28.5 -53 52 q-36 23.5 -68.5 39 q-32.5 15.5 -86.5 38.5 q-19 8 -29 12 q-74 -35 -74 -119 Z" /><glyph glyph-name="dieresis" unicode="¨" d="M248 1135 l0 131 q0 45 45 45 l131 0 q45 0 45 -45 l0 -131 q0 -45 -45 -45 l-131 0 q-45 0 -45 45 ZM616 1135 l0 131 q0 45 46 45 l131 0 q45 0 45 -45 l0 -131 q0 -45 -45 -45 l-131 0 q-46 0 -46 45 Z" /><glyph glyph-name="copyright" unicode="©" d="M113 696 q0 178 126 303 q126 125 304 125 q179 0 304.5 -125 q125.5 -125 125.5 -303 q0 -177 -126 -302.5 q-126 -125.5 -304 -125.5 q-177 0 -303.5 125.5 q-126.5 125.5 -126.5 302.5 ZM327 914.5 q-91 -91.5 -91 -218.5 q0 -127 91 -218 q91 -91 216 -91 q126 0 216.5 91 q90.5 91 90.5 218 q0 127 -90.5 218.5 q-90.5 91.5 -216.5 91.5 q-125 0 -216 -91.5 ZM369 657 l0 78 q0 86 40.5 126 q40.5 40 133.5 40 q145 0 170 -102 q4 -23 -7.5 -35 q-11.5 -12 -35.5 -12 l-29 0 q-10 0 -17 3 q-7 3 -10.5 6 q-3.5 3 -10.5 11 q-7 8 -11 12 q-20 13 -49 13 q-62 0 -62 -54 l0 -94 q0 -53 62 -53 q33 0 47 14 q4 4 11 11.5 q7 7.5 11 10.5 q4 3 11 6 q7 3 16 3 l31 0 q24 0 35.5 -12 q11.5 -12 7.5 -35 q-25 -102 -170 -102 q-93 0 -133.5 39.5 q-40.5 39.5 -40.5 125.5 Z" /><glyph glyph-name="ordfeminine" unicode="ª" d="M244 838 l0 2 q0 102 70 150 q70 48 194 48 l117 0 l0 47 q0 84 -88 84 q-50 0 -72 -22 q-11 -12 -15.5 -16.5 q-4.5 -4.5 -14.5 -9.5 q-10 -5 -23 -5 l-90 0 q-22 0 -34.5 7.5 q-12.5 7.5 -11.5 19.5 q10 76 81.5 132 q71.5 56 199.5 56 q122 0 192 -71 q70 -71 70 -191 l0 -367 q0 -45 -45 -45 l-78 0 q-41 0 -49 41 l-2 11 q-72 -66 -178 -66 q-104 0 -163.5 53 q-59.5 53 -59.5 142 ZM430 850 q0 -45 59 -45 q47 0 91.5 22.5 q44.5 22.5 44.5 49.5 l0 28 l-119 0 q-76 0 -76 -49 l0 -6 Z" /><glyph glyph-name="guillemotleft" unicode="«" d="M139 489 q-19 31 0 62 l209 356 q20 39 62 19 l108 -60 q42 -19 19 -59 l-158 -287 l158 -287 q23 -40 -19 -59 l-108 -59 q-42 -20 -62 18 l-209 356 ZM528 489 q-19 31 0 62 l195 334 q21 40 61 18 l111 -59 q41 -18 18 -60 l-145 -264 l145 -264 q23 -41 -18 -59 l-111 -60 q-41 -20 -61 19 l-195 333 Z" /><glyph glyph-name="logicalnot" unicode="¬" d="M154 555 l0 90 q0 45 45 45 l688 0 q45 0 45 -45 l0 -295 q0 -45 -45 -45 l-60 0 q-45 0 -45 45 l0 160 l-583 0 q-45 0 -45 45 Z" /><glyph glyph-name="uni00AD" unicode="­" d="M297 504 l0 110 q0 45 45 45 l401 0 q45 0 45 -45 l0 -110 q0 -45 -45 -45 l-401 0 q-45 0 -45 45 Z" /><glyph glyph-name="registered" unicode="®" d="M113 696 q0 178 126 303 q126 125 304 125 q179 0 304.5 -125 q125.5 -125 125.5 -303 q0 -177 -126 -302.5 q-126 -125.5 -304 -125.5 q-177 0 -303.5 125.5 q-126.5 125.5 -126.5 302.5 ZM327 914.5 q-91 -91.5 -91 -218.5 q0 -127 91 -218 q91 -91 216 -91 q126 0 216.5 91 q90.5 91 90.5 218 q0 127 -90.5 218.5 q-90.5 91.5 -216.5 91.5 q-125 0 -216 -91.5 ZM403 543 l0 307 q0 45 46 45 l88 0 q76 0 114.5 -36.5 q38.5 -36.5 38.5 -102.5 q0 -77 -55 -111 l33 -61 q14 -28 14 -56 q0 -30 -45 -30 q-30 0 -47 32 l-43 91 l-10 0 l-41 0 l0 -78 q0 -45 -45 -45 l-2 0 q-46 0 -46 45 ZM496 705 l41 0 q61 0 61 47 l0 6 q0 53 -61 53 l-41 0 l0 -106 Z" /><glyph glyph-name="macron" unicode="¯" d="M297 1137 l0 77 q0 46 45 46 l401 0 q45 0 45 -46 l0 -77 q0 -45 -45 -45 l-401 0 q-45 0 -45 45 Z" /><glyph glyph-name="degree" unicode="°" d="M276 1085 q0 110 79 188.5 q79 78.5 188 78.5 q110 0 188 -78.5 q78 -78.5 78 -188.5 q0 -109 -78 -187.5 q-78 -78.5 -188 -78.5 q-109 0 -188 78.5 q-79 78.5 -79 187.5 ZM470 1158 q-30 -30 -30 -73 q0 -43 30 -72.5 q30 -29.5 73 -29.5 q43 0 72.5 29.5 q29.5 29.5 29.5 72.5 q0 43 -29.5 73 q-29.5 30 -72.5 30 q-43 0 -73 -30 Z" /><glyph glyph-name="plusminus" unicode="±" d="M154 207 l0 90 q0 45 45 45 l688 0 q45 0 45 -45 l0 -90 q0 -45 -45 -45 l-688 0 q-45 0 -45 45 ZM154 719 l0 90 q0 45 45 45 l254 0 l0 213 q0 45 45 45 l90 0 q45 0 45 -45 l0 -213 l254 0 q45 0 45 -45 l0 -90 q0 -45 -45 -45 l-254 0 l0 -213 q0 -45 -45 -45 l-90 0 q-45 0 -45 45 l0 213 l-254 0 q-45 0 -45 45 Z" /><glyph glyph-name="acute" unicode="´" d="M365 1114 q0 24 18 47 l98 142 q20 28 56 28 l151 0 q45 0 45 -35 q0 -33 -22 -55 l-154 -149 q-23 -23 -55 -23 l-92 0 q-45 0 -45 45 Z" /><glyph glyph-name="mu" unicode="µ" d="M143 -201 l0 1098 q0 45 45 45 l156 0 q45 0 45 -45 l0 -559 q0 -133 125 -133 q77 0 129.5 46 q52.5 46 52.5 159 l0 487 q0 45 45 45 l156 0 q45 0 45 -45 l0 -852 q0 -45 -45 -45 l-119 0 q-41 0 -49 41 l-8 45 q-103 -106 -262 -106 q-36 0 -70 6 l0 -187 q0 -45 -45 -45 l-156 0 q-45 0 -45 45 Z" /><glyph glyph-name="paragraph" unicode="¶" d="M133 973 q0 162 89 250 q89 88 267 88 l418 0 q45 0 45 -45 l0 -1467 q0 -45 -45 -45 l-73 0 q-46 0 -46 45 l0 1348 l-135 0 l0 -1348 q0 -45 -45 -45 l-73 0 q-46 0 -46 45 l0 836 q-178 0 -267 87.5 q-89 87.5 -89 250.5 Z" /><glyph glyph-name="periodcentered" unicode="·" d="M391 455 l0 213 q0 45 45 45 l213 0 q45 0 45 -45 l0 -213 q0 -45 -45 -45 l-213 0 q-45 0 -45 45 Z" /><glyph glyph-name="cedilla" unicode="¸" d="M399 -193 q-6 21 6.5 34.5 q12.5 13.5 36.5 13.5 l31 0 q10 0 17 -3.5 q7 -3.5 14 -9 q7 -5.5 12 -8.5 q12 -6 27 -6 q37 0 37 35 l0 24 q0 31 -37 31 l-21 0 q-45 0 -45 45 l0 19 q0 45 45 45 l21 0 q149 0 149 -136 l0 -28 q0 -139 -149 -139 q-119 0 -144 83 Z" /><glyph glyph-name="ordmasculine" unicode="º" d="M252 920 l0 135 q0 133 72.5 204.5 q72.5 71.5 218.5 71.5 q146 0 218.5 -71.5 q72.5 -71.5 72.5 -204.5 l0 -135 q0 -133 -72.5 -205 q-72.5 -72 -218.5 -72 q-146 0 -218.5 72 q-72.5 72 -72.5 205 ZM446 903 q0 -82 97 -82 q96 0 96 82 l0 168 q0 82 -96 82 q-97 0 -97 -82 l0 -168 Z" /><glyph glyph-name="guillemotright" unicode="»" d="M172 256 l145 264 l-145 264 q-23 42 18 60 l111 59 q41 20 61 -18 l195 -334 q19 -31 0 -62 l-195 -333 q-21 -41 -61 -19 l-111 60 q-41 18 -18 59 ZM549 233 l158 287 l-158 287 q-23 41 18 59 l109 60 q41 20 61 -19 l209 -356 q19 -31 0 -62 l-209 -356 q-20 -38 -61 -18 l-109 59 q-41 18 -18 59 Z" /><glyph glyph-name="onequarter" unicode="¼" d="M133 1171 q-22 40 17 62 l110 63 q30 15 57 15 l23 0 q45 0 45 -45 l0 -488 l64 0 q45 0 45 -45 l0 -33 q0 -45 -45 -45 l-261 0 q-45 0 -45 45 l0 33 q0 45 45 45 l64 0 l0 367 l-41 -21 q-40 -22 -61 19 l-17 28 ZM135 74 l275 434 q22 35 63 14 q32 -20 12 -59 l-239 -457 q-22 -42 -62 -16 l-34 20 q-40 25 -15 64 ZM535 168 l0 45 q0 25 12 55 l162 355 q17 32 53 32 l55 0 q25 0 34 -15 q9 -15 -1 -38 l-164 -358 l88 0 l0 90 q0 45 45 45 l43 0 q45 0 45 -45 l0 -90 l29 0 q45 0 45 -45 l0 -31 q0 -45 -45 -45 l-29 0 l0 -78 q0 -45 -45 -45 l-43 0 q-45 0 -45 45 l0 78 l-194 0 q-45 0 -45 45 ZM604 848 l240 455 q18 41 59 18 l37 -23 q39 -22 14 -61 l-274 -432 q-23 -35 -64 -14 q-33 20 -12 57 Z" /><glyph glyph-name="onehalf" unicode="½" d="M133 1171 q-22 40 17 62 l110 63 q30 15 57 15 l23 0 q45 0 45 -45 l0 -488 l64 0 q45 0 45 -45 l0 -33 q0 -45 -45 -45 l-261 0 q-45 0 -45 45 l0 33 q0 45 45 45 l64 0 l0 367 l-41 -21 q-40 -22 -61 19 l-17 28 ZM135 74 l275 434 q22 35 63 14 q32 -20 12 -59 l-239 -457 q-22 -42 -62 -16 l-34 20 q-40 25 -15 64 ZM559 45 l0 100 q0 31 25 56 l204 178 q32 26 42 45 q10 19 10 45 q0 46 -18.5 61 q-18.5 15 -55.5 15 q-32 0 -48 -11 q-16 -11 -22 -38 q-5 -24 -15.5 -34.5 q-10.5 -10.5 -31.5 -10.5 l-45 0 q-45 0 -45 41 q0 73 53.5 123.5 q53.5 50.5 153.5 50.5 q104 0 155.5 -51.5 q51.5 -51.5 51.5 -145.5 q0 -49 -18.5 -86 q-18.5 -37 -69.5 -80 l-199 -170 l0 -10 l236 0 q45 0 45 -45 l0 -33 q0 -45 -45 -45 l-318 0 q-45 0 -45 45 ZM604 848 l240 455 q18 41 59 18 l37 -23 q39 -22 14 -61 l-274 -432 q-23 -35 -64 -14 q-33 20 -12 57 Z" /><glyph glyph-name="threequarters" unicode="¾" d="M111 821 q0 39 45 39 l45 0 q38 0 47 -45 q6 -28 21 -37.5 q15 -9.5 48 -9.5 q74 0 74 63 l0 21 q0 84 -80 84 q-41 0 -41 45 l0 8 q0 45 41 45 q80 0 80 80 l0 23 q0 63 -74 63 q-32 0 -48.5 -10.5 q-16.5 -10.5 -20.5 -38.5 q-9 -45 -47 -45 l-45 0 q-45 0 -45 41 q0 73 53 123.5 q53 50.5 153 50.5 q104 0 155.5 -51.5 q51.5 -51.5 51.5 -145.5 q0 -101 -61 -141 q61 -40 61 -141 q0 -94 -51.5 -145.5 q-51.5 -51.5 -155.5 -51.5 q-100 0 -153 51 q-53 51 -53 125 ZM133 74 l275 434 q22 35 63 14 q32 -20 12 -59 l-239 -457 q-22 -42 -62 -16 l-35 20 q-39 25 -14 64 ZM532 168 l0 45 q0 23 13 55 l162 355 q17 32 53 32 l55 0 q25 0 34 -15 q9 -15 -1 -38 l-164 -358 l88 0 l0 90 q0 45 45 45 l43 0 q45 0 45 -45 l0 -90 l29 0 q45 0 45 -45 l0 -31 q0 -45 -45 -45 l-29 0 l0 -78 q0 -45 -45 -45 l-43 0 q-45 0 -45 45 l0 78 l-194 0 q-46 0 -46 45 ZM602 848 l240 455 q18 41 59 18 l37 -23 q39 -22 14 -61 l-274 -432 q-23 -35 -64 -14 q-33 20 -12 57 Z" /><glyph glyph-name="questiondown" unicode="¿" d="M133 0 l0 31 q0 158 73 255.5 q73 97.5 220 123.5 l2 47 q3 45 47 45 l135 0 q44 0 47 -45 l7 -209 q3 -45 -43 -45 l-78 0 q-164 0 -164 -144 l0 -79 q0 -144 164 -144 q164 0 164 144 l0 20 q0 45 45 45 l155 0 q45 0 45 -45 q0 -187 -102 -288 q-102 -101 -307 -101 q-205 0 -307.5 101 q-102.5 101 -102.5 288 ZM391 684 l0 213 q0 45 45 45 l213 0 q45 0 45 -45 l0 -213 q0 -45 -45 -45 l-213 0 q-45 0 -45 45 Z" /><glyph glyph-name="Agrave" unicode="à" d="M123 45 l0 113 q0 23 6 53 l242 1061 q9 39 49 39 l246 0 q40 0 49 -39 l241 -1061 q7 -35 7 -53 l0 -113 q0 -45 -45 -45 l-156 0 q-45 0 -45 45 l0 148 l-33 155 l-283 0 l-32 -155 l0 -148 q0 -45 -45 -45 l-156 0 q-45 0 -45 45 ZM358 1634 q0 35 45 35 l152 0 q35 0 55 -29 l99 -141 q18 -23 18 -55 q0 -37 -45 -37 l-92 0 q-32 0 -55 23 l-154 149 q-23 23 -23 55 ZM446 573 l193 0 l-96 467 l-97 -467 Z" /><glyph glyph-name="Aacute" unicode="á" d="M123 45 l0 113 q0 23 6 53 l242 1061 q9 39 49 39 l246 0 q40 0 49 -39 l241 -1061 q7 -35 7 -53 l0 -113 q0 -45 -45 -45 l-156 0 q-45 0 -45 45 l0 148 l-33 155 l-283 0 l-32 -155 l0 -148 q0 -45 -45 -45 l-156 0 q-45 0 -45 45 ZM358 1452 q0 23 19 47 l98 141 q20 29 55 29 l152 0 q45 0 45 -45 q0 -23 -22 -45 l-154 -149 q-23 -23 -55 -23 l-93 0 q-45 0 -45 45 ZM446 573 l193 0 l-96 467 l-97 -467 Z" /><glyph glyph-name="Acircumflex" unicode="â" d="M123 45 l0 113 q0 23 6 53 l242 1061 q9 39 49 39 l246 0 q40 0 49 -39 l241 -1061 q7 -35 7 -53 l0 -113 q0 -45 -45 -45 l-156 0 q-45 0 -45 45 l0 148 l-33 155 l-283 0 l-32 -155 l0 -148 q0 -45 -45 -45 l-156 0 q-45 0 -45 45 ZM289 1452 q0 22 22 47 l133 146 q21 24 56 24 l84 0 q34 0 55 -24 l133 -146 q23 -26 23 -57 q0 -35 -45 -35 l-54 0 q-29 0 -55 20 l-98 84 l-101 -84 q-26 -20 -55 -20 l-53 0 q-45 0 -45 45 ZM446 573 l193 0 l-96 467 l-97 -467 Z" /><glyph glyph-name="Atilde" unicode="ã" d="M123 45 l0 113 q0 23 6 53 l242 1061 q9 39 49 39 l246 0 q40 0 49 -39 l241 -1061 q7 -35 7 -53 l0 -113 q0 -45 -45 -45 l-156 0 q-45 0 -45 45 l0 148 l-33 155 l-283 0 l-32 -155 l0 -148 q0 -45 -45 -45 l-156 0 q-45 0 -45 45 ZM229 1532 q25 63 77 101 q52 38 118 38 q91 0 164 -63 q29 -26 47.5 -35.5 q18.5 -9.5 42.5 -9.5 q36 0 61 32 q26 33 60 23 l26 -8 q47 -13 31 -56 q-25 -63 -76.5 -101 q-51.5 -38 -117.5 -38 q-90 0 -164 64 q-29 26 -47.5 35.5 q-18.5 9.5 -42.5 9.5 q-35 0 -64 -33 q-13 -17 -25.5 -23 q-12.5 -6 -31.5 0 l-27 9 q-47 13 -31 55 ZM446 573 l193 0 l-96 467 l-97 -467 Z" /><glyph glyph-name="Adieresis" unicode="ä" d="M123 45 l0 113 q0 23 6 53 l242 1061 q9 39 49 39 l246 0 q40 0 49 -39 l241 -1061 q7 -35 7 -53 l0 -113 q0 -45 -45 -45 l-156 0 q-45 0 -45 45 l0 148 l-33 155 l-283 0 l-32 -155 l0 -148 q0 -45 -45 -45 l-156 0 q-45 0 -45 45 ZM248 1473 l0 131 q0 45 45 45 l131 0 q45 0 45 -45 l0 -131 q0 -46 -45 -46 l-131 0 q-45 0 -45 46 ZM446 573 l193 0 l-96 467 l-97 -467 ZM616 1473 l0 131 q0 45 46 45 l131 0 q45 0 45 -45 l0 -131 q0 -46 -45 -46 l-131 0 q-46 0 -46 46 Z" /><glyph glyph-name="Aring" unicode="å" d="M123 45 l0 113 q0 23 6 53 l242 1061 q9 39 49 39 l246 0 q40 0 49 -39 l241 -1061 q7 -35 7 -53 l0 -113 q0 -45 -45 -45 l-156 0 q-45 0 -45 45 l0 148 l-33 155 l-283 0 l-32 -155 l0 -148 q0 -45 -45 -45 l-156 0 q-45 0 -45 45 ZM404.5 1438.5 q-54.5 52.5 -54.5 132.5 q0 80 52 134 q52 54 141 54 q89 0 140.5 -54 q51.5 -54 51.5 -134 q0 -80 -54.5 -132.5 q-54.5 -52.5 -137.5 -52.5 q-84 0 -138.5 52.5 ZM446 573 l193 0 l-96 467 l-97 -467 ZM469 1573 q0 -30 21 -51 q21 -21 53 -21 q30 0 50.5 21 q20.5 21 20.5 51 q0 32 -20.5 52 q-20.5 20 -50.5 20 q-31 0 -52.5 -20 q-21.5 -20 -21.5 -52 Z" /><glyph glyph-name="AE" unicode="æ" d="M82 45 l0 113 q0 23 6 53 l242 1061 q9 39 49 39 l539 0 q45 0 45 -45 l0 -136 q0 -45 -45 -45 l-170 0 l0 -317 l98 0 q45 0 45 -45 l0 -135 q0 -45 -45 -45 l-98 0 l0 -318 l170 0 q45 0 45 -45 l0 -135 q0 -45 -45 -45 l-351 0 q-45 0 -45 45 l0 303 l-162 0 l-32 -155 l0 -148 q0 -45 -45 -45 l-156 0 q-45 0 -45 45 ZM406 573 l116 0 l0 566 l-116 -566 Z" /><glyph glyph-name="Ccedilla" unicode="ç" d="M133 369 l0 573 q0 187 102.5 288 q102.5 101 307.5 101 q205 0 307 -101 q102 -101 102 -288 l0 -10 q0 -45 -45 -45 l-155 0 q-45 0 -45 45 l0 31 q0 143 -164 143 q-164 0 -164 -143 l0 -615 q0 -143 164 -143 q164 0 164 143 l0 31 q0 45 45 45 l155 0 q45 0 45 -45 l0 -10 q0 -158 -73.5 -255.5 q-73.5 -97.5 -221.5 -123.5 q35 -35 35 -99 l0 -28 q0 -139 -149 -139 q-119 0 -144 83 q-6 21 6.5 34.5 q12.5 13.5 36.5 13.5 l31 0 q10 0 17 -3.5 q7 -3.5 14 -9 q7 -5.5 12 -8.5 q12 -6 27 -6 q37 0 37 35 l0 24 q0 31 -37 31 l-21 0 q-45 0 -45 45 l0 19 q-172 17 -258 117 q-86 100 -86 270 Z" /><glyph glyph-name="Egrave" unicode="è" d="M174 45 l0 1221 q0 45 45 45 l647 0 q45 0 45 -45 l0 -136 q0 -45 -45 -45 l-446 0 l0 -317 l344 0 q45 0 45 -45 l0 -135 q0 -45 -45 -45 l-344 0 l0 -318 l446 0 q45 0 45 -45 l0 -135 q0 -45 -45 -45 l-647 0 q-45 0 -45 45 ZM358 1634 q0 35 45 35 l152 0 q35 0 55 -29 l99 -141 q18 -23 18 -55 q0 -37 -45 -37 l-92 0 q-32 0 -55 23 l-154 149 q-23 23 -23 55 Z" /><glyph glyph-name="Eacute" unicode="é" d="M174 45 l0 1221 q0 45 45 45 l647 0 q45 0 45 -45 l0 -136 q0 -45 -45 -45 l-446 0 l0 -317 l344 0 q45 0 45 -45 l0 -135 q0 -45 -45 -45 l-344 0 l0 -318 l446 0 q45 0 45 -45 l0 -135 q0 -45 -45 -45 l-647 0 q-45 0 -45 45 ZM358 1452 q0 23 19 47 l98 141 q20 29 55 29 l152 0 q45 0 45 -45 q0 -23 -22 -45 l-154 -149 q-23 -23 -55 -23 l-93 0 q-45 0 -45 45 Z" /><glyph glyph-name="Ecircumflex" unicode="ê" d="M174 45 l0 1221 q0 45 45 45 l647 0 q45 0 45 -45 l0 -136 q0 -45 -45 -45 l-446 0 l0 -317 l344 0 q45 0 45 -45 l0 -135 q0 -45 -45 -45 l-344 0 l0 -318 l446 0 q45 0 45 -45 l0 -135 q0 -45 -45 -45 l-647 0 q-45 0 -45 45 ZM289 1452 q0 22 22 47 l133 146 q21 24 56 24 l84 0 q34 0 55 -24 l133 -146 q23 -26 23 -57 q0 -35 -45 -35 l-54 0 q-29 0 -55 20 l-98 84 l-101 -84 q-26 -20 -55 -20 l-53 0 q-45 0 -45 45 Z" /><glyph glyph-name="Edieresis" unicode="ë" d="M174 45 l0 1221 q0 45 45 45 l647 0 q45 0 45 -45 l0 -136 q0 -45 -45 -45 l-446 0 l0 -317 l344 0 q45 0 45 -45 l0 -135 q0 -45 -45 -45 l-344 0 l0 -318 l446 0 q45 0 45 -45 l0 -135 q0 -45 -45 -45 l-647 0 q-45 0 -45 45 ZM248 1473 l0 131 q0 45 45 45 l131 0 q45 0 45 -45 l0 -131 q0 -46 -45 -46 l-131 0 q-45 0 -45 46 ZM616 1473 l0 131 q0 45 46 45 l131 0 q45 0 45 -45 l0 -131 q0 -46 -45 -46 l-131 0 q-46 0 -46 46 Z" /><glyph glyph-name="Igrave" unicode="ì" d="M195 45 l0 135 q0 45 45 45 l180 0 l0 860 l-180 0 q-45 0 -45 45 l0 136 q0 45 45 45 l606 0 q45 0 45 -45 l0 -136 q0 -45 -45 -45 l-180 0 l0 -860 l180 0 q45 0 45 -45 l0 -135 q0 -45 -45 -45 l-606 0 q-45 0 -45 45 ZM358 1634 q0 35 45 35 l152 0 q35 0 55 -29 l99 -141 q18 -23 18 -55 q0 -37 -45 -37 l-92 0 q-32 0 -55 23 l-154 149 q-23 23 -23 55 Z" /><glyph glyph-name="Iacute" unicode="í" d="M195 45 l0 135 q0 45 45 45 l180 0 l0 860 l-180 0 q-45 0 -45 45 l0 136 q0 45 45 45 l606 0 q45 0 45 -45 l0 -136 q0 -45 -45 -45 l-180 0 l0 -860 l180 0 q45 0 45 -45 l0 -135 q0 -45 -45 -45 l-606 0 q-45 0 -45 45 ZM358 1452 q0 23 19 47 l98 141 q20 29 55 29 l152 0 q45 0 45 -45 q0 -23 -22 -45 l-154 -149 q-23 -23 -55 -23 l-93 0 q-45 0 -45 45 Z" /><glyph glyph-name="Icircumflex" unicode="î" d="M195 45 l0 135 q0 45 45 45 l180 0 l0 860 l-180 0 q-45 0 -45 45 l0 136 q0 45 45 45 l606 0 q45 0 45 -45 l0 -136 q0 -45 -45 -45 l-180 0 l0 -860 l180 0 q45 0 45 -45 l0 -135 q0 -45 -45 -45 l-606 0 q-45 0 -45 45 ZM289 1452 q0 22 22 47 l133 146 q21 24 56 24 l84 0 q34 0 55 -24 l133 -146 q23 -26 23 -57 q0 -35 -45 -35 l-54 0 q-29 0 -55 20 l-98 84 l-101 -84 q-26 -20 -55 -20 l-53 0 q-45 0 -45 45 Z" /><glyph glyph-name="Idieresis" unicode="ï" d="M195 45 l0 135 q0 45 45 45 l180 0 l0 860 l-180 0 q-45 0 -45 45 l0 136 q0 45 45 45 l606 0 q45 0 45 -45 l0 -136 q0 -45 -45 -45 l-180 0 l0 -860 l180 0 q45 0 45 -45 l0 -135 q0 -45 -45 -45 l-606 0 q-45 0 -45 45 ZM248 1473 l0 131 q0 45 45 45 l131 0 q45 0 45 -45 l0 -131 q0 -46 -45 -46 l-131 0 q-45 0 -45 46 ZM616 1473 l0 131 q0 45 46 45 l131 0 q45 0 45 -45 l0 -131 q0 -46 -45 -46 l-131 0 q-46 0 -46 46 Z" /><glyph glyph-name="Eth" unicode="ð" d="M51 598 l0 135 q0 45 45 45 l37 0 l0 488 q0 45 45 45 l365 0 q205 0 307 -101 q102 -101 102 -288 l0 -533 q0 -187 -102 -288 q-102 -101 -307 -101 l-365 0 q-45 0 -45 45 l0 508 l-37 0 q-45 0 -45 45 ZM379 225 l164 0 q164 0 164 144 l0 573 q0 143 -164 143 l-164 0 l0 -307 l119 0 q45 0 45 -45 l0 -135 q0 -45 -45 -45 l-119 0 l0 -328 Z" /><glyph glyph-name="Ntilde" unicode="ñ" d="M133 45 l0 1221 q0 45 45 45 l103 0 q36 0 53 -33 l373 -750 l0 738 q0 45 45 45 l155 0 q45 0 45 -45 l0 -1221 q0 -45 -45 -45 l-102 0 q-36 0 -53 33 l-373 749 l0 -737 q0 -45 -45 -45 l-156 0 q-45 0 -45 45 ZM229 1532 q25 63 77 101 q52 38 118 38 q91 0 164 -63 q29 -26 47.5 -35.5 q18.5 -9.5 42.5 -9.5 q36 0 61 32 q26 33 60 23 l26 -8 q47 -13 31 -56 q-25 -63 -76.5 -101 q-51.5 -38 -117.5 -38 q-90 0 -164 64 q-29 26 -47.5 35.5 q-18.5 9.5 -42.5 9.5 q-35 0 -64 -33 q-13 -17 -25.5 -23 q-12.5 -6 -31.5 0 l-27 9 q-47 13 -31 55 Z" /><glyph glyph-name="Ograve" unicode="ò" d="M133 369 l0 573 q0 187 102.5 288 q102.5 101 307.5 101 q205 0 307 -101 q102 -101 102 -288 l0 -573 q0 -187 -102 -288 q-102 -101 -307 -101 q-205 0 -307.5 101 q-102.5 101 -102.5 288 ZM358 1634 q0 35 45 35 l152 0 q35 0 55 -29 l99 -141 q18 -23 18 -55 q0 -37 -45 -37 l-92 0 q-32 0 -55 23 l-154 149 q-23 23 -23 55 ZM379 348 q0 -143 164 -143 q164 0 164 143 l0 615 q0 143 -164 143 q-164 0 -164 -143 l0 -615 Z" /><glyph glyph-name="Oacute" unicode="ó" d="M133 369 l0 573 q0 187 102.5 288 q102.5 101 307.5 101 q205 0 307 -101 q102 -101 102 -288 l0 -573 q0 -187 -102 -288 q-102 -101 -307 -101 q-205 0 -307.5 101 q-102.5 101 -102.5 288 ZM358 1452 q0 23 19 47 l98 141 q20 29 55 29 l152 0 q45 0 45 -35 q0 -33 -22 -55 l-154 -149 q-23 -23 -55 -23 l-93 0 q-45 0 -45 45 ZM379 348 q0 -143 164 -143 q164 0 164 143 l0 615 q0 143 -164 143 q-164 0 -164 -143 l0 -615 Z" /><glyph glyph-name="Ocircumflex" unicode="ô" d="M133 369 l0 573 q0 187 102.5 288 q102.5 101 307.5 101 q205 0 307 -101 q102 -101 102 -288 l0 -573 q0 -187 -102 -288 q-102 -101 -307 -101 q-205 0 -307.5 101 q-102.5 101 -102.5 288 ZM289 1452 q0 22 22 47 l133 146 q21 24 56 24 l84 0 q34 0 55 -24 l133 -146 q23 -26 23 -57 q0 -35 -45 -35 l-54 0 q-29 0 -55 20 l-98 84 l-101 -84 q-26 -20 -55 -20 l-53 0 q-45 0 -45 45 ZM379 348 q0 -143 164 -143 q164 0 164 143 l0 615 q0 143 -164 143 q-164 0 -164 -143 l0 -615 Z" /><glyph glyph-name="Otilde" unicode="õ" d="M133 369 l0 573 q0 187 102.5 288 q102.5 101 307.5 101 q205 0 307 -101 q102 -101 102 -288 l0 -573 q0 -187 -102 -288 q-102 -101 -307 -101 q-205 0 -307.5 101 q-102.5 101 -102.5 288 ZM229 1532 q25 63 77 101 q52 38 118 38 q91 0 164 -63 q29 -26 47.5 -35.5 q18.5 -9.5 42.5 -9.5 q36 0 61 32 q26 33 60 23 l26 -8 q47 -13 31 -56 q-25 -63 -76.5 -101 q-51.5 -38 -117.5 -38 q-90 0 -164 64 q-29 26 -47.5 35.5 q-18.5 9.5 -42.5 9.5 q-35 0 -64 -33 q-13 -17 -25.5 -23 q-12.5 -6 -31.5 0 l-27 9 q-47 13 -31 55 ZM379 348 q0 -143 164 -143 q164 0 164 143 l0 615 q0 143 -164 143 q-164 0 -164 -143 l0 -615 Z" /><glyph glyph-name="Odieresis" unicode="ö" d="M133 369 l0 573 q0 187 102.5 288 q102.5 101 307.5 101 q205 0 307 -101 q102 -101 102 -288 l0 -573 q0 -187 -102 -288 q-102 -101 -307 -101 q-205 0 -307.5 101 q-102.5 101 -102.5 288 ZM248 1473 l0 131 q0 45 45 45 l131 0 q45 0 45 -45 l0 -131 q0 -46 -45 -46 l-131 0 q-45 0 -45 46 ZM379 348 q0 -143 164 -143 q164 0 164 143 l0 615 q0 143 -164 143 q-164 0 -164 -143 l0 -615 ZM616 1473 l0 131 q0 45 46 45 l131 0 q45 0 45 -45 l0 -131 q0 -46 -45 -46 l-131 0 q-46 0 -46 46 Z" /><glyph glyph-name="multiply" unicode="×" d="M193 313 q-33 33 0 66 l221 221 l-221 221 q-33 33 0 66 l63 63 q33 33 66 0 l221 -221 l221 221 q32 32 65 0 l64 -63 q33 -33 0 -66 l-221 -221 l221 -221 q33 -33 0 -66 l-64 -63 q-33 -32 -65 0 l-221 221 l-221 -221 q-33 -33 -66 0 l-63 63 Z" /><glyph glyph-name="Oslash" unicode="ø" d="M133 369 l0 573 q0 187 102.5 288 q102.5 101 307.5 101 q58 0 102 -8 l2 10 q9 39 49 39 l72 0 q51 0 39 -51 l-12 -49 q157 -93 157 -330 l0 -573 q0 -187 -102 -288 q-102 -101 -307 -101 q-59 0 -103 8 l-2 -11 q-8 -38 -49 -38 l-72 0 q-50 0 -38 51 l12 49 q-158 94 -158 330 ZM379 356 l205 748 q-12 2 -41 2 q-164 0 -164 -143 l0 -607 ZM502 207 q12 -2 41 -2 q164 0 164 143 l0 606 l-205 -747 Z" /><glyph glyph-name="Ugrave" unicode="ù" d="M133 369 l0 897 q0 45 45 45 l156 0 q45 0 45 -45 l0 -918 q0 -143 164 -143 q164 0 164 143 l0 918 q0 45 45 45 l155 0 q45 0 45 -45 l0 -897 q0 -187 -102 -288 q-102 -101 -307 -101 q-205 0 -307.5 101 q-102.5 101 -102.5 288 ZM358 1634 q0 35 45 35 l152 0 q35 0 55 -29 l99 -141 q18 -23 18 -55 q0 -37 -45 -37 l-92 0 q-32 0 -55 23 l-154 149 q-23 23 -23 55 Z" /><glyph glyph-name="Uacute" unicode="ú" d="M133 369 l0 897 q0 45 45 45 l156 0 q45 0 45 -45 l0 -918 q0 -143 164 -143 q164 0 164 143 l0 918 q0 45 45 45 l155 0 q45 0 45 -45 l0 -897 q0 -187 -102 -288 q-102 -101 -307 -101 q-205 0 -307.5 101 q-102.5 101 -102.5 288 ZM358 1452 q0 23 19 47 l98 141 q20 29 55 29 l152 0 q45 0 45 -35 q0 -33 -22 -55 l-154 -149 q-23 -23 -55 -23 l-93 0 q-45 0 -45 45 Z" /><glyph glyph-name="Ucircumflex" unicode="û" d="M133 369 l0 897 q0 45 45 45 l156 0 q45 0 45 -45 l0 -918 q0 -143 164 -143 q164 0 164 143 l0 918 q0 45 45 45 l155 0 q45 0 45 -45 l0 -897 q0 -187 -102 -288 q-102 -101 -307 -101 q-205 0 -307.5 101 q-102.5 101 -102.5 288 ZM289 1452 q0 22 22 47 l133 146 q21 24 56 24 l84 0 q34 0 55 -24 l133 -146 q23 -26 23 -57 q0 -35 -45 -35 l-54 0 q-29 0 -55 20 l-98 84 l-101 -84 q-26 -20 -55 -20 l-53 0 q-45 0 -45 45 Z" /><glyph glyph-name="Udieresis" unicode="ü" d="M133 369 l0 897 q0 45 45 45 l156 0 q45 0 45 -45 l0 -918 q0 -143 164 -143 q164 0 164 143 l0 918 q0 45 45 45 l155 0 q45 0 45 -45 l0 -897 q0 -187 -102 -288 q-102 -101 -307 -101 q-205 0 -307.5 101 q-102.5 101 -102.5 288 ZM248 1473 l0 131 q0 45 45 45 l131 0 q45 0 45 -45 l0 -131 q0 -46 -45 -46 l-131 0 q-45 0 -45 46 ZM616 1473 l0 131 q0 45 46 45 l131 0 q45 0 45 -45 l0 -131 q0 -46 -45 -46 l-131 0 q-46 0 -46 46 Z" /><glyph glyph-name="Yacute" unicode="ý" d="M133 1073 l0 193 q0 45 45 45 l156 0 q45 0 45 -45 l0 -179 l164 -350 l164 350 l0 179 q0 45 45 45 l155 0 q45 0 45 -45 l0 -193 q0 -27 -14 -55 l-272 -529 l0 -444 q0 -45 -45 -45 l-156 0 q-45 0 -45 45 l0 444 l-273 529 q-14 28 -14 55 ZM358 1452 q0 23 19 47 l98 141 q20 29 55 29 l152 0 q45 0 45 -45 q0 -23 -22 -45 l-154 -149 q-23 -23 -55 -23 l-93 0 q-45 0 -45 45 Z" /><glyph glyph-name="Thorn" unicode="þ" d="M133 45 l0 1221 q0 45 45 45 l156 0 q45 0 45 -45 l0 -217 l164 0 q205 0 307 -101.5 q102 -101.5 102 -288.5 q0 -187 -102 -288 q-102 -101 -307 -101 l-164 0 l0 -225 q0 -45 -45 -45 l-156 0 q-45 0 -45 45 ZM379 496 l164 0 q164 0 164 143 l0 41 q0 143 -164 143 l-164 0 l0 -327 Z" /><glyph glyph-name="germandbls" unicode="ß" d="M143 45 l0 897 q0 185 96.5 287 q96.5 102 280.5 102 q187 0 284 -106 q97 -106 97 -293 q0 -156 -82 -244 q133 -87 133 -299 q0 -198 -99.5 -303.5 q-99.5 -105.5 -285.5 -105.5 q-41 0 -57 2 q-42 3 -39 51 l14 131 q1 23 11.5 33 q10.5 10 29.5 8 l37 0 q152 0 152 184 q0 90 -35.5 132 q-35.5 42 -104.5 50 q-43 3 -43 45 l0 119 q0 21 10 31.5 q10 10.5 33 15.5 q89 19 89 150 q0 90 -38.5 132 q-38.5 42 -105.5 42 q-57 0 -94 -35 q-37 -35 -37 -108 l0 -918 q0 -45 -45 -45 l-156 0 q-45 0 -45 45 Z" /><glyph glyph-name="agrave" unicode="à" d="M133 256 l0 6 q0 142 99.5 211.5 q99.5 69.5 277.5 69.5 l186 0 l0 69 q0 72 -38 109 q-38 37 -109 37 q-99 0 -137 -58 q-21 -34 -54 -34 l-135 0 q-48 0 -45 24 q5 50 30.5 96.5 q25.5 46.5 71.5 87 q46 40.5 122 65 q76 24.5 171 24.5 q173 0 271 -100.5 q98 -100.5 98 -270.5 l0 -547 q0 -45 -45 -45 l-119 0 q-41 0 -49 41 l-8 39 q-108 -100 -266 -100 q-150 0 -236 74 q-86 74 -86 202 ZM369 272 q0 -43 30 -65.5 q30 -22.5 82 -22.5 q79 0 147 38 q68 38 68 85 l0 64 l-188 0 q-139 0 -139 -90 l0 -9 ZM379 1296 q0 35 45 35 l151 0 q36 0 56 -28 l98 -142 q19 -24 19 -55 q0 -37 -46 -37 l-92 0 q-32 0 -55 23 l-154 149 q-22 22 -22 55 Z" /><glyph glyph-name="aacute" unicode="á" d="M133 256 l0 6 q0 142 99.5 211.5 q99.5 69.5 277.5 69.5 l186 0 l0 69 q0 72 -38 109 q-38 37 -109 37 q-99 0 -137 -58 q-21 -34 -54 -34 l-135 0 q-48 0 -45 24 q5 50 30.5 96.5 q25.5 46.5 71.5 87 q46 40.5 122 65 q76 24.5 171 24.5 q173 0 271 -100.5 q98 -100.5 98 -270.5 l0 -547 q0 -45 -45 -45 l-119 0 q-41 0 -49 41 l-8 39 q-108 -100 -266 -100 q-150 0 -236 74 q-86 74 -86 202 ZM369 272 q0 -43 30 -65.5 q30 -22.5 82 -22.5 q79 0 147 38 q68 38 68 85 l0 64 l-188 0 q-139 0 -139 -90 l0 -9 ZM379 1114 q0 24 18 47 l99 142 q20 28 55 28 l151 0 q46 0 46 -45 q0 -22 -23 -45 l-154 -149 q-23 -23 -55 -23 l-92 0 q-45 0 -45 45 Z" /><glyph glyph-name="acircumflex" unicode="â" d="M133 256 l0 6 q0 142 99.5 211.5 q99.5 69.5 277.5 69.5 l186 0 l0 69 q0 72 -38 109 q-38 37 -109 37 q-99 0 -137 -58 q-21 -34 -54 -34 l-135 0 q-48 0 -45 24 q5 50 30.5 96.5 q25.5 46.5 71.5 87 q46 40.5 122 65 q76 24.5 171 24.5 q173 0 271 -100.5 q98 -100.5 98 -270.5 l0 -547 q0 -45 -45 -45 l-119 0 q-41 0 -49 41 l-8 39 q-108 -100 -266 -100 q-150 0 -236 74 q-86 74 -86 202 ZM309 1114 q0 21 23 47 l133 146 q21 24 55 24 l84 0 q34 0 55 -24 l134 -146 q22 -25 22 -57 q0 -35 -45 -35 l-53 0 q-28 0 -55 21 l-99 84 l-100 -84 q-27 -21 -55 -21 l-54 0 q-45 0 -45 45 ZM369 272 q0 -43 30 -65.5 q30 -22.5 82 -22.5 q79 0 147 38 q68 38 68 85 l0 64 l-188 0 q-139 0 -139 -90 l0 -9 Z" /><glyph glyph-name="atilde" unicode="ã" d="M133 256 l0 6 q0 142 99.5 211.5 q99.5 69.5 277.5 69.5 l186 0 l0 69 q0 72 -38 109 q-38 37 -109 37 q-99 0 -137 -58 q-21 -34 -54 -34 l-135 0 q-48 0 -45 24 q5 50 30.5 96.5 q25.5 46.5 71.5 87 q46 40.5 122 65 q76 24.5 171 24.5 q173 0 271 -100.5 q98 -100.5 98 -270.5 l0 -547 q0 -45 -45 -45 l-119 0 q-41 0 -49 41 l-8 39 q-108 -100 -266 -100 q-150 0 -236 74 q-86 74 -86 202 ZM250 1194 q25 63 76.5 101 q51.5 38 117.5 38 q91 0 164 -63 q29 -26 47.5 -35.5 q18.5 -9.5 42.5 -9.5 q37 0 62 32 q14 18 26 23 q12 5 33 0 l27 -8 q47 -13 31 -55 q-25 -63 -77 -101.5 q-52 -38.5 -118 -38.5 q-90 0 -164 64 q-29 26 -47.5 35.5 q-18.5 9.5 -42.5 9.5 q-34 0 -63 -33 q-26 -32 -58 -23 l-26 9 q-47 13 -31 55 ZM369 272 q0 -43 30 -65.5 q30 -22.5 82 -22.5 q79 0 147 38 q68 38 68 85 l0 64 l-188 0 q-139 0 -139 -90 l0 -9 Z" /><glyph glyph-name="adieresis" unicode="ä" d="M133 256 l0 6 q0 142 99.5 211.5 q99.5 69.5 277.5 69.5 l186 0 l0 69 q0 72 -38 109 q-38 37 -109 37 q-99 0 -137 -58 q-21 -34 -54 -34 l-135 0 q-48 0 -45 24 q5 50 30.5 96.5 q25.5 46.5 71.5 87 q46 40.5 122 65 q76 24.5 171 24.5 q173 0 271 -100.5 q98 -100.5 98 -270.5 l0 -547 q0 -45 -45 -45 l-119 0 q-41 0 -49 41 l-8 39 q-108 -100 -266 -100 q-150 0 -236 74 q-86 74 -86 202 ZM268 1135 l0 131 q0 45 45 45 l131 0 q45 0 45 -45 l0 -131 q0 -45 -45 -45 l-131 0 q-45 0 -45 45 ZM369 272 q0 -43 30 -65.5 q30 -22.5 82 -22.5 q79 0 147 38 q68 38 68 85 l0 64 l-188 0 q-139 0 -139 -90 l0 -9 ZM637 1135 l0 131 q0 45 45 45 l131 0 q45 0 45 -45 l0 -131 q0 -45 -45 -45 l-131 0 q-45 0 -45 45 Z" /><glyph glyph-name="aring" unicode="å" d="M133 256 l0 6 q0 142 99.5 211.5 q99.5 69.5 277.5 69.5 l186 0 l0 69 q0 72 -38 109 q-38 37 -109 37 q-99 0 -137 -58 q-21 -34 -54 -34 l-135 0 q-48 0 -45 24 q5 50 30.5 96.5 q25.5 46.5 71.5 87 q46 40.5 122 65 q76 24.5 171 24.5 q173 0 271 -100.5 q98 -100.5 98 -270.5 l0 -547 q0 -45 -45 -45 l-119 0 q-41 0 -49 41 l-8 39 q-108 -100 -266 -100 q-150 0 -236 74 q-86 74 -86 202 ZM369 272 q0 -43 30 -65.5 q30 -22.5 82 -22.5 q79 0 147 38 q68 38 68 85 l0 64 l-188 0 q-139 0 -139 -90 l0 -9 ZM425 1101 q-54 52 -54 132 q0 80 51.5 134 q51.5 54 140.5 54 q89 0 141 -54 q52 -54 52 -134 q0 -79 -55 -131.5 q-55 -52.5 -138 -52.5 q-84 0 -138 52 ZM489 1235 q0 -30 21 -51 q21 -21 53 -21 q30 0 51 21 q21 21 21 51 q0 32 -21 52 q-21 20 -51 20 q-31 0 -52.5 -20 q-21.5 -20 -21.5 -52 Z" /><glyph glyph-name="ae" unicode="æ" d="M92 276 l0 7 q0 140 80.5 216 q80.5 76 235.5 76 l32 0 q0 87 21 173 q-17 10 -45 10 q-59 0 -74 -51 q-12 -41 -47 -41 l-113 0 q-48 0 -45 45 q6 49 24 91.5 q18 42.5 50.5 80 q32.5 37.5 86.5 59 q54 21.5 124 21.5 q95 0 156 -39 q61 39 139 39 q131 0 203.5 -101.5 q72.5 -101.5 72.5 -277.5 l0 -109 q0 -45 -45 -45 l-293 0 l0 -92 q0 -143 62 -143 q42 0 55 53 q6 23 17 33 q11 10 32 10 l125 -2 q49 0 43 -47 q-7 -50 -28.5 -96 q-21.5 -46 -55 -83.5 q-33.5 -37.5 -82.5 -60 q-49 -22.5 -106 -22.5 q-117 0 -189 81 q-78 -81 -196 -81 q-123 0 -181.5 77.5 q-58.5 77.5 -58.5 218.5 ZM287 293 q0 -113 82 -113 q51 0 88 37 q-17 77 -17 152 l0 61 l-32 0 q-121 0 -121 -129 l0 -8 ZM655 575 l123 0 l0 29 q0 144 -61 144 q-62 0 -62 -144 l0 -29 Z" /><glyph glyph-name="ccedilla" unicode="ç" d="M133 369 l0 204 q0 187 102.5 288.5 q102.5 101.5 307.5 101.5 q185 0 288 -82 q103 -82 119 -217 q3 -46 -45 -46 l-157 0 q-36 0 -48 41 q-28 78 -157 78 q-164 0 -164 -143 l0 -246 q0 -143 164 -143 q129 0 157 78 q12 41 48 41 l157 0 q48 0 45 -48 q-12 -110 -86.5 -186 q-74.5 -76 -206.5 -100 q35 -35 35 -99 l0 -28 q0 -139 -149 -139 q-119 0 -144 83 q-6 21 6.5 34.5 q12.5 13.5 36.5 13.5 l31 0 q10 0 17 -3.5 q7 -3.5 14 -9 q7 -5.5 12 -8.5 q12 -6 27 -6 q37 0 37 35 l0 24 q0 31 -37 31 l-21 0 q-45 0 -45 45 l0 19 q-172 17 -258 117 q-86 100 -86 270 Z" /><glyph glyph-name="egrave" unicode="è" d="M133 369 l0 204 q0 187 102.5 288.5 q102.5 101.5 307.5 101.5 q204 0 306.5 -99.5 q102.5 -99.5 102.5 -279.5 l0 -109 q0 -45 -45 -45 l-528 0 l0 -92 q0 -143 164 -143 q114 0 153 59 q9 15 13.5 20.5 q4.5 5.5 13.5 11 q9 5.5 22 5.5 l160 0 q24 0 35.5 -12 q11.5 -12 7.5 -35 q-21 -109 -125.5 -186.5 q-104.5 -77.5 -279.5 -77.5 q-205 0 -307.5 101 q-102.5 101 -102.5 288 ZM358 1296 q0 35 45 35 l152 0 q35 0 55 -28 l99 -142 q18 -23 18 -55 q0 -37 -45 -37 l-92 0 q-32 0 -55 23 l-154 149 q-23 23 -23 55 ZM379 575 l328 0 l0 29 q0 144 -164 144 q-164 0 -164 -144 l0 -29 Z" /><glyph glyph-name="eacute" unicode="é" d="M133 369 l0 204 q0 187 102.5 288.5 q102.5 101.5 307.5 101.5 q204 0 306.5 -99.5 q102.5 -99.5 102.5 -279.5 l0 -109 q0 -45 -45 -45 l-528 0 l0 -92 q0 -143 164 -143 q114 0 153 59 q9 15 13.5 20.5 q4.5 5.5 13.5 11 q9 5.5 22 5.5 l160 0 q24 0 35.5 -12 q11.5 -12 7.5 -35 q-21 -109 -125.5 -186.5 q-104.5 -77.5 -279.5 -77.5 q-205 0 -307.5 101 q-102.5 101 -102.5 288 ZM358 1114 q0 23 19 47 l98 142 q20 28 55 28 l152 0 q45 0 45 -45 q0 -23 -22 -45 l-154 -149 q-23 -23 -55 -23 l-93 0 q-45 0 -45 45 ZM379 575 l328 0 l0 29 q0 144 -164 144 q-164 0 -164 -144 l0 -29 Z" /><glyph glyph-name="ecircumflex" unicode="ê" d="M133 369 l0 204 q0 187 102.5 288.5 q102.5 101.5 307.5 101.5 q204 0 306.5 -99.5 q102.5 -99.5 102.5 -279.5 l0 -109 q0 -45 -45 -45 l-528 0 l0 -92 q0 -143 164 -143 q114 0 153 59 q9 15 13.5 20.5 q4.5 5.5 13.5 11 q9 5.5 22 5.5 l160 0 q24 0 35.5 -12 q11.5 -12 7.5 -35 q-21 -109 -125.5 -186.5 q-104.5 -77.5 -279.5 -77.5 q-205 0 -307.5 101 q-102.5 101 -102.5 288 ZM289 1114 q0 22 22 47 l133 146 q21 24 56 24 l84 0 q34 0 55 -24 l133 -146 q23 -26 23 -57 q0 -35 -45 -35 l-54 0 q-28 0 -55 21 l-98 84 l-101 -84 q-27 -21 -55 -21 l-53 0 q-45 0 -45 45 ZM379 575 l328 0 l0 29 q0 144 -164 144 q-164 0 -164 -144 l0 -29 Z" /><glyph glyph-name="edieresis" unicode="ë" d="M133 369 l0 204 q0 187 102.5 288.5 q102.5 101.5 307.5 101.5 q204 0 306.5 -99.5 q102.5 -99.5 102.5 -279.5 l0 -109 q0 -45 -45 -45 l-528 0 l0 -92 q0 -143 164 -143 q114 0 153 59 q9 15 13.5 20.5 q4.5 5.5 13.5 11 q9 5.5 22 5.5 l160 0 q24 0 35.5 -12 q11.5 -12 7.5 -35 q-21 -109 -125.5 -186.5 q-104.5 -77.5 -279.5 -77.5 q-205 0 -307.5 101 q-102.5 101 -102.5 288 ZM248 1135 l0 131 q0 45 45 45 l131 0 q45 0 45 -45 l0 -131 q0 -45 -45 -45 l-131 0 q-45 0 -45 45 ZM379 575 l328 0 l0 29 q0 144 -164 144 q-164 0 -164 -144 l0 -29 ZM616 1135 l0 131 q0 45 46 45 l131 0 q45 0 45 -45 l0 -131 q0 -45 -45 -45 l-131 0 q-46 0 -46 45 Z" /><glyph glyph-name="igrave" unicode="ì" d="M215 45 l0 135 q0 45 45 45 l160 0 l0 492 l-160 0 q-45 0 -45 45 l0 135 q0 45 45 45 l361 0 q45 0 45 -45 l0 -672 l159 0 q45 0 45 -45 l0 -135 q0 -45 -45 -45 l-565 0 q-45 0 -45 45 ZM358 1296 q0 35 45 35 l152 0 q35 0 55 -28 l99 -142 q18 -23 18 -55 q0 -37 -45 -37 l-92 0 q-32 0 -55 23 l-154 149 q-23 23 -23 55 Z" /><glyph glyph-name="iacute" unicode="í" d="M215 45 l0 135 q0 45 45 45 l160 0 l0 492 l-160 0 q-45 0 -45 45 l0 135 q0 45 45 45 l361 0 q45 0 45 -45 l0 -672 l159 0 q45 0 45 -45 l0 -135 q0 -45 -45 -45 l-565 0 q-45 0 -45 45 ZM358 1114 q0 23 19 47 l98 142 q20 28 55 28 l152 0 q45 0 45 -45 q0 -23 -22 -45 l-154 -149 q-23 -23 -55 -23 l-93 0 q-45 0 -45 45 Z" /><glyph glyph-name="icircumflex" unicode="î" d="M215 45 l0 135 q0 45 45 45 l160 0 l0 492 l-160 0 q-45 0 -45 45 l0 135 q0 45 45 45 l361 0 q45 0 45 -45 l0 -672 l159 0 q45 0 45 -45 l0 -135 q0 -45 -45 -45 l-565 0 q-45 0 -45 45 ZM289 1114 q0 22 22 47 l133 146 q21 24 56 24 l84 0 q34 0 55 -24 l133 -146 q23 -26 23 -57 q0 -35 -45 -35 l-54 0 q-28 0 -55 21 l-98 84 l-101 -84 q-27 -21 -55 -21 l-53 0 q-45 0 -45 45 Z" /><glyph glyph-name="idieresis" unicode="ï" d="M215 45 l0 135 q0 45 45 45 l160 0 l0 492 l-160 0 q-45 0 -45 45 l0 135 q0 45 45 45 l361 0 q45 0 45 -45 l0 -672 l159 0 q45 0 45 -45 l0 -135 q0 -45 -45 -45 l-565 0 q-45 0 -45 45 ZM248 1135 l0 131 q0 45 45 45 l131 0 q45 0 45 -45 l0 -131 q0 -45 -45 -45 l-131 0 q-45 0 -45 45 ZM616 1135 l0 131 q0 45 46 45 l131 0 q45 0 45 -45 l0 -131 q0 -45 -45 -45 l-131 0 q-46 0 -46 45 Z" /><glyph glyph-name="eth" unicode="ð" d="M133 369 l0 153 q0 174 103.5 266.5 q103.5 92.5 265.5 92.5 q90 0 172 -50 q-34 102 -96 170 l-138 -65 q-41 -18 -59 22 l-39 89 q-18 41 23 59 l45 22 q-74 38 -119 54 q-41 18 -27 57 l35 109 q14 42 57 30 q166 -52 289 -141 l129 61 q42 19 60 -22 l38 -88 q19 -42 -22 -60 l-64 -30 q166 -208 166 -545 l0 -184 q0 -187 -102 -288 q-102 -101 -307 -101 q-205 0 -307.5 101 q-102.5 101 -102.5 288 ZM379 348 q0 -143 164 -143 q164 0 164 143 l0 189 l0 16 q-19 50 -64.5 76 q-45.5 26 -93.5 26 q-72 0 -121 -39.5 q-49 -39.5 -49 -113.5 l0 -154 Z" /><glyph glyph-name="ntilde" unicode="ñ" d="M143 45 l0 852 q0 45 45 45 l119 0 q41 0 49 -41 l9 -45 q104 107 262 107 q144 0 229.5 -85.5 q85.5 -85.5 85.5 -252.5 l0 -580 q0 -45 -45 -45 l-156 0 q-45 0 -45 45 l0 559 q0 133 -125 133 q-77 0 -129.5 -46 q-52.5 -46 -52.5 -159 l0 -487 q0 -45 -45 -45 l-156 0 q-45 0 -45 45 ZM236 1194 q25 63 76.5 101 q51.5 38 117.5 38 q91 0 164 -63 q29 -26 47.5 -35.5 q18.5 -9.5 42.5 -9.5 q36 0 61 32 q26 33 60 23 l26 -8 q47 -13 31 -55 q-25 -63 -76.5 -101.5 q-51.5 -38.5 -117.5 -38.5 q-90 0 -164 64 q-29 26 -47.5 35.5 q-18.5 9.5 -42.5 9.5 q-35 0 -64 -33 q-13 -17 -25.5 -23 q-12.5 -6 -31.5 0 l-27 9 q-46 13 -30 55 Z" /><glyph glyph-name="ograve" unicode="ò" d="M133 369 l0 204 q0 187 102.5 288.5 q102.5 101.5 307.5 101.5 q205 0 307 -101.5 q102 -101.5 102 -288.5 l0 -204 q0 -187 -102 -288 q-102 -101 -307 -101 q-205 0 -307.5 101 q-102.5 101 -102.5 288 ZM352 1296 q0 35 45 35 l152 0 q35 0 55 -28 l98 -142 q19 -24 19 -55 q0 -37 -45 -37 l-92 0 q-33 0 -56 23 l-153 149 q-23 23 -23 55 ZM379 348 q0 -143 164 -143 q164 0 164 143 l0 246 q0 143 -164 143 q-164 0 -164 -143 l0 -246 Z" /><glyph glyph-name="oacute" unicode="ó" d="M133 369 l0 204 q0 187 102.5 288.5 q102.5 101.5 307.5 101.5 q205 0 307 -101.5 q102 -101.5 102 -288.5 l0 -204 q0 -187 -102 -288 q-102 -101 -307 -101 q-205 0 -307.5 101 q-102.5 101 -102.5 288 ZM365 1114 q0 24 18 47 l98 142 q20 28 56 28 l151 0 q45 0 45 -35 q0 -33 -22 -55 l-154 -149 q-23 -23 -55 -23 l-92 0 q-45 0 -45 45 ZM379 348 q0 -143 164 -143 q164 0 164 143 l0 246 q0 143 -164 143 q-164 0 -164 -143 l0 -246 Z" /><glyph glyph-name="ocircumflex" unicode="ô" d="M133 369 l0 204 q0 187 102.5 288.5 q102.5 101.5 307.5 101.5 q205 0 307 -101.5 q102 -101.5 102 -288.5 l0 -204 q0 -187 -102 -288 q-102 -101 -307 -101 q-205 0 -307.5 101 q-102.5 101 -102.5 288 ZM293 1114 q0 22 22 47 l134 146 q21 24 55 24 l84 0 q34 0 55 -24 l133 -146 q23 -26 23 -57 q0 -35 -45 -35 l-54 0 q-28 0 -55 21 l-98 84 l-101 -84 q-27 -21 -55 -21 l-53 0 q-45 0 -45 45 ZM379 348 q0 -143 164 -143 q164 0 164 143 l0 246 q0 143 -164 143 q-164 0 -164 -143 l0 -246 Z" /><glyph glyph-name="otilde" unicode="õ" d="M133 369 l0 204 q0 187 102.5 288.5 q102.5 101.5 307.5 101.5 q205 0 307 -101.5 q102 -101.5 102 -288.5 l0 -204 q0 -187 -102 -288 q-102 -101 -307 -101 q-205 0 -307.5 101 q-102.5 101 -102.5 288 ZM229 1194 q25 63 77 101 q52 38 118 38 q91 0 164 -63 q29 -26 47.5 -35.5 q18.5 -9.5 42.5 -9.5 q36 0 61 32 q26 33 60 23 l26 -8 q47 -13 31 -55 q-25 -63 -76.5 -101.5 q-51.5 -38.5 -117.5 -38.5 q-90 0 -164 64 q-29 26 -47.5 35.5 q-18.5 9.5 -42.5 9.5 q-35 0 -64 -33 q-13 -17 -25.5 -23 q-12.5 -6 -31.5 0 l-27 9 q-47 13 -31 55 ZM379 348 q0 -143 164 -143 q164 0 164 143 l0 246 q0 143 -164 143 q-164 0 -164 -143 l0 -246 Z" /><glyph glyph-name="odieresis" unicode="ö" d="M133 369 l0 204 q0 187 102.5 288.5 q102.5 101.5 307.5 101.5 q205 0 307 -101.5 q102 -101.5 102 -288.5 l0 -204 q0 -187 -102 -288 q-102 -101 -307 -101 q-205 0 -307.5 101 q-102.5 101 -102.5 288 ZM248 1135 l0 131 q0 45 45 45 l131 0 q45 0 45 -45 l0 -131 q0 -45 -45 -45 l-131 0 q-45 0 -45 45 ZM379 348 q0 -143 164 -143 q164 0 164 143 l0 246 q0 143 -164 143 q-164 0 -164 -143 l0 -246 ZM616 1135 l0 131 q0 45 46 45 l131 0 q45 0 45 -45 l0 -131 q0 -45 -45 -45 l-131 0 q-46 0 -46 45 Z" /><glyph glyph-name="divide" unicode="÷" d="M154 555 l0 90 q0 45 45 45 l688 0 q45 0 45 -45 l0 -90 q0 -45 -45 -45 l-688 0 q-45 0 -45 45 ZM449 233 l0 99 q0 45 45 45 l98 0 q45 0 45 -45 l0 -99 q0 -45 -45 -45 l-98 0 q-45 0 -45 45 ZM449 868 l0 99 q0 45 45 45 l98 0 q45 0 45 -45 l0 -99 q0 -45 -45 -45 l-98 0 q-45 0 -45 45 Z" /><glyph glyph-name="oslash" unicode="ø" d="M133 369 l0 204 q0 187 102.5 288.5 q102.5 101.5 307.5 101.5 q43 0 63 -2 l2 4 q9 39 49 39 l50 0 q51 0 38 -52 l-6 -22 q213 -82 213 -357 l0 -204 q0 -187 -102 -288 q-102 -101 -307 -101 q-44 0 -64 2 l-2 -5 q-8 -38 -49 -38 l-49 0 q-51 0 -39 51 l6 22 q-213 82 -213 357 ZM379 348 q0 -59 33 -100 l133 489 l-2 0 q-164 0 -164 -143 l0 -246 ZM541 205 l2 0 q164 0 164 143 l0 246 q0 61 -31 100 l-135 -489 Z" /><glyph glyph-name="ugrave" unicode="ù" d="M143 317 l0 580 q0 45 45 45 l156 0 q45 0 45 -45 l0 -559 q0 -133 125 -133 q77 0 129.5 46 q52.5 46 52.5 159 l0 487 q0 45 45 45 l156 0 q45 0 45 -45 l0 -852 q0 -45 -45 -45 l-119 0 q-41 0 -49 41 l-8 45 q-103 -106 -262 -106 q-144 0 -230 85 q-86 85 -86 252 ZM358 1296 q0 35 45 35 l152 0 q35 0 55 -28 l99 -142 q18 -23 18 -55 q0 -37 -45 -37 l-92 0 q-32 0 -55 23 l-154 149 q-23 23 -23 55 Z" /><glyph glyph-name="uacute" unicode="ú" d="M143 317 l0 580 q0 45 45 45 l156 0 q45 0 45 -45 l0 -559 q0 -133 125 -133 q77 0 129.5 46 q52.5 46 52.5 159 l0 487 q0 45 45 45 l156 0 q45 0 45 -45 l0 -852 q0 -45 -45 -45 l-119 0 q-41 0 -49 41 l-8 45 q-103 -106 -262 -106 q-144 0 -230 85 q-86 85 -86 252 ZM358 1114 q0 23 19 47 l98 142 q20 28 55 28 l152 0 q45 0 45 -45 q0 -23 -22 -45 l-154 -149 q-23 -23 -55 -23 l-93 0 q-45 0 -45 45 Z" /><glyph glyph-name="ucircumflex" unicode="û" d="M143 317 l0 580 q0 45 45 45 l156 0 q45 0 45 -45 l0 -559 q0 -133 125 -133 q77 0 129.5 46 q52.5 46 52.5 159 l0 487 q0 45 45 45 l156 0 q45 0 45 -45 l0 -852 q0 -45 -45 -45 l-119 0 q-41 0 -49 41 l-8 45 q-103 -106 -262 -106 q-144 0 -230 85 q-86 85 -86 252 ZM289 1114 q0 22 22 47 l133 146 q21 24 56 24 l84 0 q34 0 55 -24 l133 -146 q23 -26 23 -57 q0 -35 -45 -35 l-54 0 q-28 0 -55 21 l-98 84 l-101 -84 q-27 -21 -55 -21 l-53 0 q-45 0 -45 45 Z" /><glyph glyph-name="udieresis" unicode="ü" d="M143 317 l0 580 q0 45 45 45 l156 0 q45 0 45 -45 l0 -559 q0 -133 125 -133 q77 0 129.5 46 q52.5 46 52.5 159 l0 487 q0 45 45 45 l156 0 q45 0 45 -45 l0 -852 q0 -45 -45 -45 l-119 0 q-41 0 -49 41 l-8 45 q-103 -106 -262 -106 q-144 0 -230 85 q-86 85 -86 252 ZM248 1135 l0 131 q0 45 45 45 l131 0 q45 0 45 -45 l0 -131 q0 -45 -45 -45 l-131 0 q-45 0 -45 45 ZM616 1135 l0 131 q0 45 46 45 l131 0 q45 0 45 -45 l0 -131 q0 -45 -45 -45 l-131 0 q-46 0 -46 45 Z" /><glyph glyph-name="yacute" unicode="ý" d="M113 786 l0 111 q0 45 45 45 l155 0 q45 0 45 -45 l0 -135 l185 -481 l184 481 l0 135 q0 45 45 45 l156 0 q45 0 45 -45 l0 -111 q0 -30 -10 -55 l-400 -942 q-14 -35 -51 -35 l-127 0 q-25 0 -34.5 14 q-9.5 14 -0.5 37 l78 199 l-305 727 q-10 25 -10 55 ZM358 1114 q0 23 19 47 l98 142 q20 28 55 28 l152 0 q45 0 45 -45 q0 -23 -22 -45 l-154 -149 q-23 -23 -55 -23 l-93 0 q-45 0 -45 45 Z" /><glyph glyph-name="thorn" unicode="þ" d="M143 -201 l0 1467 q0 45 45 45 l156 0 q45 0 45 -45 l0 -383 q93 80 219 80 q150 0 247 -92.5 q97 -92.5 97 -266.5 l0 -266 q0 -174 -96 -266 q-96 -92 -246 -92 q-130 0 -221 79 l0 -260 q0 -45 -45 -45 l-156 0 q-45 0 -45 45 ZM389 369 q0 -82 50 -123 q50 -41 122 -41 q61 0 103.5 39.5 q42.5 39.5 42.5 113.5 l0 226 q0 74 -42.5 113.5 q-42.5 39.5 -103.5 39.5 q-72 0 -122 -41 q-50 -41 -50 -123 l0 -204 Z" /><glyph glyph-name="ydieresis" unicode="ÿ" d="M113 786 l0 111 q0 45 45 45 l155 0 q45 0 45 -45 l0 -135 l185 -481 l184 481 l0 135 q0 45 45 45 l156 0 q45 0 45 -45 l0 -111 q0 -30 -10 -55 l-400 -942 q-14 -35 -51 -35 l-127 0 q-25 0 -34.5 14 q-9.5 14 -0.5 37 l78 199 l-305 727 q-10 25 -10 55 ZM248 1135 l0 131 q0 45 45 45 l131 0 q45 0 45 -45 l0 -131 q0 -45 -45 -45 l-131 0 q-45 0 -45 45 ZM616 1135 l0 131 q0 45 46 45 l131 0 q45 0 45 -45 l0 -131 q0 -45 -45 -45 l-131 0 q-46 0 -46 45 Z" /><glyph glyph-name="OE" unicode="&#x152;" d="M133 389 l0 533 q0 188 96 288.5 q96 100.5 293 100.5 l396 0 q45 0 45 -45 l0 -136 q0 -45 -45 -45 l-170 0 l0 -317 l98 0 q45 0 45 -45 l0 -135 q0 -45 -45 -45 l-98 0 l0 -318 l170 0 q45 0 45 -45 l0 -135 q0 -45 -45 -45 l-396 0 q-197 0 -293 100.5 q-96 100.5 -96 288.5 ZM379 369 q0 -144 143 -144 l0 860 q-70 0 -106.5 -34 q-36.5 -34 -36.5 -109 l0 -573 Z" /><glyph glyph-name="oe" unicode="&#x153;" d="M92 369 l0 204 q0 185 74.5 287.5 q74.5 102.5 214.5 102.5 q97 0 162 -50 q65 50 162 50 q139 0 213.5 -101 q74.5 -101 74.5 -278 l0 -109 q0 -45 -45 -45 l-317 0 l0 -92 q0 -77 17.5 -110 q17.5 -33 56.5 -33 q54 0 67 53 q6 23 17 33 q11 10 32 10 l125 -2 q49 0 43 -45 q-15 -107 -90 -185.5 q-75 -78.5 -194 -78.5 q-98 0 -162 49 q-71 -49 -162 -49 q-140 0 -214.5 102 q-74.5 102 -74.5 287 ZM307 338 q0 -77 17.5 -110 q17.5 -33 56.5 -33 q31 0 51 20 q-16 72 -16 154 l0 204 q0 80 16 152 q-17 23 -51 23 q-39 0 -56.5 -33.5 q-17.5 -33.5 -17.5 -110.5 l0 -266 ZM631 575 l147 0 l0 29 q0 77 -17 110.5 q-17 33.5 -56 33.5 q-39 0 -56.5 -33.5 q-17.5 -33.5 -17.5 -110.5 l0 -29 Z" /><glyph glyph-name="Ydieresis" unicode="&#x178;" d="M133 1073 l0 193 q0 45 45 45 l156 0 q45 0 45 -45 l0 -179 l164 -350 l164 350 l0 179 q0 45 45 45 l155 0 q45 0 45 -45 l0 -193 q0 -27 -14 -55 l-272 -529 l0 -444 q0 -45 -45 -45 l-156 0 q-45 0 -45 45 l0 444 l-273 529 q-14 28 -14 55 ZM248 1473 l0 131 q0 45 45 45 l131 0 q45 0 45 -45 l0 -131 q0 -46 -45 -46 l-131 0 q-45 0 -45 46 ZM616 1473 l0 131 q0 45 46 45 l131 0 q45 0 45 -45 l0 -131 q0 -46 -45 -46 l-131 0 q-46 0 -46 46 Z" /><glyph glyph-name="circumflex" unicode="&#x2c6;" d="M293 1114 q0 22 22 47 l134 146 q21 24 55 24 l84 0 q34 0 55 -24 l133 -146 q23 -26 23 -57 q0 -35 -45 -35 l-54 0 q-28 0 -55 21 l-98 84 l-101 -84 q-27 -21 -55 -21 l-53 0 q-45 0 -45 45 Z" /><glyph glyph-name="tilde" unicode="&#x2dc;" d="M229 1194 q25 63 77 101 q52 38 118 38 q91 0 164 -63 q29 -26 47.5 -35.5 q18.5 -9.5 42.5 -9.5 q36 0 61 32 q26 33 60 23 l26 -8 q47 -13 31 -55 q-25 -63 -76.5 -101.5 q-51.5 -38.5 -117.5 -38.5 q-90 0 -164 64 q-29 26 -47.5 35.5 q-18.5 9.5 -42.5 9.5 q-35 0 -64 -33 q-13 -17 -25.5 -23 q-12.5 -6 -31.5 0 l-27 9 q-47 13 -31 55 Z" /><glyph glyph-name="uni2000" unicode="&#x2000;" d="" /><glyph glyph-name="uni2001" unicode="&#x2001;" d="" /><glyph glyph-name="uni2002" unicode="&#x2002;" d="" /><glyph glyph-name="uni2003" unicode="&#x2003;" d="" /><glyph glyph-name="uni2004" unicode="&#x2004;" d="" /><glyph glyph-name="uni2005" unicode="&#x2005;" d="" /><glyph glyph-name="uni2006" unicode="&#x2006;" d="" /><glyph glyph-name="uni2007" unicode="&#x2007;" d="" /><glyph glyph-name="uni2008" unicode="&#x2008;" d="" /><glyph glyph-name="uni2009" unicode="&#x2009;" d="" /><glyph glyph-name="uni200A" unicode="&#x200a;" d="" /><glyph glyph-name="uni2010" unicode="&#x2010;" d="M297 504 l0 110 q0 45 45 45 l401 0 q45 0 45 -45 l0 -110 q0 -45 -45 -45 l-401 0 q-45 0 -45 45 Z" /><glyph glyph-name="uni2011" unicode="&#x2011;" d="M297 504 l0 110 q0 45 45 45 l401 0 q45 0 45 -45 l0 -110 q0 -45 -45 -45 l-401 0 q-45 0 -45 45 Z" /><glyph glyph-name="figuredash" unicode="&#x2012;" d="M297 504 l0 110 q0 45 45 45 l401 0 q45 0 45 -45 l0 -110 q0 -45 -45 -45 l-401 0 q-45 0 -45 45 Z" /><glyph glyph-name="endash" unicode="&#x2013;" d="M184 504 l0 110 q0 45 45 45 l627 0 q45 0 45 -45 l0 -110 q0 -45 -45 -45 l-627 0 q-45 0 -45 45 Z" /><glyph glyph-name="emdash" unicode="&#x2014;" d="M184 516 l0 86 q0 45 45 45 l1713 0 q45 0 45 -45 l0 -86 q0 -45 -45 -45 l-1713 0 q-45 0 -45 45 Z" /><glyph glyph-name="quoteleft" unicode="&#x2018;" d="M391 848 l0 145 q0 31 10 56 l119 309 q14 35 53 35 l50 0 q25 0 35 -13.5 q10 -13.5 4 -38.5 l-68 -235 l55 0 q45 0 45 -45 l0 -213 q0 -45 -45 -45 l-213 0 q-45 0 -45 45 Z" /><glyph glyph-name="quoteright" unicode="&#x2019;" d="M391 1053 l0 213 q0 45 45 45 l213 0 q45 0 45 -45 l0 -146 q0 -30 -10 -55 l-119 -309 q-14 -35 -53 -35 l-49 0 q-51 0 -39 51 l68 236 l-56 0 q-45 0 -45 45 Z" /><glyph glyph-name="quotesinglbase" unicode="&#x201a;" d="M391 45 l0 213 q0 45 45 45 l213 0 q45 0 45 -45 l0 -145 q0 -31 -10 -56 l-119 -309 q-14 -35 -53 -35 l-49 0 q-51 0 -39 51 l68 236 l-56 0 q-45 0 -45 45 Z" /><glyph glyph-name="quotedblleft" unicode="&#x201c;" d="M186 848 l0 145 q0 29 11 56 l118 309 q14 35 54 35 l49 0 q25 0 35 -13.5 q10 -13.5 4 -38.5 l-68 -235 l55 0 q45 0 45 -45 l0 -213 q0 -45 -45 -45 l-213 0 q-45 0 -45 45 ZM596 848 l0 145 q0 31 10 56 l119 309 q14 35 53 35 l49 0 q25 0 35 -13.5 q10 -13.5 4 -38.5 l-67 -235 l55 0 q45 0 45 -45 l0 -213 q0 -45 -45 -45 l-213 0 q-45 0 -45 45 Z" /><glyph glyph-name="quotedblright" unicode="&#x201d;" d="M186 1053 l0 213 q0 45 45 45 l213 0 q45 0 45 -45 l0 -146 q0 -30 -10 -55 l-119 -309 q-14 -35 -53 -35 l-49 0 q-51 0 -39 51 l68 236 l-56 0 q-45 0 -45 45 ZM596 1053 l0 213 q0 45 45 45 l213 0 q45 0 45 -45 l0 -146 q0 -30 -10 -55 l-119 -309 q-14 -35 -53 -35 l-49 0 q-51 0 -39 51 l67 236 l-55 0 q-45 0 -45 45 Z" /><glyph glyph-name="quotedblbase" unicode="&#x201e;" d="M186 45 l0 213 q0 45 45 45 l213 0 q45 0 45 -45 l0 -145 q0 -31 -10 -56 l-119 -309 q-14 -35 -53 -35 l-49 0 q-51 0 -39 51 l68 236 l-56 0 q-45 0 -45 45 ZM596 45 l0 213 q0 45 45 45 l213 0 q45 0 45 -45 l0 -145 q0 -31 -10 -56 l-119 -309 q-14 -35 -53 -35 l-49 0 q-51 0 -39 51 l67 236 l-55 0 q-45 0 -45 45 Z" /><glyph glyph-name="bullet" unicode="&#x2022;" d="M317 582 q0 92 67 158.5 q67 66.5 159 66.5 q93 0 159 -66 q66 -66 66 -159 q0 -94 -65.5 -160 q-65.5 -66 -159.5 -66 q-93 0 -159.5 66.5 q-66.5 66.5 -66.5 159.5 Z" /><glyph glyph-name="ellipsis" unicode="&#x2026;" d="M78 45 l0 162 q0 45 45 45 l162 0 q45 0 45 -45 l0 -162 q0 -45 -45 -45 l-162 0 q-45 0 -45 45 ZM416 45 l0 162 q0 45 45 45 l162 0 q45 0 45 -45 l0 -162 q0 -45 -45 -45 l-162 0 q-45 0 -45 45 ZM754 45 l0 162 q0 45 45 45 l162 0 q45 0 45 -45 l0 -162 q0 -45 -45 -45 l-162 0 q-45 0 -45 45 Z" /><glyph glyph-name="uni202F" unicode="&#x202f;" d="" /><glyph glyph-name="guilsinglleft" unicode="&#x2039;" d="M303 489 q-19 31 0 62 l234 399 q22 39 61 17 l107 -62 q38 -21 16 -61 l-178 -324 l178 -323 q23 -40 -16 -62 l-107 -61 q-40 -22 -61 16 l-234 399 Z" /><glyph glyph-name="guilsinglright" unicode="&#x203a;" d="M365 197 l178 323 l-178 324 q-22 40 16 61 l106 62 q40 22 62 -17 l233 -399 q19 -31 0 -62 l-233 -399 q-22 -39 -62 -16 l-106 61 q-39 22 -16 62 Z" /><glyph glyph-name="uni205F" unicode="&#x205f;" d="" /><glyph glyph-name="Euro" unicode="&#x20ac;" d="M61 512 l0 53 q0 45 45 45 l27 0 l0 90 l-27 0 q-45 0 -45 45 l0 54 q0 45 45 45 l27 0 l0 98 q0 187 102.5 288 q102.5 101 307.5 101 q205 0 307 -101 q102 -101 102 -288 l0 -10 q0 -45 -45 -45 l-155 0 q-45 0 -45 45 l0 31 q0 143 -164 143 q-164 0 -164 -143 l0 -119 l201 0 q50 0 41 -49 l-13 -56 q-9 -39 -49 -39 l-180 0 l0 -90 l153 0 q50 0 41 -49 l-12 -55 q-9 -39 -49 -39 l-133 0 l0 -119 q0 -143 164 -143 q164 0 164 143 l0 31 q0 45 45 45 l155 0 q45 0 45 -45 l0 -10 q0 -187 -102 -288 q-102 -101 -307 -101 q-205 0 -307.5 101 q-102.5 101 -102.5 288 l0 98 l-27 0 q-45 0 -45 45 Z" /><glyph glyph-name="trademark" unicode="&#x2122;" d="M88 1243 l0 23 q0 45 45 45 l320 0 q45 0 45 -45 l0 -23 q0 -45 -45 -45 l-99 0 l0 -416 q0 -45 -45 -45 l-33 0 q-45 0 -45 45 l0 416 l-98 0 q-45 0 -45 45 ZM549 782 l0 484 q0 45 45 45 l8 0 q36 0 53 -33 l99 -211 l100 211 q17 33 53 33 l8 0 q43 0 43 -45 l0 -484 q0 -45 -45 -45 l-32 0 q-45 0 -45 45 l0 252 l-35 -67 q-14 -33 -53 -33 q-27 0 -41 33 l-35 67 l0 -252 q0 -45 -45 -45 l-33 0 q-45 0 -45 45 Z" /><glyph glyph-name="uni25FC" unicode="&#x25fc;" d="M0 0 l0 942 l942 0 l0 -942 l-942 0 Z" /></font>
</defs>
</svg>
