<?xml version="1.0" standalone="no"?><!DOCTYPE svg PUBLIC "-//W3C//DTD SVG 1.1//EN" "http://www.w3.org/Graphics/SVG/1.1/DTD/svg11.dtd" ><svg xmlns="http://www.w3.org/2000/svg"><metadata></metadata><defs><font id="1.000;UKWN;RealtimeRounded-Bold" horiz-adv-x="2170"><font-face font-family="Realtime Rounded Bold" font-weight="700" font-stretch="normal" units-per-em="2048" panose-1="0 0 8 0 0 0 0 0 0 0" ascent="2019" descent="-429" x-height="0" bbox="-10 -389 1987 1753" underline-thickness="102" underline-position="-663" unicode-range="U+0020-25fc" /><missing-glyph horiz-adv-x="748" d="M68 0 l0 1365 l544 0 l0 -1365 l-544 0 ZM136 68 l408 0 l0 1229 l-408 0 l0 -1229 Z" /><glyph glyph-name="glyph1" unicode="" d="" /><glyph glyph-name="glyph2" unicode="" d="" /><glyph glyph-name="space" unicode=" " d="" /><glyph glyph-name="exclam" unicode="!" d="M412 39 l0 184 q0 39 39 39 l184 0 q39 0 39 -39 l0 -184 q0 -39 -39 -39 l-184 0 q-39 0 -39 39 ZM440 836 l0 436 q0 39 39 39 l127 0 q39 0 39 -39 l0 -436 l-24 -295 q-3 -37 -39 -37 l-78 0 q-36 0 -39 37 l-25 295 Z" /><glyph glyph-name="quotedbl" unicode="&quot;" d="M287 1272 q-3 39 39 39 l123 0 q41 0 38 -39 l-24 -475 q-3 -37 -41 -37 l-70 0 q-38 0 -41 37 l-24 475 ZM598 1270 q-3 41 39 41 l125 0 q42 0 39 -41 l-27 -473 q-3 -37 -39 -37 l-71 0 q-36 0 -39 37 l-27 473 Z" /><glyph glyph-name="numbersign" unicode="#" d="M90 397 l0 78 q0 39 39 39 l104 0 l50 283 l-93 0 q-38 0 -38 39 l0 77 q0 39 38 39 l119 0 l58 324 q6 35 41 35 l96 0 q20 0 29.5 -11.5 q9.5 -11.5 5.5 -31.5 l-56 -316 l222 0 l57 324 q6 35 41 35 l96 0 q20 0 29.5 -11.5 q9.5 -11.5 5.5 -31.5 l-55 -316 l79 0 q39 0 39 -39 l0 -77 q0 -39 -39 -39 l-106 0 l-49 -283 l94 0 q39 0 39 -39 l0 -78 q0 -39 -39 -39 l-121 0 l-57 -323 q-6 -35 -41 -35 l-96 0 q-20 0 -29.5 11.5 q-9.5 11.5 -5.5 31.5 l55 315 l-221 0 l-57 -323 q-6 -35 -41 -35 l-97 0 q-20 0 -29 11.5 q-9 11.5 -5 31.5 l55 315 l-78 0 q-39 0 -39 39 ZM408 514 l221 0 l49 283 l-221 0 l-49 -283 Z" /><glyph glyph-name="dollar" unicode="$" d="M141 965 q0 159 86.5 253 q86.5 94 251.5 111 l0 76 q0 39 39 39 l49 0 q39 0 39 -39 l0 -76 q155 -17 241 -107 q86 -90 95 -241 q3 -39 -37 -39 l-129 0 q-36 0 -39 39 q-15 128 -131 156 l0 -400 q44 -20 70.5 -33 q26.5 -13 67 -36 q40.5 -23 64.5 -43 q24 -20 53 -50.5 q29 -30.5 45 -62.5 q16 -32 27 -74.5 q11 -42.5 11 -91.5 q0 -159 -86.5 -253 q-86.5 -94 -251.5 -111 l0 -76 q0 -39 -39 -39 l-49 0 q-39 0 -39 39 l0 76 q-155 17 -241 107 q-86 90 -95 241 q-3 39 37 39 l129 0 q36 0 39 -39 q15 -129 131 -154 l0 399 q-43 19 -70.5 32 q-27.5 13 -67 35.5 q-39.5 22.5 -64.5 43 q-25 20.5 -53.5 50.5 q-28.5 30 -44.5 62.5 q-16 32.5 -27 75 q-11 42.5 -11 91.5 ZM346 981 q0 -109 133 -182 l0 338 q-65 -12 -99 -53 q-34 -41 -34 -103 ZM606 172 q133 27 133 160 q0 60 -34 102.5 q-34 42.5 -99 79.5 l0 -342 Z" /><glyph glyph-name="percent" unicode="%" d="M115 788 l0 84 q0 93 51 143 q51 50 153 50 q102 0 153.5 -50 q51.5 -50 51.5 -143 l0 -84 q0 -93 -51.5 -143.5 q-51.5 -50.5 -153.5 -50.5 q-102 0 -153 50.5 q-51 50.5 -51 143.5 ZM154 63 l706 971 q21 30 53 8 l19 -12 q30 -21 8 -53 l-707 -971 q-21 -30 -53 -8 l-16 12 q-33 20 -10 53 ZM236 778 q0 -73 83 -73 q84 0 84 73 l0 103 q0 75 -84 75 q-83 0 -83 -75 l0 -103 ZM573 182 l0 82 q0 93 50.5 144 q50.5 51 152.5 51 q102 0 153.5 -51 q51.5 -51 51.5 -144 l0 -82 q0 -94 -51 -144 q-51 -50 -154 -50 q-203 0 -203 194 ZM692 172 q0 -74 84 -74 q86 0 86 74 l0 102 q0 76 -86 76 q-84 0 -84 -76 l0 -102 Z" /><glyph glyph-name="ampersand" unicode="&amp;" d="M141 362 l0 87 q0 127 50.5 216 q50.5 89 146.5 130 q-82 157 -82 284 q0 133 78.5 213 q78.5 80 222.5 80 q116 0 229 -76 q31 -21 13 -55 l-43 -74 q-20 -33 -54 -12 q-72 39 -133 39 q-60 0 -94.5 -33.5 q-34.5 -33.5 -34.5 -97.5 q0 -57 23 -112 q23 -55 74 -142 l235 -393 q25 83 31 176 q0 39 39 39 l82 0 q39 0 39 -39 q-9 -210 -82 -356 l77 -132 q15 -24 15 -49 l0 -16 q0 -39 -39 -39 l-92 0 q-29 0 -47 27 l-31 53 q-115 -100 -277 -100 q-163 0 -254.5 101 q-91.5 101 -91.5 281 ZM340 340 q0 -88 48.5 -133 q48.5 -45 123.5 -45 q86 0 160 74 l-238 395 q-94 -41 -94 -160 l0 -131 Z" /><glyph glyph-name="quotesingle" unicode="&#39;" d="M442 1272 q-3 39 39 39 l123 0 q42 0 39 -39 l-25 -475 q-3 -37 -40 -37 l-70 0 q-38 0 -41 37 l-25 475 Z" /><glyph glyph-name="parenleft" unicode="(" d="M319 596 q0 230 77 443.5 q77 213.5 216 387.5 q26 29 56 5 l90 -74 q27 -24 6 -55 q-223 -315 -223 -707 q0 -392 223 -707 q21 -31 -6 -55 l-90 -74 q-31 -25 -56 4 q-139 174 -216 387.5 q-77 213.5 -77 444.5 Z" /><glyph glyph-name="parenright" unicode=")" d="M319 -111 q224 316 224 707 q0 391 -224 707 q-21 30 7 55 l90 74 q30 24 55 -5 q140 -173 216.5 -386.5 q76.5 -213.5 76.5 -444.5 q0 -232 -76.5 -445.5 q-76.5 -213.5 -216.5 -386.5 q-25 -28 -55 -4 l-90 74 q-28 25 -7 55 Z" /><glyph glyph-name="asterisk" unicode="*" d="M201 1114 l24 76 q12 39 49 24 l215 -79 l-8 231 q-3 39 37 39 l82 0 q40 0 37 -39 l-8 -231 l217 79 q36 15 49 -22 l25 -78 q13 -37 -27 -47 l-221 -63 l141 -181 q25 -31 -6 -53 l-64 -47 q-32 -25 -55 8 l-129 193 l-129 -193 q-23 -33 -55 -8 l-62 47 q-34 21 -8 53 l141 183 l-219 61 q-39 9 -26 47 Z" /><glyph glyph-name="plus" unicode="+" d="M160 563 l0 74 q0 39 39 39 l268 0 l0 270 q0 39 39 39 l74 0 q38 0 38 -39 l0 -270 l271 0 q39 0 39 -39 l0 -74 q0 -39 -39 -39 l-271 0 l0 -268 q0 -39 -38 -39 l-74 0 q-39 0 -39 39 l0 268 l-268 0 q-39 0 -39 39 Z" /><glyph glyph-name="comma" unicode="," d="M412 39 l0 184 q0 39 39 39 l184 0 q39 0 39 -39 l0 -125 q0 -26 -8 -47 l-107 -278 q-12 -31 -45 -31 l-43 0 q-21 0 -30 11.5 q-9 11.5 -3 31.5 l62 215 l-49 0 q-39 0 -39 39 Z" /><glyph glyph-name="hyphen" unicode="-" d="M299 514 l0 90 q0 39 39 39 l410 0 q38 0 38 -39 l0 -90 q0 -39 -38 -39 l-410 0 q-39 0 -39 39 Z" /><glyph glyph-name="period" unicode="." d="M412 39 l0 184 q0 39 39 39 l184 0 q39 0 39 -39 l0 -184 q0 -39 -39 -39 l-184 0 q-39 0 -39 39 Z" /><glyph glyph-name="slash" unicode="/" d="M256 -18 l373 1357 q9 33 43 33 l125 0 q45 0 32 -43 l-372 -1358 q-8 -32 -43 -32 l-125 0 q-22 0 -30.5 11.5 q-8.5 11.5 -2.5 31.5 Z" /><glyph glyph-name="zero" unicode="0" d="M131 362 l0 588 q0 183 100.5 282 q100.5 99 300.5 99 q202 0 302 -98.5 q100 -98.5 100 -282.5 l0 -588 q0 -184 -100 -283 q-100 -99 -302 -99 q-200 0 -300.5 99 q-100.5 99 -100.5 283 ZM336 346 q0 -178 196 -178 q197 0 197 178 l0 619 q0 178 -197 178 q-196 0 -196 -178 l0 -619 ZM449 610 l0 90 q0 39 38 39 l91 0 q38 0 38 -39 l0 -90 q0 -39 -38 -39 l-91 0 q-38 0 -38 39 Z" /><glyph glyph-name="one" unicode="1" d="M168 1079 q-19 31 14 54 l287 165 q26 13 49 13 l88 0 q39 0 39 -39 l0 -1084 l203 0 q39 0 39 -38 l0 -111 q0 -39 -39 -39 l-608 0 q-39 0 -39 39 l0 111 q0 38 39 38 l200 0 l0 865 l-164 -86 q-31 -19 -51 14 l-57 98 Z" /><glyph glyph-name="two" unicode="2" d="M141 39 l0 233 q0 29 21 47 l450 406 q76 69 101.5 117 q25.5 48 25.5 108 q0 105 -48.5 149 q-48.5 44 -147.5 44 q-197 0 -197 -178 l0 -31 q0 -39 -39 -39 l-127 0 q-39 0 -39 39 l0 16 q0 183 100.5 282 q100.5 99 301.5 99 q201 0 301 -98.5 q100 -98.5 100 -280.5 q0 -99 -39 -176 q-39 -77 -145 -172 l-422 -377 l0 -39 l557 0 q39 0 39 -38 l0 -111 q0 -39 -39 -39 l-715 0 q-39 0 -39 39 Z" /><glyph glyph-name="three" unicode="3" d="M141 358 q0 35 39 35 l127 0 q39 0 39 -39 l0 -10 q0 -176 197 -176 q196 0 196 176 l0 35 q0 103 -53.5 153 q-53.5 50 -165.5 50 l-26 0 q-39 0 -39 39 l0 77 q0 39 39 39 l26 0 q113 0 166 47 q53 47 53 148 l0 35 q0 176 -196 176 q-197 0 -197 -178 l0 -7 q0 -38 -39 -38 l-127 0 q-39 0 -39 30 q0 183 100.5 282 q100.5 99 301.5 99 q202 0 301.5 -98.5 q99.5 -98.5 99.5 -282.5 q0 -214 -141 -295 q141 -78 141 -293 q0 -184 -100 -283 q-100 -99 -301 -99 q-201 0 -301.5 97.5 q-100.5 97.5 -100.5 280.5 Z" /><glyph glyph-name="four" unicode="4" d="M119 311 l0 146 q0 27 10 47 l367 778 q14 29 47 29 l147 0 q23 0 31 -12.5 q8 -12.5 -2 -32.5 l-381 -805 l268 0 l0 258 q0 39 39 39 l127 0 q39 0 39 -39 l0 -258 l129 0 q39 0 39 -39 l0 -111 q0 -39 -39 -39 l-129 0 l0 -233 q0 -39 -39 -39 l-127 0 q-39 0 -39 39 l0 233 l-448 0 q-39 0 -39 39 Z" /><glyph glyph-name="five" unicode="5" d="M143 299 q-3 39 37 39 l129 0 q33 0 39 -37 q21 -133 195 -133 q196 0 196 178 l0 174 q0 178 -196 178 q-139 0 -199 -96 q-18 -27 -49 -22 l-109 16 q-37 6 -34 43 l36 635 q3 37 39 37 l643 0 q39 0 39 -39 l0 -111 q0 -39 -39 -39 l-499 0 l-17 -288 q88 53 211 53 q180 0 279.5 -100.5 q99.5 -100.5 99.5 -280.5 l0 -144 q0 -184 -100 -283 q-100 -99 -301 -99 q-185 0 -287 86.5 q-102 86.5 -113 232.5 Z" /><glyph glyph-name="six" unicode="6" d="M141 362 l0 588 q0 183 100 282 q100 99 298 99 q183 0 281.5 -87 q98.5 -87 109.5 -245 q3 -38 -37 -38 l-129 0 q-36 0 -39 38 q-20 144 -186 144 q-193 0 -193 -178 l0 -183 q89 64 223 64 q184 0 279.5 -99.5 q95.5 -99.5 95.5 -281.5 l0 -103 q0 -184 -100 -283 q-100 -99 -301 -99 q-200 0 -301 99.5 q-101 99.5 -101 282.5 ZM346 346 q0 -178 197 -178 q196 0 196 178 l0 133 q0 178 -192 178 q-98 0 -149.5 -49.5 q-51.5 -49.5 -51.5 -146.5 l0 -115 Z" /><glyph glyph-name="seven" unicode="7" d="M150 1044 l0 228 q0 39 38 39 l711 0 q39 0 39 -39 l0 -234 q0 -27 -10 -47 l-436 -962 q-12 -29 -46 -29 l-124 0 q-22 0 -30 12.5 q-8 12.5 1 32.5 l440 971 l0 106 l-387 0 l0 -78 q0 -38 -39 -38 l-119 0 q-38 0 -38 38 Z" /><glyph glyph-name="eight" unicode="8" d="M125 362 q0 227 162 306 q-137 84 -137 284 q0 180 100.5 279.5 q100.5 99.5 292.5 99.5 q192 0 292.5 -99.5 q100.5 -99.5 100.5 -279.5 q0 -202 -135 -284 q160 -80 160 -306 q0 -185 -104.5 -283.5 q-104.5 -98.5 -313.5 -98.5 q-208 0 -313 99 q-105 99 -105 283 ZM330 354 q0 -89 56.5 -137.5 q56.5 -48.5 156.5 -48.5 q101 0 157 48.5 q56 48.5 56 137.5 l0 33 q0 97 -56 148 q-56 51 -157 51 q-100 0 -156.5 -51 q-56.5 -51 -56.5 -148 l0 -33 ZM354 932 q0 -89 49.5 -136.5 q49.5 -47.5 139.5 -47.5 q90 0 139 47.5 q49 47.5 49 136.5 l0 33 q0 85 -49 131.5 q-49 46.5 -139 46.5 q-91 0 -140 -46.5 q-49 -46.5 -49 -131.5 l0 -33 Z" /><glyph glyph-name="nine" unicode="9" d="M141 846 l0 104 q0 183 100.5 282 q100.5 99 301.5 99 q202 0 301.5 -98.5 q99.5 -98.5 99.5 -282.5 l0 -590 q0 -182 -99 -281 q-99 -99 -298 -99 q-183 0 -281.5 87.5 q-98.5 87.5 -109.5 245.5 q-3 39 37 39 l129 0 q35 0 38 -39 q20 -145 187 -145 q192 0 192 178 l0 180 q-89 -61 -223 -61 q-182 0 -278.5 100 q-96.5 100 -96.5 281 ZM346 831 q0 -178 193 -178 q97 0 148.5 49.5 q51.5 49.5 51.5 147.5 l0 115 q0 178 -196 178 q-197 0 -197 -178 l0 -134 Z" /><glyph glyph-name="colon" unicode=":" d="M412 39 l0 184 q0 39 39 39 l184 0 q39 0 39 -39 l0 -184 q0 -39 -39 -39 l-184 0 q-39 0 -39 39 ZM412 719 l0 184 q0 39 39 39 l184 0 q39 0 39 -39 l0 -184 q0 -39 -39 -39 l-184 0 q-39 0 -39 39 Z" /><glyph glyph-name="semicolon" unicode=";" d="M412 39 l0 184 q0 39 39 39 l184 0 q39 0 39 -39 l0 -125 q0 -26 -8 -47 l-107 -278 q-12 -31 -45 -31 l-43 0 q-21 0 -30 11.5 q-9 11.5 -3 31.5 l62 215 l-49 0 q-39 0 -39 39 ZM412 719 l0 184 q0 39 39 39 l184 0 q39 0 39 -39 l0 -184 q0 -39 -39 -39 l-184 0 q-39 0 -39 39 Z" /><glyph glyph-name="less" unicode="&lt;" d="M160 573 l0 56 q0 33 30 45 l693 256 q20 8 32.5 -0.5 q12.5 -8.5 12.5 -30.5 l0 -82 q0 -33 -31 -45 l-467 -172 l467 -172 q31 -12 31 -45 l0 -82 q0 -22 -12.5 -30.5 q-12.5 -8.5 -32.5 -0.5 l-693 258 q-30 12 -30 45 Z" /><glyph glyph-name="equal" unicode="=" d="M160 410 l0 73 q0 39 39 39 l690 0 q39 0 39 -39 l0 -73 q0 -39 -39 -39 l-690 0 q-39 0 -39 39 ZM160 717 l0 74 q0 38 39 38 l690 0 q39 0 39 -38 l0 -74 q0 -39 -39 -39 l-690 0 q-39 0 -39 39 Z" /><glyph glyph-name="greater" unicode="&gt;" d="M160 301 l0 82 q0 33 30 45 l465 172 l-465 172 q-30 12 -30 45 l0 82 q0 22 12.5 30.5 q12.5 8.5 32.5 0.5 l692 -256 q31 -12 31 -45 l0 -56 q0 -33 -31 -45 l-692 -258 q-20 -8 -32.5 0.5 q-12.5 8.5 -12.5 30.5 Z" /><glyph glyph-name="question" unicode="?" d="M141 942 l0 8 q0 183 100.5 282 q100.5 99 301.5 99 q202 0 301.5 -98.5 q99.5 -98.5 99.5 -282.5 l0 -43 q0 -160 -75 -256.5 q-75 -96.5 -228 -120.5 l-2 -73 q-3 -39 -41 -39 l-109 0 q-37 0 -40 39 l-7 211 q-3 39 37 39 l64 0 q196 0 196 178 l0 80 q0 178 -196 178 q-197 0 -197 -178 l0 -23 q0 -39 -39 -39 l-127 0 q-39 0 -39 39 ZM412 39 l0 184 q0 39 39 39 l184 0 q39 0 39 -39 l0 -184 q0 -39 -39 -39 l-184 0 q-39 0 -39 39 Z" /><glyph glyph-name="at" unicode="@" d="M121 362 l0 490 q0 185 103.5 284 q103.5 99 318.5 99 q422 0 422 -383 l0 -490 q0 -38 -39 -38 l-64 0 q-34 0 -43 34 l-4 21 q-70 -76 -190 -76 q-110 0 -183 72 q-73 72 -73 190 l0 6 q0 279 305 279 l117 0 l0 18 q0 96 -57 148.5 q-57 52.5 -175 52.5 q-131 0 -197.5 -53 q-66.5 -53 -66.5 -148 l0 -522 q0 -201 252 -201 q132 0 272 58 q36 13 51 -21 l33 -71 q16 -37 -18 -52 q-171 -79 -342 -79 q-215 0 -318.5 98.5 q-103.5 98.5 -103.5 283.5 ZM535 578 q0 -57 33 -87 q33 -30 81 -30 q58 0 100 33 q42 33 42 90 l0 116 l-119 0 q-63 0 -100 -30 q-37 -30 -37 -84 l0 -8 Z" /><glyph glyph-name="A" unicode="a" d="M129 39 l0 106 q0 24 6 48 l268 1085 q9 33 43 33 l193 0 q34 0 43 -33 l270 -1085 q6 -24 6 -48 l0 -106 q0 -39 -38 -39 l-127 0 q-39 0 -39 39 l0 127 l-47 201 l-328 0 l-45 -193 l0 -135 q0 -39 -39 -39 l-127 0 q-39 0 -39 39 ZM422 555 l242 0 l-121 526 l-121 -526 Z" /><glyph glyph-name="B" unicode="b" d="M141 39 l0 1233 q0 39 39 39 l332 0 q201 0 301 -98.5 q100 -98.5 100 -280.5 q0 -179 -112 -266 q143 -85 143 -287 q0 -182 -100 -280.5 q-100 -98.5 -301 -98.5 l-363 0 q-39 0 -39 39 ZM346 188 l197 0 q196 0 196 174 l0 33 q0 174 -196 174 l-197 0 l0 -381 ZM346 741 l166 0 q197 0 197 174 l0 33 q0 174 -197 174 l-166 0 l0 -381 Z" /><glyph glyph-name="C" unicode="c" d="M141 362 l0 588 q0 183 100.5 282 q100.5 99 301.5 99 q202 0 301.5 -98.5 q99.5 -98.5 99.5 -282.5 l0 -16 q0 -39 -39 -39 l-127 0 q-39 0 -39 39 l0 31 q0 178 -196 178 q-197 0 -197 -178 l0 -619 q0 -178 197 -178 q196 0 196 178 l0 31 q0 39 39 39 l127 0 q39 0 39 -39 l0 -15 q0 -184 -100 -283 q-100 -99 -301 -99 q-200 0 -301 99.5 q-101 99.5 -101 282.5 Z" /><glyph glyph-name="D" unicode="d" d="M141 39 l0 1233 q0 39 39 39 l363 0 q202 0 301.5 -98.5 q99.5 -98.5 99.5 -282.5 l0 -547 q0 -184 -100 -283.5 q-100 -99.5 -301 -99.5 l-363 0 q-39 0 -39 39 ZM346 188 l197 0 q196 0 196 179 l0 577 q0 178 -196 178 l-197 0 l0 -934 Z" /><glyph glyph-name="E" unicode="e" d="M180 39 l0 1233 q0 39 39 39 l649 0 q39 0 39 -39 l0 -111 q0 -39 -39 -39 l-483 0 l0 -372 l381 0 q39 0 39 -39 l0 -111 q0 -39 -39 -39 l-381 0 l0 -373 l483 0 q39 0 39 -38 l0 -111 q0 -39 -39 -39 l-649 0 q-39 0 -39 39 Z" /><glyph glyph-name="F" unicode="f" d="M180 39 l0 1233 q0 39 39 39 l649 0 q39 0 39 -39 l0 -111 q0 -39 -39 -39 l-483 0 l0 -372 l381 0 q39 0 39 -39 l0 -111 q0 -39 -39 -39 l-381 0 l0 -522 q0 -39 -39 -39 l-127 0 q-39 0 -39 39 Z" /><glyph glyph-name="G" unicode="g" d="M141 362 l0 588 q0 183 100.5 282 q100.5 99 301.5 99 q202 0 301.5 -98.5 q99.5 -98.5 99.5 -282.5 q0 -35 -39 -35 l-127 0 q-39 0 -39 39 l0 11 q0 178 -196 178 q-197 0 -197 -178 l0 -619 q0 -178 197 -178 q196 0 196 178 l0 129 l-147 0 q-39 0 -39 39 l0 111 q0 39 39 39 l313 0 q39 0 39 -39 l0 -263 q0 -184 -100 -283 q-100 -99 -301 -99 q-200 0 -301 99.5 q-101 99.5 -101 282.5 Z" /><glyph glyph-name="H" unicode="h" d="M141 39 l0 1233 q0 39 39 39 l127 0 q39 0 39 -39 l0 -512 l393 0 l0 512 q0 39 39 39 l127 0 q39 0 39 -39 l0 -1233 q0 -39 -39 -39 l-127 0 q-39 0 -39 39 l0 532 l-393 0 l0 -532 q0 -39 -39 -39 l-127 0 q-39 0 -39 39 Z" /><glyph glyph-name="I" unicode="i" d="M201 39 l0 111 q0 38 39 38 l200 0 l0 934 l-200 0 q-39 0 -39 39 l0 111 q0 39 39 39 l608 0 q39 0 39 -39 l0 -111 q0 -39 -39 -39 l-203 0 l0 -934 l203 0 q39 0 39 -38 l0 -111 q0 -39 -39 -39 l-608 0 q-39 0 -39 39 Z" /><glyph glyph-name="J" unicode="j" d="M141 362 q0 33 39 33 l127 0 q39 0 39 -39 l0 -10 q0 -178 197 -178 q196 0 196 178 l0 782 l-395 0 q-39 0 -39 39 l0 111 q0 39 39 39 l561 0 q39 0 39 -39 l0 -916 q0 -184 -100 -283 q-100 -99 -301 -99 q-200 0 -301 99.5 q-101 99.5 -101 282.5 Z" /><glyph glyph-name="K" unicode="k" d="M141 39 l0 1233 q0 39 39 39 l127 0 q39 0 39 -39 l0 -512 l135 0 l277 522 q14 29 45 29 l102 0 q39 0 39 -39 l0 -35 q0 -23 -12 -47 l-279 -524 l279 -529 q12 -24 12 -47 l0 -51 q0 -39 -39 -39 l-96 0 q-31 0 -45 29 l-283 542 l-135 0 l0 -532 q0 -39 -39 -39 l-127 0 q-39 0 -39 39 Z" /><glyph glyph-name="L" unicode="l" d="M180 39 l0 1233 q0 39 39 39 l127 0 q39 0 39 -39 l0 -1084 l483 0 q39 0 39 -38 l0 -111 q0 -39 -39 -39 l-649 0 q-39 0 -39 39 Z" /><glyph glyph-name="M" unicode="m" d="M141 39 l0 1233 q0 39 39 39 l78 0 q32 0 47 -29 l240 -498 l237 498 q14 29 47 29 l76 0 q39 0 39 -39 l0 -1233 q0 -39 -39 -39 l-127 0 q-39 0 -39 39 l0 801 l-135 -265 q-14 -28 -45 -28 l-35 0 q-31 0 -45 28 l-133 263 l0 -799 q0 -39 -39 -39 l-127 0 q-39 0 -39 39 Z" /><glyph glyph-name="N" unicode="n" d="M141 39 l0 1233 q0 39 39 39 l84 0 q30 0 45 -29 l430 -842 l0 832 q0 39 39 39 l127 0 q39 0 39 -39 l0 -1233 q0 -39 -39 -39 l-84 0 q-31 0 -45 29 l-430 841 l0 -831 q0 -39 -39 -39 l-127 0 q-39 0 -39 39 Z" /><glyph glyph-name="O" unicode="o" d="M141 362 l0 588 q0 183 100.5 282 q100.5 99 301.5 99 q202 0 301.5 -98.5 q99.5 -98.5 99.5 -282.5 l0 -588 q0 -184 -100 -283 q-100 -99 -301 -99 q-200 0 -301 99.5 q-101 99.5 -101 282.5 ZM346 346 q0 -178 197 -178 q196 0 196 178 l0 619 q0 178 -196 178 q-197 0 -197 -178 l0 -619 Z" /><glyph glyph-name="P" unicode="p" d="M141 39 l0 1233 q0 39 39 39 l363 0 q201 0 301 -98.5 q100 -98.5 100 -280.5 q0 -182 -100 -280.5 q-100 -98.5 -301 -98.5 l-197 0 l0 -514 q0 -39 -39 -39 l-127 0 q-39 0 -39 39 ZM346 741 l197 0 q196 0 196 174 l0 33 q0 174 -196 174 l-197 0 l0 -381 Z" /><glyph glyph-name="Q" unicode="q" d="M131 362 l0 588 q0 183 100.5 282 q100.5 99 300.5 99 q202 0 302 -98.5 q100 -98.5 100 -282.5 l0 -588 q0 -166 -81.5 -263 q-81.5 -97 -246.5 -115 l0 -109 q0 -39 -39 -39 l-49 0 q-39 0 -39 39 l0 107 q-174 13 -261 111.5 q-87 98.5 -87 268.5 ZM336 346 q0 -152 143 -174 l0 100 q0 39 39 39 l49 0 q39 0 39 -39 l0 -96 q123 28 123 170 l0 619 q0 178 -197 178 q-196 0 -196 -178 l0 -619 Z" /><glyph glyph-name="R" unicode="r" d="M141 39 l0 1233 q0 39 39 39 l363 0 q201 0 301 -98.5 q100 -98.5 100 -280.5 q0 -265 -205 -346 l195 -471 q10 -20 10 -47 l0 -29 q0 -39 -39 -39 l-112 0 q-33 0 -45 31 l-213 522 l-189 0 l0 -514 q0 -39 -39 -39 l-127 0 q-39 0 -39 39 ZM346 741 l197 0 q196 0 196 174 l0 33 q0 174 -196 174 l-197 0 l0 -381 Z" /><glyph glyph-name="S" unicode="s" d="M141 965 q0 174 103.5 270 q103.5 96 298.5 96 q184 0 286 -91.5 q102 -91.5 113 -258.5 q3 -39 -37 -39 l-129 0 q-36 0 -39 39 q-9 82 -60 122 q-51 40 -136 40 q-95 0 -145 -43 q-50 -43 -50 -119 q0 -57 33 -101 q33 -44 85.5 -73.5 q52.5 -29.5 116.5 -58 q64 -28.5 128 -62 q64 -33.5 116.5 -76 q52.5 -42.5 85.5 -110 q33 -67.5 33 -154.5 q0 -174 -103.5 -270 q-103.5 -96 -297.5 -96 q-184 0 -286.5 91.5 q-102.5 91.5 -113.5 258.5 q-3 39 37 39 l129 0 q36 0 39 -39 q9 -82 61 -122 q52 -40 138 -40 q95 0 143.5 43 q48.5 43 48.5 121 q0 57 -33 100.5 q-33 43.5 -85.5 73.5 q-52.5 30 -116.5 58 q-64 28 -128 61.5 q-64 33.5 -116.5 75.5 q-52.5 42 -85.5 109.5 q-33 67.5 -33 154.5 Z" /><glyph glyph-name="T" unicode="t" d="M129 1161 l0 111 q0 39 39 39 l752 0 q38 0 38 -39 l0 -111 q0 -39 -38 -39 l-275 0 l0 -1083 q0 -39 -39 -39 l-127 0 q-39 0 -39 39 l0 1083 l-272 0 q-39 0 -39 39 Z" /><glyph glyph-name="U" unicode="u" d="M141 362 l0 910 q0 39 39 39 l127 0 q39 0 39 -39 l0 -926 q0 -178 197 -178 q196 0 196 178 l0 926 q0 39 39 39 l127 0 q39 0 39 -39 l0 -910 q0 -184 -100 -283 q-100 -99 -301 -99 q-200 0 -301 99.5 q-101 99.5 -101 282.5 Z" /><glyph glyph-name="V" unicode="v" d="M129 1167 l0 105 q0 39 39 39 l127 0 q39 0 39 -39 l0 -135 l209 -908 l211 916 l0 127 q0 39 39 39 l127 0 q38 0 38 -39 l0 -105 q0 -23 -6 -47 l-270 -1087 q-9 -33 -43 -33 l-193 0 q-34 0 -43 33 l-268 1087 q-6 24 -6 47 Z" /><glyph glyph-name="W" unicode="w" d="M111 1270 q0 41 39 41 l118 0 q39 0 39 -37 l68 -823 l114 286 q12 31 46 31 l14 0 q33 0 45 -31 l117 -288 l67 825 q3 37 41 37 l117 0 q39 0 39 -41 l-90 -1233 q-3 -37 -39 -37 l-86 0 q-33 0 -45 31 l-172 463 l-170 -463 q-12 -31 -45 -31 l-86 0 q-36 0 -39 37 l-92 1233 Z" /><glyph glyph-name="X" unicode="x" d="M141 39 l0 51 q0 21 13 47 l270 527 l-270 526 q-13 26 -13 47 l0 35 q0 39 39 39 l103 0 q33 0 47 -29 l213 -444 l213 444 q14 29 47 29 l102 0 q39 0 39 -39 l0 -35 q0 -23 -12 -47 l-270 -526 l270 -527 q12 -24 12 -47 l0 -51 q0 -39 -39 -39 l-96 0 q-33 0 -47 29 l-219 460 l-219 -460 q-14 -29 -48 -29 l-96 0 q-39 0 -39 39 Z" /><glyph glyph-name="Y" unicode="y" d="M135 1098 l0 174 q0 39 39 39 l127 0 q39 0 39 -39 l0 -158 l203 -407 l202 407 l0 158 q0 39 39 39 l127 0 q39 0 39 -39 l0 -174 q0 -25 -12 -49 l-293 -547 l0 -463 q0 -39 -39 -39 l-127 0 q-39 0 -39 39 l0 463 l-293 547 q-12 24 -12 49 Z" /><glyph glyph-name="Z" unicode="z" d="M150 39 l0 231 q0 28 16 47 l573 730 l0 75 l-551 0 q-38 0 -38 39 l0 111 q0 39 38 39 l711 0 q39 0 39 -39 l0 -232 q0 -28 -16 -47 l-576 -731 l0 -74 l553 0 q39 0 39 -38 l0 -111 q0 -39 -39 -39 l-711 0 q-38 0 -38 39 Z" /><glyph glyph-name="bracketleft" unicode="[" d="M340 -156 l0 1547 q0 39 39 39 l381 0 q39 0 39 -39 l0 -111 q0 -39 -39 -39 l-215 0 l0 -1247 l215 0 q39 0 39 -39 l0 -111 q0 -39 -39 -39 l-381 0 q-39 0 -39 39 Z" /><glyph glyph-name="backslash" unicode="\" d="M256 1329 q-6 20 2.5 31.5 q8.5 11.5 30.5 11.5 l125 0 q34 0 43 -33 l372 -1357 q13 -43 -32 -43 l-125 0 q-35 0 -43 32 l-373 1358 Z" /><glyph glyph-name="bracketright" unicode="]" d="M289 -45 q0 39 39 39 l215 0 l0 1247 l-215 0 q-39 0 -39 39 l0 111 q0 39 39 39 l381 0 q39 0 39 -39 l0 -1547 q0 -39 -39 -39 l-381 0 q-39 0 -39 39 l0 111 Z" /><glyph glyph-name="asciicircum" unicode="^" d="M231 631 q-22 0 -29.5 12.5 q-7.5 12.5 1.5 32.5 l274 606 q12 29 45 29 l39 0 q33 0 45 -29 l277 -606 q9 -20 0.5 -32.5 q-8.5 -12.5 -31.5 -12.5 l-94 0 q-34 0 -45 28 l-170 379 l-168 -379 q-12 -28 -45 -28 l-99 0 Z" /><glyph glyph-name="underscore" unicode="_" d="M-10 -199 q0 39 39 39 l1028 0 q39 0 39 -39 l0 -45 q0 -39 -39 -39 l-1028 0 q-39 0 -39 39 l0 45 Z" /><glyph glyph-name="grave" unicode="`" d="M371 1292 q0 39 39 39 l127 0 q31 0 47 -24 l110 -150 q17 -23 17 -49 q0 -39 -39 -39 l-72 0 q-28 0 -49 21 l-160 153 q-20 20 -20 49 Z" /><glyph glyph-name="a" unicode="a" d="M141 256 l0 8 q0 137 98.5 207 q98.5 70 278.5 70 l211 0 l0 71 q0 88 -45 133.5 q-45 45.5 -131 45.5 q-134 0 -174 -82 q-15 -31 -43 -31 l-111 0 q-41 0 -41 20 q5 47 30.5 92.5 q25.5 45.5 71 85 q45.5 39.5 119.5 63.5 q74 24 166 24 q173 0 268 -97.5 q95 -97.5 95 -267.5 l0 -559 q0 -39 -39 -39 l-94 0 q-35 0 -41 35 l-12 55 q-107 -110 -283 -110 q-151 0 -237.5 73 q-86.5 73 -86.5 203 ZM338 268 q0 -56 39.5 -85 q39.5 -29 105.5 -29 q96 0 171 44.5 q75 44.5 75 102.5 l0 90 l-213 0 q-178 0 -178 -115 l0 -8 Z" /><glyph glyph-name="b" unicode="b" d="M152 39 l0 1233 q0 39 38 39 l127 0 q39 0 39 -39 l0 -404 q101 95 244 95 q154 0 249 -93 q95 -93 95 -266 l0 -266 q0 -173 -95 -265.5 q-95 -92.5 -249 -92.5 q-160 0 -262 114 l-10 -59 q-6 -35 -41 -35 l-97 0 q-38 0 -38 39 ZM356 354 q0 -89 60.5 -137.5 q60.5 -48.5 146.5 -48.5 q77 0 126.5 48.5 q49.5 48.5 49.5 137.5 l0 234 q0 89 -49.5 137.5 q-49.5 48.5 -126.5 48.5 q-86 0 -146.5 -48 q-60.5 -48 -60.5 -138 l0 -234 Z" /><glyph glyph-name="c" unicode="c" d="M141 362 l0 220 q0 182 101 281.5 q101 99.5 303 99.5 q180 0 281.5 -82 q101.5 -82 115.5 -213 q0 -3 0 -5 q0 -34 -39 -34 l-127 0 q-32 0 -41 37 q-14 50 -63 79 q-49 29 -127 29 q-199 0 -199 -178 l0 -250 q0 -178 199 -178 q78 0 127 30 q49 30 63 81 q9 34 41 34 l127 0 q39 0 39 -34 q0 -2 0 -5 q-14 -130 -115 -212 q-101 -82 -282 -82 q-202 0 -303 99 q-101 99 -101 283 Z" /><glyph glyph-name="d" unicode="d" d="M141 338 l0 266 q0 173 96 266 q96 93 250 93 q144 0 242 -95 l0 404 q0 39 39 39 l127 0 q39 0 39 -39 l0 -1233 q0 -39 -39 -39 l-94 0 q-35 0 -41 35 l-12 59 q-47 -55 -115.5 -84.5 q-68.5 -29.5 -147.5 -29.5 q-154 0 -249 92.5 q-95 92.5 -95 265.5 ZM346 354 q0 -89 50 -137.5 q50 -48.5 126 -48.5 q87 0 147 48.5 q60 48.5 60 137.5 l0 234 q0 90 -59.5 138 q-59.5 48 -147.5 48 q-76 0 -126 -48.5 q-50 -48.5 -50 -137.5 l0 -234 Z" /><glyph glyph-name="e" unicode="e" d="M141 362 l0 220 q0 182 101 281.5 q101 99.5 301 99.5 q201 0 301 -98.5 q100 -98.5 100 -276.5 l0 -109 q0 -39 -39 -39 l-559 0 l0 -102 q0 -178 197 -178 q77 0 126.5 26.5 q49.5 26.5 63.5 69.5 q12 35 41 35 l129 0 q39 0 39 -34 q0 -2 0 -5 q-19 -113 -121.5 -192.5 q-102.5 -79.5 -277.5 -79.5 q-200 0 -301 99.5 q-101 99.5 -101 282.5 ZM346 569 l393 0 l0 37 q0 176 -196 176 q-197 0 -197 -178 l0 -35 Z" /><glyph glyph-name="f" unicode="f" d="M145 793 l0 110 q0 39 39 39 l197 0 l0 86 q0 161 81.5 252.5 q81.5 91.5 239.5 91.5 q103 0 238 -47 q37 -12 25 -49 l-27 -78 q-9 -27 -33 -27 q-8 0 -18 3 q-111 30 -174 30 q-127 0 -127 -151 l0 -111 l278 0 q39 0 39 -39 l0 -110 q0 -39 -39 -39 l-278 0 l0 -715 q0 -39 -39 -39 l-127 0 q-39 0 -39 39 l0 715 l-197 0 q-39 0 -39 39 Z" /><glyph glyph-name="g" unicode="g" d="M141 502 l0 102 q0 173 96 266 q96 93 250 93 q163 0 261 -115 l12 59 q6 35 41 35 l94 0 q39 0 39 -39 l0 -786 q0 -183 -97 -283 q-97 -100 -286 -100 q-165 0 -259.5 80 q-94.5 80 -107.5 204 q0 3 0 5 q0 34 39 34 l127 0 q32 0 41 -37 q11 -50 52.5 -78 q41.5 -28 107.5 -28 q84 0 131 44 q47 44 47 134 l0 148 q-100 -97 -244 -97 q-154 0 -249 93 q-95 93 -95 266 ZM346 518 q0 -89 50 -137.5 q50 -48.5 126 -48.5 q87 0 147 48.5 q60 48.5 60 137.5 l0 70 q0 90 -59.5 138 q-59.5 48 -147.5 48 q-76 0 -126 -48.5 q-50 -48.5 -50 -137.5 l0 -70 Z" /><glyph glyph-name="h" unicode="h" d="M152 39 l0 1233 q0 39 38 39 l127 0 q39 0 39 -39 l0 -412 q106 103 262 103 q147 0 231.5 -85.5 q84.5 -85.5 84.5 -252.5 l0 -586 q0 -39 -39 -39 l-127 0 q-39 0 -39 39 l0 569 q0 166 -154 166 q-93 0 -156 -54 q-63 -54 -63 -167 l0 -514 q0 -39 -39 -39 l-127 0 q-38 0 -38 39 Z" /><glyph glyph-name="i" unicode="i" d="M215 39 l0 111 q0 38 39 38 l186 0 l0 566 l-186 0 q-39 0 -39 39 l0 110 q0 39 39 39 l352 0 q39 0 39 -39 l0 -715 l186 0 q39 0 39 -38 l0 -111 q0 -39 -39 -39 l-577 0 q-39 0 -39 39 ZM428 1126 l0 154 q0 39 39 39 l154 0 q38 0 38 -39 l0 -154 q0 -39 -38 -39 l-154 0 q-39 0 -39 39 Z" /><glyph glyph-name="j" unicode="j" d="M168 -172 l27 80 q11 35 49 26 q105 -32 174 -32 q123 0 123 153 l0 699 l-187 0 q-39 0 -39 39 l0 110 q0 39 39 39 l353 0 q38 0 38 -39 l0 -825 q0 -161 -81.5 -252.5 q-81.5 -91.5 -237.5 -91.5 q-92 0 -233 45 q-37 12 -25 49 ZM528 1126 l0 154 q0 39 39 39 l154 0 q39 0 39 -39 l0 -154 q0 -39 -39 -39 l-154 0 q-39 0 -39 39 Z" /><glyph glyph-name="k" unicode="k" d="M145 39 l0 1233 q0 39 39 39 l127 0 q39 0 39 -39 l0 -699 l115 0 l291 347 q16 22 47 22 l98 0 q39 0 39 -39 l0 -20 q0 -28 -16 -47 l-295 -357 l295 -358 q16 -19 16 -47 l0 -35 q0 -39 -39 -39 l-92 0 q-30 0 -47 23 l-299 362 l-113 0 l0 -346 q0 -39 -39 -39 l-127 0 q-39 0 -39 39 Z" /><glyph glyph-name="l" unicode="l" d="M215 39 l0 111 q0 38 39 38 l186 0 l0 934 l-186 0 q-39 0 -39 39 l0 111 q0 39 39 39 l352 0 q39 0 39 -39 l0 -1084 l186 0 q39 0 39 -38 l0 -111 q0 -39 -39 -39 l-577 0 q-39 0 -39 39 Z" /><glyph glyph-name="m" unicode="m" d="M109 39 l0 864 q0 39 38 39 l70 0 q34 0 43 -33 l6 -24 q75 78 180 78 q108 0 158 -82 q72 82 182 82 q90 0 141.5 -56 q51.5 -56 51.5 -149 l0 -719 q0 -39 -39 -39 l-106 0 q-39 0 -39 39 l0 713 q0 69 -66 69 q-40 0 -67 -28 q-27 -28 -27 -72 l0 -682 q0 -39 -39 -39 l-107 0 q-38 0 -38 39 l0 713 q0 69 -64 69 q-40 0 -68 -28 q-28 -28 -28 -72 l0 -682 q0 -39 -39 -39 l-105 0 q-38 0 -38 39 Z" /><glyph glyph-name="n" unicode="n" d="M152 39 l0 864 q0 39 38 39 l97 0 q35 0 41 -35 l12 -65 q105 121 278 121 q147 0 231.5 -85.5 q84.5 -85.5 84.5 -252.5 l0 -586 q0 -39 -39 -39 l-127 0 q-39 0 -39 39 l0 569 q0 166 -154 166 q-93 0 -156 -54 q-63 -54 -63 -167 l0 -514 q0 -39 -39 -39 l-127 0 q-38 0 -38 39 Z" /><glyph glyph-name="o" unicode="o" d="M141 362 l0 220 q0 182 101 281.5 q101 99.5 301 99.5 q201 0 301 -99 q100 -99 100 -282 l0 -220 q0 -184 -100 -283 q-100 -99 -301 -99 q-200 0 -301 99.5 q-101 99.5 -101 282.5 ZM346 346 q0 -178 197 -178 q196 0 196 178 l0 250 q0 178 -196 178 q-197 0 -197 -178 l0 -250 Z" /><glyph glyph-name="p" unicode="p" d="M152 -207 l0 1110 q0 39 38 39 l97 0 q35 0 41 -35 l10 -59 q103 115 262 115 q154 0 249 -93 q95 -93 95 -266 l0 -266 q0 -173 -95 -265.5 q-95 -92.5 -249 -92.5 q-145 0 -244 96 l0 -283 q0 -39 -39 -39 l-127 0 q-38 0 -38 39 ZM356 354 q0 -89 60.5 -137.5 q60.5 -48.5 146.5 -48.5 q77 0 126.5 48.5 q49.5 48.5 49.5 137.5 l0 234 q0 89 -49.5 137.5 q-49.5 48.5 -126.5 48.5 q-86 0 -146.5 -48 q-60.5 -48 -60.5 -138 l0 -234 Z" /><glyph glyph-name="q" unicode="q" d="M141 338 l0 266 q0 173 96 266 q96 93 250 93 q163 0 261 -115 l12 59 q6 35 41 35 l94 0 q39 0 39 -39 l0 -1110 q0 -39 -39 -39 l-127 0 q-39 0 -39 39 l0 283 q-99 -96 -244 -96 q-154 0 -249 92.5 q-95 92.5 -95 265.5 ZM346 354 q0 -89 50 -137.5 q50 -48.5 126 -48.5 q87 0 147 48.5 q60 48.5 60 137.5 l0 234 q0 90 -59.5 138 q-59.5 48 -147.5 48 q-76 0 -126 -48.5 q-50 -48.5 -50 -137.5 l0 -234 Z" /><glyph glyph-name="r" unicode="r" d="M186 39 l0 864 q0 39 39 39 l97 0 q34 0 40 -35 l13 -65 q105 121 278 121 q148 0 233 -88.5 q85 -88.5 85 -268.5 l0 -35 q0 -39 -39 -39 l-127 0 q-39 0 -39 39 l0 35 q0 168 -154 168 q-94 0 -157.5 -54 q-63.5 -54 -63.5 -167 l0 -514 q0 -39 -39 -39 l-127 0 q-39 0 -39 39 Z" /><glyph glyph-name="s" unicode="s" d="M164 678 q0 126 101.5 205.5 q101.5 79.5 277.5 79.5 q162 0 262 -76 q100 -76 115 -199 q0 -3 0 -5 q0 -34 -39 -34 l-129 0 q-32 0 -41 35 q-37 94 -181 94 q-73 0 -118 -26.5 q-45 -26.5 -45 -73.5 q0 -23 11 -41 q11 -18 27 -29.5 q16 -11.5 45.5 -22 q29.5 -10.5 54.5 -16.5 q25 -6 66 -14 q43 -8 70 -14.5 q27 -6.5 68 -19 q41 -12.5 67 -26 q26 -13.5 56.5 -35.5 q30.5 -22 48 -48 q17.5 -26 29.5 -63.5 q12 -37.5 12 -82.5 q0 -127 -101 -206.5 q-101 -79.5 -276 -79.5 q-163 0 -263.5 75.5 q-100.5 75.5 -115.5 198.5 q0 3 0 5 q0 34 39 34 l129 0 q32 0 41 -35 q37 -94 182 -94 q72 0 118 28 q46 28 46 74 q0 27 -15 47.5 q-15 20.5 -47 34.5 q-32 14 -63 22.5 q-31 8.5 -82 18.5 q-43 8 -69.5 14.5 q-26.5 6.5 -67.5 19 q-41 12.5 -67 25.5 q-26 13 -56.5 35.5 q-30.5 22.5 -48 48.5 q-17.5 26 -29.5 63.5 q-12 37.5 -12 82.5 Z" /><glyph glyph-name="t" unicode="t" d="M137 793 l0 110 q0 39 39 39 l203 0 l0 164 q0 34 35 43 l127 27 q5 1 10 1 q33 0 33 -36 l0 -199 l284 0 q39 0 39 -39 l0 -110 q0 -39 -39 -39 l-284 0 l0 -447 q0 -147 114 -147 q51 0 146 22 q38 9 49 -26 l29 -90 q3 -9 3 -17 q0 -24 -28 -33 q-137 -36 -238 -36 q-130 0 -205 86.5 q-75 86.5 -75 236.5 l0 451 l-203 0 q-39 0 -39 39 Z" /><glyph glyph-name="u" unicode="u" d="M152 317 l0 586 q0 39 38 39 l127 0 q39 0 39 -39 l0 -569 q0 -166 154 -166 q93 0 156 54 q63 54 63 167 l0 514 q0 39 39 39 l127 0 q39 0 39 -39 l0 -864 q0 -39 -39 -39 l-94 0 q-35 0 -41 35 l-12 65 q-105 -120 -279 -120 q-149 0 -233 85 q-84 85 -84 252 Z" /><glyph glyph-name="v" unicode="v" d="M125 799 l0 104 q0 39 39 39 l127 0 q39 0 39 -39 l0 -108 l213 -588 l213 588 l0 108 q0 39 39 39 l127 0 q39 0 39 -39 l0 -104 q0 -23 -9 -47 l-280 -721 q-12 -31 -45 -31 l-168 0 q-33 0 -45 31 l-281 721 q-8 21 -8 47 Z" /><glyph glyph-name="w" unicode="w" d="M113 901 q0 3 0 6 q0 35 37 35 l118 0 q38 0 41 -37 l58 -485 l125 334 q12 30 45 30 l12 0 q33 0 45 -30 l125 -334 l57 485 q3 37 41 37 l119 0 q37 0 37 -35 q0 -3 0 -6 l-86 -864 q-3 -37 -41 -37 l-88 0 q-34 0 -43 31 l-172 485 l-172 -485 q-9 -31 -43 -31 l-86 0 q-38 0 -41 37 l-88 864 Z" /><glyph glyph-name="x" unicode="x" d="M141 39 l0 35 q0 26 17 49 l262 356 l-262 357 q-17 23 -17 49 l0 18 q0 39 39 39 l101 0 q32 0 47 -24 l215 -302 l215 302 q15 24 47 24 l100 0 q39 0 39 -39 l0 -18 q0 -28 -16 -49 l-262 -357 l262 -356 q16 -21 16 -49 l0 -35 q0 -39 -39 -39 l-94 0 q-31 0 -47 25 l-221 315 l-221 -315 q-16 -25 -48 -25 l-94 0 q-39 0 -39 39 Z" /><glyph glyph-name="y" unicode="y" d="M125 799 l0 104 q0 39 39 39 l127 0 q39 0 39 -39 l0 -123 l213 -544 l213 544 l0 123 q0 39 39 39 l127 0 q39 0 39 -39 l0 -104 q0 -25 -11 -47 l-407 -967 q-12 -31 -45 -31 l-103 0 q-23 0 -31 12.5 q-8 12.5 1 32.5 l81 207 l-311 746 q-10 20 -10 47 Z" /><glyph glyph-name="z" unicode="z" d="M164 39 l0 194 q0 31 22 48 l539 450 l0 23 l-522 0 q-39 0 -39 39 l0 110 q0 39 39 39 l682 0 q39 0 39 -39 l0 -194 q0 -30 -23 -47 l-541 -453 l0 -21 l525 0 q39 0 39 -38 l0 -111 q0 -39 -39 -39 l-682 0 q-39 0 -39 39 Z" /><glyph glyph-name="braceleft" unicode="{" d="M205 547 l0 102 q0 36 39 39 q111 11 156.5 51.5 q45.5 40.5 45.5 106.5 q0 48 -4 142.5 q-4 94.5 -4 148.5 q0 74 16.5 124 q16.5 50 59.5 90 q43 40 122.5 60 q79.5 20 201.5 23 q41 0 41 -39 l0 -109 q0 -39 -41 -39 q-84 -3 -127.5 -17.5 q-43.5 -14.5 -57.5 -40.5 q-14 -26 -14 -75 l0 -293 q0 -74 -41 -136 q-41 -62 -117 -87 q76 -27 117 -88 q41 -61 41 -135 l0 -295 q0 -49 14 -75 q14 -26 57.5 -40.5 q43.5 -14.5 127.5 -17.5 q41 0 41 -39 l0 -107 q0 -39 -41 -39 q-121 3 -201 23 q-80 20 -123 60 q-43 40 -59.5 89.5 q-16.5 49.5 -16.5 122.5 q0 54 4 149 q4 95 4 142 q0 67 -45 108 q-45 41 -157 52 q-39 3 -39 39 Z" /><glyph glyph-name="bar" unicode="|" d="M457 -207 l0 1725 q0 38 39 38 l94 0 q39 0 39 -38 l0 -1725 q0 -39 -39 -39 l-94 0 q-39 0 -39 39 Z" /><glyph glyph-name="braceright" unicode="}" d="M207 -92 q0 39 41 39 q84 3 127 17.5 q43 14.5 57 40.5 q14 26 14 75 l0 295 q0 74 41 135 q41 61 117 88 q-76 25 -117 87 q-41 62 -41 136 l0 293 q0 49 -14 75 q-14 26 -57 40.5 q-43 14.5 -127 17.5 q-41 0 -41 39 l0 109 q0 39 41 39 q122 -3 201.5 -23 q79.5 -20 122 -60 q42.5 -40 59 -90 q16.5 -50 16.5 -124 q0 -54 -4 -148.5 q-4 -94.5 -4 -142.5 q0 -66 46 -106.5 q46 -40.5 157 -51.5 q39 -3 39 -39 l0 -102 q0 -36 -39 -39 q-112 -11 -157.5 -52 q-45.5 -41 -45.5 -108 q0 -47 4 -142 q4 -95 4 -149 q0 -58 -9.5 -100 q-9.5 -42 -35.5 -79.5 q-26 -37.5 -70.5 -61 q-44.5 -23.5 -115 -38 q-70.5 -14.5 -168.5 -16.5 q-41 0 -41 39 l0 107 Z" /><glyph glyph-name="asciitilde" unicode="~" d="M152 549 q11 100 59 153.5 q48 53.5 131 53.5 q39 0 84.5 -14 q45.5 -14 72 -27 q26.5 -13 81.5 -43 q7 -4 23.5 -13 q16.5 -9 23 -13 q6.5 -4 20 -11 q13.5 -7 20 -10 q6.5 -3 17 -7.5 q10.5 -4.5 18 -6.5 q7.5 -2 15.5 -3.5 q8 -1.5 16 -1.5 q56 0 72 66 q6 37 41 37 l51 0 q40 0 37 -41 q-8 -106 -56.5 -162.5 q-48.5 -56.5 -134.5 -56.5 q-55 0 -108 20.5 q-53 20.5 -129 62.5 q-40 23 -60.5 34.5 q-20.5 11.5 -47.5 21.5 q-27 10 -46 10 q-53 0 -69 -66 q-6 -36 -41 -36 l-54 0 q-39 0 -36 53 Z" /><glyph glyph-name="uni00A0" unicode=" " d="" /><glyph glyph-name="exclamdown" unicode="¡" d="M412 719 l0 184 q0 39 39 39 l184 0 q39 0 39 -39 l0 -184 q0 -39 -39 -39 l-184 0 q-39 0 -39 39 ZM440 106 l25 295 q3 37 39 37 l78 0 q36 0 39 -37 l24 -295 l0 -436 q0 -39 -39 -39 l-127 0 q-39 0 -39 39 l0 436 Z" /><glyph glyph-name="cent" unicode="¢" d="M141 362 l0 220 q0 166 84.5 264 q84.5 98 253.5 115 l0 75 q0 39 39 39 l49 0 q39 0 39 -39 l0 -75 q152 -14 237.5 -94 q85.5 -80 98.5 -199 q3 -39 -39 -39 l-127 0 q-32 0 -41 37 q-23 84 -129 102 l0 -594 q107 21 129 102 q9 37 41 37 l127 0 q42 0 39 -39 q-13 -119 -98 -198.5 q-85 -79.5 -238 -93.5 l0 -76 q0 -39 -39 -39 l-49 0 q-39 0 -39 39 l0 76 q-169 17 -253.5 115 q-84.5 98 -84.5 265 ZM346 346 q0 -147 133 -172 l0 594 q-133 -25 -133 -172 l0 -250 Z" /><glyph glyph-name="sterling" unicode="£" d="M160 39 l0 78 q0 28 16 47 q111 164 119 354 l-80 0 q-39 0 -39 39 l0 49 q0 39 39 39 l70 0 q-8 40 -28 105 q-20 65 -33 123 q-13 58 -13 118 q0 147 93.5 243.5 q93.5 96.5 254.5 96.5 q152 0 242.5 -84.5 q90.5 -84.5 101.5 -228.5 q3 -41 -37 -41 l-127 0 q-36 0 -39 39 q-9 64 -46.5 95.5 q-37.5 31.5 -94.5 31.5 q-65 0 -104 -42 q-39 -42 -39 -120 q0 -63 28.5 -171 q28.5 -108 36.5 -165 l217 0 q39 0 39 -39 l0 -49 q0 -39 -39 -39 l-211 0 q-5 -173 -100 -330 l502 0 q39 0 39 -38 l0 -111 q0 -39 -39 -39 l-690 0 q-39 0 -39 39 Z" /><glyph glyph-name="currency" unicode="¤" d="M158 825 q-12 12 -11.5 27 q0.5 15 13.5 27 l55 55 q27 27 53 -2 l99 -98 q76 45 176 45 q100 0 176 -45 l100 100 q27 26 53 0 l56 -55 q12 -12 12 -27 q0 -15 -12 -27 l-99 -98 q50 -80 50 -178 q0 -99 -50 -176 l99 -99 q26 -26 0 -53 l-56 -55 q-26 -29 -55 0 l-98 98 q-76 -45 -176 -45 q-100 0 -176 45 l-99 -98 q-26 -29 -53 -2 l-57 57 q-27 27 2 53 l96 99 q-47 77 -47 176 q0 100 49 176 l-100 100 ZM417 678.5 q-50 -48.5 -50 -129.5 q0 -81 50 -129.5 q50 -48.5 126 -48.5 q76 0 126 48.5 q50 48.5 50 129.5 q0 81 -50 129.5 q-50 48.5 -126 48.5 q-76 0 -126 -48.5 Z" /><glyph glyph-name="yen" unicode="¥" d="M135 1098 l0 174 q0 39 39 39 l127 0 q39 0 39 -39 l0 -158 l203 -407 l202 407 l0 158 q0 39 39 39 l127 0 q39 0 39 -39 l0 -174 q0 -25 -12 -49 l-117 -218 l64 0 q39 0 39 -38 l0 -48 q0 -38 -39 -38 l-129 0 l-56 -103 l185 0 q39 0 39 -39 l0 -47 q0 -39 -39 -39 l-240 0 l0 -440 q0 -39 -39 -39 l-127 0 q-39 0 -39 39 l0 440 l-239 0 q-39 0 -39 39 l0 47 q0 39 39 39 l184 0 l-55 103 l-129 0 q-39 0 -39 38 l0 48 q0 38 39 38 l63 0 l-117 218 q-12 24 -12 49 Z" /><glyph glyph-name="brokenbar" unicode="¦" d="M457 -207 l0 629 q0 39 39 39 l94 0 q39 0 39 -39 l0 -629 q0 -39 -39 -39 l-94 0 q-39 0 -39 39 ZM457 889 l0 629 q0 38 39 38 l94 0 q39 0 39 -38 l0 -629 q0 -39 -39 -39 l-94 0 q-39 0 -39 39 Z" /><glyph glyph-name="section" unicode="§" d="M141 586 q0 155 123 233 q-86 79 -86 201 q0 146 96.5 228.5 q96.5 82.5 268.5 82.5 q158 0 254 -76 q96 -76 108 -208 q3 -41 -39 -41 l-127 2 q-18 0 -27 8.5 q-9 8.5 -14 27.5 q-19 107 -157 107 q-74 0 -116 -32 q-42 -32 -42 -95 q0 -44 31 -78 q31 -34 80.5 -57.5 q49.5 -23.5 109.5 -46 q60 -22.5 119.5 -52 q59.5 -29.5 109 -67.5 q49.5 -38 80.5 -100 q31 -62 31 -142 q0 -159 -123 -235 q86 -83 86 -201 q0 -146 -96 -228.5 q-96 -82.5 -268 -82.5 q-159 0 -255 76 q-96 76 -108 208 q-3 41 37 41 l129 0 q18 0 27 -8.5 q9 -8.5 14 -27.5 q19 -109 160 -109 q73 0 114 32 q41 32 41 95 q0 39 -24 70.5 q-24 31.5 -63.5 52 q-39.5 20.5 -90 43 q-50.5 22.5 -103 42 q-52.5 19.5 -103 50 q-50.5 30.5 -90 66.5 q-39.5 36 -63.5 93 q-24 57 -24 128 ZM346 582 q0 -27 8 -50 q8 -23 27.5 -42.5 q19.5 -19.5 37 -34 q17.5 -14.5 51.5 -31 q34 -16.5 55 -26 q21 -9.5 63.5 -26.5 q42.5 -17 62.5 -26 q88 39 88 137 q0 27 -8 50.5 q-8 23.5 -27.5 43 q-19.5 19.5 -37 34 q-17.5 14.5 -51.5 31 q-34 16.5 -55.5 25.5 q-21.5 9 -64.5 26.5 q-43 17.5 -63 25.5 q-86 -38 -86 -137 Z" /><glyph glyph-name="dieresis" unicode="¨" d="M264 1145 l0 119 q0 39 39 39 l121 0 q39 0 39 -39 l0 -119 q0 -39 -39 -39 l-121 0 q-39 0 -39 39 ZM623 1145 l0 119 q0 39 39 39 l120 0 q39 0 39 -39 l0 -119 q0 -39 -39 -39 l-120 0 q-39 0 -39 39 Z" /><glyph glyph-name="copyright" unicode="©" d="M240.5 394.5 q-125.5 124.5 -125.5 301.5 q0 177 125.5 301.5 q125.5 124.5 302.5 124.5 q177 0 302.5 -124.5 q125.5 -124.5 125.5 -301.5 q0 -177 -125.5 -301.5 q-125.5 -124.5 -302.5 -124.5 q-177 0 -302.5 124.5 ZM225 696 q0 -131 94 -225 q94 -94 224 -94 q131 0 224 93.5 q93 93.5 93 225.5 q0 132 -93 226 q-93 94 -224 94 q-129 0 -223.5 -94 q-94.5 -94 -94.5 -226 ZM369 651 l0 90 q0 85 42 125.5 q42 40.5 134 40.5 q151 0 170 -112 q4 -20 -6 -30.5 q-10 -10.5 -31 -10.5 l-27 0 q-12 0 -20 4.5 q-8 4.5 -11.5 9.5 q-3.5 5 -11.5 18 q-16 25 -63 25 q-74 0 -74 -63 l0 -103 q0 -63 74 -63 q48 0 63 24 q8 14 11.5 18.5 q3.5 4.5 11.5 9.5 q8 5 20 5 l27 0 q21 0 31 -10.5 q10 -10.5 6 -30.5 q-19 -113 -170 -113 q-92 0 -134 40.5 q-42 40.5 -42 125.5 Z" /><glyph glyph-name="ordfeminine" unicode="ª" d="M252 838 l0 4 q0 98 69 146 q69 48 195 48 l135 0 l0 49 q0 107 -108 107 q-74 0 -99 -39 q-19 -29 -45 -29 l-75 0 q-42 0 -39 21 q8 75 78.5 130.5 q70.5 55.5 195.5 55.5 q122 0 190 -69 q68 -69 68 -189 l0 -377 q0 -39 -39 -39 l-65 0 q-35 0 -41 35 l-4 23 q-75 -72 -191 -72 q-105 0 -165 52.5 q-60 52.5 -60 142.5 ZM412 848 q0 -66 84 -66 q58 0 106.5 27.5 q48.5 27.5 48.5 62.5 l0 48 l-137 0 q-102 0 -102 -66 l0 -6 Z" /><glyph glyph-name="guillemotleft" unicode="«" d="M150 494 q-15 26 0 53 l223 360 q21 34 53 15 l90 -52 q35 -18 14 -53 l-178 -297 l178 -297 q19 -36 -14 -53 l-90 -49 q-33 -20 -53 14 l-223 359 ZM518 494 q-15 26 0 53 l211 338 q20 34 53 14 l90 -49 q34 -17 15 -53 l-166 -277 l166 -276 q19 -36 -15 -54 l-90 -49 q-32 -19 -53 15 l-211 338 Z" /><glyph glyph-name="logicalnot" unicode="¬" d="M160 563 l0 74 q0 39 39 39 l690 0 q39 0 39 -39 l0 -268 q0 -39 -39 -39 l-51 0 q-39 0 -39 39 l0 155 l-600 0 q-39 0 -39 39 Z" /><glyph glyph-name="uni00AD" unicode="­" d="M299 514 l0 90 q0 39 39 39 l410 0 q38 0 38 -39 l0 -90 q0 -39 -38 -39 l-410 0 q-39 0 -39 39 Z" /><glyph glyph-name="registered" unicode="®" d="M240.5 394.5 q-125.5 124.5 -125.5 301.5 q0 177 125.5 301.5 q125.5 124.5 302.5 124.5 q177 0 302.5 -124.5 q125.5 -124.5 125.5 -301.5 q0 -177 -125.5 -301.5 q-125.5 -124.5 -302.5 -124.5 q-177 0 -302.5 124.5 ZM225 696 q0 -131 94 -225 q94 -94 224 -94 q131 0 224 93.5 q93 93.5 93 225.5 q0 132 -93 226 q-93 94 -224 94 q-129 0 -223.5 -94 q-94.5 -94 -94.5 -226 ZM401 530 l0 332 q0 39 39 39 l101 0 q76 0 114.5 -36.5 q38.5 -36.5 38.5 -102.5 q0 -82 -59 -115 l41 -80 q12 -24 12 -47 q0 -28 -39 -28 q-31 0 -45 28 l-53 105 l-10 0 l-54 0 l0 -95 q0 -38 -38 -38 l-9 0 q-39 0 -39 38 ZM487 705 l54 0 q67 0 67 53 l0 6 q0 59 -67 59 l-54 0 l0 -118 Z" /><glyph glyph-name="macron" unicode="¯" d="M299 1141 l0 69 q0 39 39 39 l410 0 q38 0 38 -39 l0 -69 q0 -39 -38 -39 l-410 0 q-39 0 -39 39 Z" /><glyph glyph-name="degree" unicode="°" d="M283 1085 q0 109 76.5 186 q76.5 77 183.5 77 q109 0 185.5 -77 q76.5 -77 76.5 -186 q0 -107 -76.5 -183.5 q-76.5 -76.5 -185.5 -76.5 q-107 0 -183.5 76.5 q-76.5 76.5 -76.5 183.5 ZM457 1171 q-35 -35 -35 -86 q0 -51 35 -85.5 q35 -34.5 86 -34.5 q51 0 86 34.5 q35 34.5 35 85.5 q0 51 -35 86 q-35 35 -86 35 q-51 0 -86 -35 Z" /><glyph glyph-name="plusminus" unicode="±" d="M160 209 l0 76 q0 39 39 39 l690 0 q39 0 39 -39 l0 -76 q0 -39 -39 -39 l-690 0 q-39 0 -39 39 ZM160 707 l0 73 q0 39 39 39 l268 0 l0 230 q0 38 39 38 l74 0 q38 0 38 -38 l0 -230 l271 0 q39 0 39 -39 l0 -73 q0 -39 -39 -39 l-271 0 l0 -228 q0 -39 -38 -39 l-74 0 q-39 0 -39 39 l0 228 l-268 0 q-39 0 -39 39 Z" /><glyph glyph-name="acute" unicode="´" d="M377 1108 q0 28 16 49 l109 150 q18 24 49 24 l125 0 q39 0 39 -39 q0 -28 -21 -49 l-159 -156 q-21 -18 -50 -18 l-69 0 q-39 0 -39 39 Z" /><glyph glyph-name="mu" unicode="µ" d="M152 -207 l0 1110 q0 39 38 39 l127 0 q39 0 39 -39 l0 -569 q0 -166 154 -166 q93 0 156 54 q63 54 63 167 l0 514 q0 39 39 39 l127 0 q39 0 39 -39 l0 -864 q0 -39 -39 -39 l-94 0 q-35 0 -41 35 l-12 65 q-105 -120 -279 -120 q-64 0 -113 14 l0 -201 q0 -39 -39 -39 l-127 0 q-38 0 -38 39 Z" /><glyph glyph-name="paragraph" unicode="¶" d="M145 983 q0 157 88 242.5 q88 85.5 263 85.5 l395 0 q39 0 39 -39 l0 -1479 q0 -39 -39 -39 l-66 0 q-39 0 -39 39 l0 1374 l-147 0 l0 -1374 q0 -39 -39 -39 l-65 0 q-39 0 -39 39 l0 860 q-176 0 -263.5 85 q-87.5 85 -87.5 245 Z" /><glyph glyph-name="periodcentered" unicode="·" d="M412 469 l0 184 q0 39 39 39 l184 0 q39 0 39 -39 l0 -184 q0 -39 -39 -39 l-184 0 q-39 0 -39 39 Z" /><glyph glyph-name="cedilla" unicode="¸" d="M403 -186 q-4 20 6 30.5 q10 10.5 31 10.5 l33 0 q9 0 15 -3 q6 -3 14 -10.5 q8 -7.5 14 -11.5 q9 -6 29 -6 q41 0 41 39 l0 24 q0 35 -41 35 l-27 0 q-39 0 -39 39 l0 23 q0 39 39 39 l27 0 q73 0 109 -35.5 q36 -35.5 36 -100.5 l0 -24 q0 -135 -145 -135 q-119 0 -142 86 Z" /><glyph glyph-name="ordmasculine" unicode="º" d="M258 915 l0 146 q0 130 71 200 q71 70 214 70 q144 0 215 -70 q71 -70 71 -200 l0 -146 q0 -132 -71 -202 q-71 -70 -215 -70 q-144 0 -214.5 70 q-70.5 70 -70.5 202 ZM424 901 q0 -104 119 -104 q119 0 119 104 l0 172 q0 107 -119 107 q-119 0 -119 -107 l0 -172 Z" /><glyph glyph-name="guillemotright" unicode="»" d="M199 244 l166 276 l-166 277 q-19 36 14 53 l92 49 q33 20 53 -14 l209 -338 q15 -27 0 -53 l-209 -338 q-21 -34 -53 -15 l-92 49 q-33 17 -14 54 ZM555 223 l178 297 l-178 297 q-19 36 14 53 l90 52 q33 20 54 -15 l223 -360 q15 -27 0 -53 l-223 -359 q-21 -34 -54 -14 l-90 49 q-33 17 -14 53 Z" /><glyph glyph-name="onequarter" unicode="¼" d="M137 63 l281 447 q9 15 23.5 18.5 q14.5 3.5 29.5 -6.5 q31 -19 12 -51 l-247 -467 q-17 -33 -54 -14 l-32 20 q-33 20 -13 53 ZM137 1178 q-21 34 15 53 l116 67 q26 13 49 13 l23 0 q39 0 39 -39 l0 -508 l74 0 q39 0 39 -39 l0 -31 q0 -39 -39 -39 l-269 0 q-39 0 -39 39 l0 31 q0 39 39 39 l76 0 l0 399 l-53 -28 q-34 -18 -53 14 l-17 29 ZM541 168 l0 49 q0 27 10 47 l170 363 q14 28 47 28 l47 0 q23 0 31.5 -12.5 q8.5 -12.5 -0.5 -32.5 l-172 -372 l108 0 l0 102 q0 39 39 39 l41 0 q39 0 39 -39 l0 -102 l39 0 q39 0 39 -39 l0 -31 q0 -39 -39 -39 l-39 0 l0 -90 q0 -39 -39 -39 l-41 0 q-39 0 -39 39 l0 90 l-202 0 q-39 0 -39 39 ZM606 840 l246 465 q18 35 53 14 l33 -19 q34 -20 14 -53 l-280 -444 q-21 -35 -54 -15 q-32 19 -12 52 Z" /><glyph glyph-name="onehalf" unicode="½" d="M131 1178 q-21 35 14 53 l117 67 q26 13 49 13 l23 0 q39 0 39 -39 l0 -508 l73 0 q39 0 39 -39 l0 -31 q0 -39 -39 -39 l-268 0 q-39 0 -39 39 l0 31 q0 39 39 39 l76 0 l0 399 l-53 -28 q-35 -18 -54 14 l-16 29 ZM137 63 l281 447 q9 15 23.5 18.5 q14.5 3.5 29.5 -6.5 q31 -19 12 -51 l-247 -467 q-17 -33 -54 -14 l-32 20 q-33 20 -13 53 ZM563 39 l0 98 q0 30 23 47 l209 187 q35 31 46 52 q11 21 11 50 q0 48 -21.5 67 q-21.5 19 -64.5 19 q-38 0 -58 -14.5 q-20 -14.5 -26 -50.5 q-6 -39 -39 -39 l-41 0 q-39 0 -39 37 q0 74 52 124 q52 50 151 50 q102 0 153.5 -50 q51.5 -50 51.5 -143 q0 -50 -19 -88 q-19 -38 -71 -82 l-205 -178 l0 -16 l250 0 q39 0 39 -39 l0 -31 q0 -39 -39 -39 l-324 0 q-39 0 -39 39 ZM606 840 l246 465 q18 35 53 14 l33 -19 q34 -20 14 -53 l-280 -444 q-21 -35 -54 -15 q-32 19 -12 52 Z" /><glyph glyph-name="threequarters" unicode="¾" d="M113 821 q0 35 39 35 l43 0 q32 0 38 -39 q6 -37 25 -50 q19 -13 59 -13 q86 0 86 75 l0 19 q0 92 -92 92 q-39 0 -39 39 l0 12 q0 39 39 39 q92 0 92 88 l0 21 q0 75 -86 75 q-40 0 -59 -14 q-19 -14 -25 -51 q-6 -39 -38 -39 l-43 0 q-39 0 -39 37 q0 74 52.5 124 q52.5 50 151.5 50 q102 0 153.5 -50 q51.5 -50 51.5 -143 q0 -101 -65 -145 q65 -41 65 -143 q0 -93 -51.5 -144 q-51.5 -51 -153.5 -51 q-99 0 -151.5 50.5 q-52.5 50.5 -52.5 125.5 ZM135 63 l281 447 q23 33 53 12 q32 -19 14 -53 l-247 -465 q-17 -33 -54 -14 l-35 20 q-31 22 -12 53 ZM541 168 l0 49 q0 27 10 47 l168 363 q14 28 47 28 l49 0 q23 0 31.5 -12.5 q8.5 -12.5 -0.5 -32.5 l-174 -372 l110 0 l0 102 q0 39 39 39 l41 0 q39 0 39 -39 l0 -102 l39 0 q39 0 39 -39 l0 -31 q0 -39 -39 -39 l-39 0 l0 -90 q0 -39 -39 -39 l-41 0 q-39 0 -39 39 l0 90 l-202 0 q-39 0 -39 39 ZM604 842 l246 463 q18 35 53 14 l35 -19 q32 -20 14 -55 l-280 -442 q-21 -35 -54 -15 q-32 19 -14 54 Z" /><glyph glyph-name="questiondown" unicode="¿" d="M141 -8 l0 43 q0 160 76 257 q76 97 229 120 l3 73 q3 39 40 39 l109 0 q38 0 41 -39 l6 -211 q0 -38 -39 -38 l-63 0 q-197 0 -197 -179 l0 -80 q0 -178 197 -178 q196 0 196 178 l0 23 q0 39 39 39 l127 0 q39 0 39 -39 l0 -8 q0 -184 -99.5 -282.5 q-99.5 -98.5 -301.5 -98.5 q-201 0 -301.5 99 q-100.5 99 -100.5 282 ZM412 719 l0 184 q0 39 39 39 l184 0 q39 0 39 -39 l0 -184 q0 -39 -39 -39 l-184 0 q-39 0 -39 39 Z" /><glyph glyph-name="Agrave" unicode="à" d="M129 39 l0 106 q0 24 6 48 l268 1085 q9 33 43 33 l193 0 q34 0 43 -33 l270 -1085 q6 -24 6 -48 l0 -106 q0 -39 -38 -39 l-127 0 q-39 0 -39 39 l0 127 l-47 201 l-328 0 l-45 -193 l0 -135 q0 -39 -39 -39 l-127 0 q-39 0 -39 39 ZM373 1630 q0 39 39 39 l127 0 q31 0 47 -24 l110 -150 q17 -23 17 -49 q0 -39 -39 -39 l-72 0 q-29 0 -49 20 l-160 154 q-20 20 -20 49 ZM422 555 l242 0 l-121 526 l-121 -526 Z" /><glyph glyph-name="Aacute" unicode="á" d="M129 39 l0 106 q0 24 6 48 l268 1085 q9 33 43 33 l193 0 q34 0 43 -33 l270 -1085 q6 -24 6 -48 l0 -106 q0 -39 -38 -39 l-127 0 q-39 0 -39 39 l0 127 l-47 201 l-328 0 l-45 -193 l0 -135 q0 -39 -39 -39 l-127 0 q-39 0 -39 39 ZM375 1446 q0 28 16 49 l109 150 q18 24 49 24 l125 0 q39 0 39 -39 q0 -28 -21 -49 l-160 -154 q-20 -20 -49 -20 l-69 0 q-39 0 -39 39 ZM422 555 l242 0 l-121 526 l-121 -526 Z" /><glyph glyph-name="Acircumflex" unicode="â" d="M129 39 l0 106 q0 24 6 48 l268 1085 q9 33 43 33 l193 0 q34 0 43 -33 l270 -1085 q6 -24 6 -48 l0 -106 q0 -39 -38 -39 l-127 0 q-39 0 -39 39 l0 127 l-47 201 l-328 0 l-45 -193 l0 -135 q0 -39 -39 -39 l-127 0 q-39 0 -39 39 ZM293 1446 q0 24 18 45 l148 158 q20 20 49 20 l67 0 q30 0 50 -20 l147 -158 q19 -22 19 -49 q0 -35 -39 -35 l-41 0 q-29 0 -47 18 l-121 103 l-123 -103 q-18 -18 -47 -18 l-41 0 q-39 0 -39 39 ZM422 555 l242 0 l-121 526 l-121 -526 Z" /><glyph glyph-name="Atilde" unicode="ã" d="M129 39 l0 106 q0 24 6 48 l268 1085 q9 33 43 33 l193 0 q34 0 43 -33 l270 -1085 q6 -24 6 -48 l0 -106 q0 -39 -38 -39 l-127 0 q-39 0 -39 39 l0 127 l-47 201 l-328 0 l-45 -193 l0 -135 q0 -39 -39 -39 l-127 0 q-39 0 -39 39 ZM240 1532 q24 60 72.5 95.5 q48.5 35.5 111.5 35.5 q83 0 158 -61 q31 -26 51 -36 q20 -10 45 -10 q41 0 67 37 q22 28 50 21 l26 -8 q41 -10 25 -47 q-24 -61 -71.5 -97.5 q-47.5 -36.5 -110.5 -36.5 q-49 0 -84.5 15.5 q-35.5 15.5 -75.5 46.5 q-31 27 -50.5 36 q-19.5 9 -45.5 9 q-42 0 -68 -37 q-21 -27 -49 -20 l-27 8 q-39 12 -24 49 ZM422 555 l242 0 l-121 526 l-121 -526 Z" /><glyph glyph-name="Adieresis" unicode="ä" d="M129 39 l0 106 q0 24 6 48 l268 1085 q9 33 43 33 l193 0 q34 0 43 -33 l270 -1085 q6 -24 6 -48 l0 -106 q0 -39 -38 -39 l-127 0 q-39 0 -39 39 l0 127 l-47 201 l-328 0 l-45 -193 l0 -135 q0 -39 -39 -39 l-127 0 q-39 0 -39 39 ZM264 1483 l0 119 q0 38 39 38 l121 0 q39 0 39 -38 l0 -119 q0 -39 -39 -39 l-121 0 q-39 0 -39 39 ZM422 555 l242 0 l-121 526 l-121 -526 ZM623 1483 l0 119 q0 38 39 38 l120 0 q39 0 39 -38 l0 -119 q0 -39 -39 -39 l-120 0 q-39 0 -39 39 Z" /><glyph glyph-name="Aring" unicode="å" d="M129 39 l0 106 q0 24 6 48 l268 1085 q9 33 43 33 l193 0 q34 0 43 -33 l270 -1085 q6 -24 6 -48 l0 -106 q0 -39 -38 -39 l-127 0 q-39 0 -39 39 l0 127 l-47 201 l-328 0 l-45 -193 l0 -135 q0 -39 -39 -39 l-127 0 q-39 0 -39 39 ZM409 1443.5 q-53 50.5 -53 127.5 q0 77 50.5 129.5 q50.5 52.5 136.5 52.5 q86 0 136 -52.5 q50 -52.5 50 -129.5 q0 -76 -53 -127 q-53 -51 -133 -51 q-81 0 -134 50.5 ZM422 555 l242 0 l-121 526 l-121 -526 ZM463 1573 q0 -32 23 -55 q23 -23 57 -23 q33 0 55.5 22.5 q22.5 22.5 22.5 55.5 q0 34 -22 56 q-22 22 -56 22 q-34 0 -57 -22 q-23 -22 -23 -56 Z" /><glyph glyph-name="AE" unicode="æ" d="M90 39 l0 106 q0 24 6 48 l273 1085 q9 33 43 33 l514 0 q39 0 39 -39 l0 -111 q0 -39 -39 -39 l-209 0 l0 -372 l135 0 q39 0 39 -39 l0 -111 q0 -39 -39 -39 l-135 0 l0 -373 l209 0 q39 0 39 -38 l0 -111 q0 -39 -39 -39 l-359 0 q-39 0 -39 39 l0 328 l-188 0 l-45 -193 l0 -135 q0 -39 -39 -39 l-127 0 q-39 0 -39 39 ZM385 555 l143 0 l0 608 l-143 -608 Z" /><glyph glyph-name="Ccedilla" unicode="ç" d="M141 362 l0 588 q0 183 100.5 282 q100.5 99 301.5 99 q202 0 301.5 -98.5 q99.5 -98.5 99.5 -282.5 l0 -16 q0 -39 -39 -39 l-127 0 q-39 0 -39 39 l0 31 q0 178 -196 178 q-197 0 -197 -178 l0 -619 q0 -178 197 -178 q196 0 196 178 l0 31 q0 39 39 39 l127 0 q39 0 39 -39 l0 -15 q0 -156 -73 -252 q-73 -96 -220 -122 q37 -34 37 -101 l0 -24 q0 -135 -145 -135 q-119 0 -142 86 q-4 20 6 30.5 q10 10.5 31 10.5 l33 0 q9 0 15 -3 q6 -3 14 -10.5 q8 -7.5 14 -11.5 q9 -6 29 -6 q41 0 41 39 l0 24 q0 35 -41 35 l-27 0 q-39 0 -39 39 l0 21 q-168 17 -252 115 q-84 98 -84 265 Z" /><glyph glyph-name="Egrave" unicode="è" d="M180 39 l0 1233 q0 39 39 39 l649 0 q39 0 39 -39 l0 -111 q0 -39 -39 -39 l-483 0 l0 -372 l381 0 q39 0 39 -39 l0 -111 q0 -39 -39 -39 l-381 0 l0 -373 l483 0 q39 0 39 -38 l0 -111 q0 -39 -39 -39 l-649 0 q-39 0 -39 39 ZM373 1630 q0 39 39 39 l127 0 q31 0 47 -24 l110 -150 q17 -23 17 -49 q0 -39 -39 -39 l-72 0 q-29 0 -49 20 l-160 154 q-20 20 -20 49 Z" /><glyph glyph-name="Eacute" unicode="é" d="M180 39 l0 1233 q0 39 39 39 l649 0 q39 0 39 -39 l0 -111 q0 -39 -39 -39 l-483 0 l0 -372 l381 0 q39 0 39 -39 l0 -111 q0 -39 -39 -39 l-381 0 l0 -373 l483 0 q39 0 39 -38 l0 -111 q0 -39 -39 -39 l-649 0 q-39 0 -39 39 ZM375 1446 q0 28 16 49 l109 150 q18 24 49 24 l125 0 q39 0 39 -39 q0 -28 -21 -49 l-160 -154 q-20 -20 -49 -20 l-69 0 q-39 0 -39 39 Z" /><glyph glyph-name="Ecircumflex" unicode="ê" d="M180 39 l0 1233 q0 39 39 39 l649 0 q39 0 39 -39 l0 -111 q0 -39 -39 -39 l-483 0 l0 -372 l381 0 q39 0 39 -39 l0 -111 q0 -39 -39 -39 l-381 0 l0 -373 l483 0 q39 0 39 -38 l0 -111 q0 -39 -39 -39 l-649 0 q-39 0 -39 39 ZM293 1446 q0 24 18 45 l148 158 q20 20 49 20 l67 0 q30 0 50 -20 l147 -158 q19 -22 19 -49 q0 -35 -39 -35 l-41 0 q-29 0 -47 18 l-121 103 l-123 -103 q-18 -18 -47 -18 l-41 0 q-39 0 -39 39 Z" /><glyph glyph-name="Edieresis" unicode="ë" d="M180 39 l0 1233 q0 39 39 39 l649 0 q39 0 39 -39 l0 -111 q0 -39 -39 -39 l-483 0 l0 -372 l381 0 q39 0 39 -39 l0 -111 q0 -39 -39 -39 l-381 0 l0 -373 l483 0 q39 0 39 -38 l0 -111 q0 -39 -39 -39 l-649 0 q-39 0 -39 39 ZM264 1483 l0 119 q0 38 39 38 l121 0 q39 0 39 -38 l0 -119 q0 -39 -39 -39 l-121 0 q-39 0 -39 39 ZM623 1483 l0 119 q0 38 39 38 l120 0 q39 0 39 -38 l0 -119 q0 -39 -39 -39 l-120 0 q-39 0 -39 39 Z" /><glyph glyph-name="Igrave" unicode="ì" d="M201 39 l0 111 q0 38 39 38 l200 0 l0 934 l-200 0 q-39 0 -39 39 l0 111 q0 39 39 39 l608 0 q39 0 39 -39 l0 -111 q0 -39 -39 -39 l-203 0 l0 -934 l203 0 q39 0 39 -38 l0 -111 q0 -39 -39 -39 l-608 0 q-39 0 -39 39 ZM373 1630 q0 39 39 39 l127 0 q31 0 47 -24 l110 -150 q17 -23 17 -49 q0 -39 -39 -39 l-72 0 q-29 0 -49 20 l-160 154 q-20 20 -20 49 Z" /><glyph glyph-name="Iacute" unicode="í" d="M201 39 l0 111 q0 38 39 38 l200 0 l0 934 l-200 0 q-39 0 -39 39 l0 111 q0 39 39 39 l608 0 q39 0 39 -39 l0 -111 q0 -39 -39 -39 l-203 0 l0 -934 l203 0 q39 0 39 -38 l0 -111 q0 -39 -39 -39 l-608 0 q-39 0 -39 39 ZM375 1446 q0 28 16 49 l109 150 q18 24 49 24 l125 0 q39 0 39 -39 q0 -28 -21 -49 l-160 -154 q-20 -20 -49 -20 l-69 0 q-39 0 -39 39 Z" /><glyph glyph-name="Icircumflex" unicode="î" d="M201 39 l0 111 q0 38 39 38 l200 0 l0 934 l-200 0 q-39 0 -39 39 l0 111 q0 39 39 39 l608 0 q39 0 39 -39 l0 -111 q0 -39 -39 -39 l-203 0 l0 -934 l203 0 q39 0 39 -38 l0 -111 q0 -39 -39 -39 l-608 0 q-39 0 -39 39 ZM293 1446 q0 24 18 45 l148 158 q20 20 49 20 l67 0 q30 0 50 -20 l147 -158 q19 -22 19 -49 q0 -35 -39 -35 l-41 0 q-29 0 -47 18 l-121 103 l-123 -103 q-18 -18 -47 -18 l-41 0 q-39 0 -39 39 Z" /><glyph glyph-name="Idieresis" unicode="ï" d="M201 39 l0 111 q0 38 39 38 l200 0 l0 934 l-200 0 q-39 0 -39 39 l0 111 q0 39 39 39 l608 0 q39 0 39 -39 l0 -111 q0 -39 -39 -39 l-203 0 l0 -934 l203 0 q39 0 39 -38 l0 -111 q0 -39 -39 -39 l-608 0 q-39 0 -39 39 ZM264 1483 l0 119 q0 38 39 38 l121 0 q39 0 39 -38 l0 -119 q0 -39 -39 -39 l-121 0 q-39 0 -39 39 ZM623 1483 l0 119 q0 38 39 38 l120 0 q39 0 39 -38 l0 -119 q0 -39 -39 -39 l-120 0 q-39 0 -39 39 Z" /><glyph glyph-name="Eth" unicode="ð" d="M59 610 l0 111 q0 39 39 39 l43 0 l0 512 q0 39 39 39 l363 0 q202 0 301.5 -98.5 q99.5 -98.5 99.5 -282.5 l0 -547 q0 -184 -100 -283.5 q-100 -99.5 -301 -99.5 l-363 0 q-39 0 -39 39 l0 532 l-43 0 q-39 0 -39 39 ZM346 188 l197 0 q196 0 196 179 l0 577 q0 178 -196 178 l-197 0 l0 -362 l150 0 q39 0 39 -39 l0 -111 q0 -39 -39 -39 l-150 0 l0 -383 Z" /><glyph glyph-name="Ntilde" unicode="ñ" d="M141 39 l0 1233 q0 39 39 39 l84 0 q30 0 45 -29 l430 -842 l0 832 q0 39 39 39 l127 0 q39 0 39 -39 l0 -1233 q0 -39 -39 -39 l-84 0 q-31 0 -45 29 l-430 841 l0 -831 q0 -39 -39 -39 l-127 0 q-39 0 -39 39 ZM240 1532 q24 60 72.5 95.5 q48.5 35.5 111.5 35.5 q83 0 158 -61 q31 -26 51 -36 q20 -10 45 -10 q41 0 67 37 q22 28 50 21 l26 -8 q41 -10 25 -47 q-24 -61 -71.5 -97.5 q-47.5 -36.5 -110.5 -36.5 q-49 0 -84.5 15.5 q-35.5 15.5 -75.5 46.5 q-31 27 -50.5 36 q-19.5 9 -45.5 9 q-42 0 -68 -37 q-21 -27 -49 -20 l-27 8 q-39 12 -24 49 Z" /><glyph glyph-name="Ograve" unicode="ò" d="M141 362 l0 588 q0 183 100.5 282 q100.5 99 301.5 99 q202 0 301.5 -98.5 q99.5 -98.5 99.5 -282.5 l0 -588 q0 -184 -100 -283 q-100 -99 -301 -99 q-200 0 -301 99.5 q-101 99.5 -101 282.5 ZM346 346 q0 -178 197 -178 q196 0 196 178 l0 619 q0 178 -196 178 q-197 0 -197 -178 l0 -619 ZM373 1630 q0 39 39 39 l127 0 q31 0 47 -24 l110 -150 q17 -23 17 -49 q0 -39 -39 -39 l-72 0 q-29 0 -49 20 l-160 154 q-20 20 -20 49 Z" /><glyph glyph-name="Oacute" unicode="ó" d="M141 362 l0 588 q0 183 100.5 282 q100.5 99 301.5 99 q202 0 301.5 -98.5 q99.5 -98.5 99.5 -282.5 l0 -588 q0 -184 -100 -283 q-100 -99 -301 -99 q-200 0 -301 99.5 q-101 99.5 -101 282.5 ZM346 346 q0 -178 197 -178 q196 0 196 178 l0 619 q0 178 -196 178 q-197 0 -197 -178 l0 -619 ZM375 1446 q0 28 16 49 l109 150 q18 24 49 24 l125 0 q39 0 39 -39 q0 -28 -21 -49 l-160 -156 q-21 -18 -49 -18 l-69 0 q-39 0 -39 39 Z" /><glyph glyph-name="Ocircumflex" unicode="ô" d="M141 362 l0 588 q0 183 100.5 282 q100.5 99 301.5 99 q202 0 301.5 -98.5 q99.5 -98.5 99.5 -282.5 l0 -588 q0 -184 -100 -283 q-100 -99 -301 -99 q-200 0 -301 99.5 q-101 99.5 -101 282.5 ZM293 1446 q0 24 18 45 l148 158 q20 20 49 20 l67 0 q30 0 50 -20 l147 -158 q19 -22 19 -49 q0 -35 -39 -35 l-41 0 q-29 0 -47 18 l-121 103 l-123 -103 q-18 -18 -47 -18 l-41 0 q-39 0 -39 39 ZM346 346 q0 -178 197 -178 q196 0 196 178 l0 619 q0 178 -196 178 q-197 0 -197 -178 l0 -619 Z" /><glyph glyph-name="Otilde" unicode="õ" d="M141 362 l0 588 q0 183 100.5 282 q100.5 99 301.5 99 q202 0 301.5 -98.5 q99.5 -98.5 99.5 -282.5 l0 -588 q0 -184 -100 -283 q-100 -99 -301 -99 q-200 0 -301 99.5 q-101 99.5 -101 282.5 ZM240 1532 q24 60 72.5 95.5 q48.5 35.5 111.5 35.5 q83 0 158 -61 q31 -26 51 -36 q20 -10 45 -10 q41 0 67 37 q22 28 50 21 l26 -8 q41 -10 25 -47 q-24 -61 -71.5 -97.5 q-47.5 -36.5 -110.5 -36.5 q-49 0 -84.5 15.5 q-35.5 15.5 -75.5 46.5 q-31 27 -50.5 36 q-19.5 9 -45.5 9 q-42 0 -68 -37 q-21 -27 -49 -20 l-27 8 q-39 12 -24 49 ZM346 346 q0 -178 197 -178 q196 0 196 178 l0 619 q0 178 -196 178 q-197 0 -197 -178 l0 -619 Z" /><glyph glyph-name="Odieresis" unicode="ö" d="M141 362 l0 588 q0 183 100.5 282 q100.5 99 301.5 99 q202 0 301.5 -98.5 q99.5 -98.5 99.5 -282.5 l0 -588 q0 -184 -100 -283 q-100 -99 -301 -99 q-200 0 -301 99.5 q-101 99.5 -101 282.5 ZM264 1483 l0 119 q0 38 39 38 l121 0 q39 0 39 -38 l0 -119 q0 -39 -39 -39 l-121 0 q-39 0 -39 39 ZM346 346 q0 -178 197 -178 q196 0 196 178 l0 619 q0 178 -196 178 q-197 0 -197 -178 l0 -619 ZM623 1483 l0 119 q0 38 39 38 l120 0 q39 0 39 -38 l0 -119 q0 -39 -39 -39 l-120 0 q-39 0 -39 39 Z" /><glyph glyph-name="multiply" unicode="×" d="M201 313 q-12 12 -12 27 q0 15 12 27 l233 233 l-233 234 q-12 12 -12 26.5 q0 14.5 12 26.5 l55 55 q26 29 55 0 l232 -231 l233 233 q26 26 53 0 l58 -57 q12 -12 12 -26.5 q0 -14.5 -12 -26.5 l-234 -234 l234 -233 q12 -12 11.5 -27 q-0.5 -15 -13.5 -27 l-56 -55 q-27 -26 -53 0 l-233 234 l-234 -234 q-27 -26 -53 0 l-55 55 Z" /><glyph glyph-name="Oslash" unicode="ø" d="M141 362 l0 588 q0 183 100.5 282 q100.5 99 301.5 99 q66 0 110 -8 l6 16 q9 33 43 33 l64 0 q22 0 30.5 -11.5 q8.5 -11.5 2.5 -31.5 l-15 -51 q160 -92 160 -328 l0 -588 q0 -184 -100 -283 q-100 -99 -301 -99 q-45 0 -111 8 l-6 -17 q-8 -32 -43 -32 l-64 0 q-45 0 -32 43 l14 53 q-160 90 -160 327 ZM346 346 q0 -48 16 -88 l242 881 q-36 4 -61 4 q-197 0 -197 -178 l0 -619 ZM481 174 q27 -6 62 -6 q196 0 196 178 l0 619 q0 48 -16 88 l-242 -879 Z" /><glyph glyph-name="Ugrave" unicode="ù" d="M141 362 l0 910 q0 39 39 39 l127 0 q39 0 39 -39 l0 -926 q0 -178 197 -178 q196 0 196 178 l0 926 q0 39 39 39 l127 0 q39 0 39 -39 l0 -910 q0 -184 -100 -283 q-100 -99 -301 -99 q-200 0 -301 99.5 q-101 99.5 -101 282.5 ZM373 1630 q0 39 39 39 l127 0 q31 0 47 -24 l110 -150 q17 -23 17 -49 q0 -39 -39 -39 l-72 0 q-29 0 -49 20 l-160 154 q-20 20 -20 49 Z" /><glyph glyph-name="Uacute" unicode="ú" d="M141 362 l0 910 q0 39 39 39 l127 0 q39 0 39 -39 l0 -926 q0 -178 197 -178 q196 0 196 178 l0 926 q0 39 39 39 l127 0 q39 0 39 -39 l0 -910 q0 -184 -100 -283 q-100 -99 -301 -99 q-200 0 -301 99.5 q-101 99.5 -101 282.5 ZM375 1446 q0 28 16 49 l109 150 q18 24 49 24 l125 0 q39 0 39 -39 q0 -28 -21 -49 l-160 -156 q-21 -18 -49 -18 l-69 0 q-39 0 -39 39 Z" /><glyph glyph-name="Ucircumflex" unicode="û" d="M141 362 l0 910 q0 39 39 39 l127 0 q39 0 39 -39 l0 -926 q0 -178 197 -178 q196 0 196 178 l0 926 q0 39 39 39 l127 0 q39 0 39 -39 l0 -910 q0 -184 -100 -283 q-100 -99 -301 -99 q-200 0 -301 99.5 q-101 99.5 -101 282.5 ZM293 1446 q0 24 18 45 l148 158 q20 20 49 20 l67 0 q30 0 50 -20 l147 -158 q19 -22 19 -49 q0 -35 -39 -35 l-41 0 q-29 0 -47 18 l-121 103 l-123 -103 q-18 -18 -47 -18 l-41 0 q-39 0 -39 39 Z" /><glyph glyph-name="Udieresis" unicode="ü" d="M141 362 l0 910 q0 39 39 39 l127 0 q39 0 39 -39 l0 -926 q0 -178 197 -178 q196 0 196 178 l0 926 q0 39 39 39 l127 0 q39 0 39 -39 l0 -910 q0 -184 -100 -283 q-100 -99 -301 -99 q-200 0 -301 99.5 q-101 99.5 -101 282.5 ZM264 1483 l0 119 q0 38 39 38 l121 0 q39 0 39 -38 l0 -119 q0 -39 -39 -39 l-121 0 q-39 0 -39 39 ZM623 1483 l0 119 q0 38 39 38 l120 0 q39 0 39 -38 l0 -119 q0 -39 -39 -39 l-120 0 q-39 0 -39 39 Z" /><glyph glyph-name="Yacute" unicode="ý" d="M135 1098 l0 174 q0 39 39 39 l127 0 q39 0 39 -39 l0 -158 l203 -407 l202 407 l0 158 q0 39 39 39 l127 0 q39 0 39 -39 l0 -174 q0 -25 -12 -49 l-293 -547 l0 -463 q0 -39 -39 -39 l-127 0 q-39 0 -39 39 l0 463 l-293 547 q-12 24 -12 49 ZM375 1446 q0 28 16 49 l109 150 q18 24 49 24 l125 0 q39 0 39 -39 q0 -28 -21 -49 l-160 -154 q-20 -20 -49 -20 l-69 0 q-39 0 -39 39 Z" /><glyph glyph-name="Thorn" unicode="þ" d="M141 39 l0 1233 q0 39 39 39 l127 0 q39 0 39 -39 l0 -232 l197 0 q202 0 301.5 -98 q99.5 -98 99.5 -280 q0 -182 -100 -280.5 q-100 -98.5 -301 -98.5 l-197 0 l0 -244 q0 -39 -39 -39 l-127 0 q-39 0 -39 39 ZM346 471 l197 0 q196 0 196 174 l0 33 q0 174 -196 174 l-197 0 l0 -381 Z" /><glyph glyph-name="germandbls" unicode="ß" d="M152 39 l0 909 q0 181 93.5 280 q93.5 99 272.5 99 q183 0 279 -103 q96 -103 96 -282 q0 -171 -96 -254 q147 -87 147 -307 q0 -194 -98 -297.5 q-98 -103.5 -283 -103.5 q-43 0 -78 6 q-35 3 -32 43 l12 108 q3 39 43 33 q8 0 25 -1 q17 -1 28 -1 q184 0 184 213 q0 103 -44 153 q-44 50 -134 58 q-39 3 -39 41 l0 94 q0 36 39 39 q66 9 96.5 51.5 q30.5 42.5 30.5 124.5 q0 98 -46 147.5 q-46 49.5 -130 49.5 q-74 0 -118 -44 q-44 -44 -44 -130 l0 -926 q0 -39 -39 -39 l-127 0 q-38 0 -38 39 Z" /><glyph glyph-name="agrave" unicode="à" d="M141 256 l0 8 q0 137 98.5 207 q98.5 70 278.5 70 l211 0 l0 71 q0 88 -45 133.5 q-45 45.5 -131 45.5 q-134 0 -174 -82 q-15 -31 -43 -31 l-111 0 q-41 0 -41 20 q5 47 30.5 92.5 q25.5 45.5 71 85 q45.5 39.5 119.5 63.5 q74 24 166 24 q173 0 268 -97.5 q95 -97.5 95 -267.5 l0 -559 q0 -39 -39 -39 l-94 0 q-35 0 -41 35 l-12 55 q-107 -110 -283 -110 q-151 0 -237.5 73 q-86.5 73 -86.5 203 ZM338 268 q0 -56 39.5 -85 q39.5 -29 105.5 -29 q96 0 171 44.5 q75 44.5 75 102.5 l0 90 l-213 0 q-178 0 -178 -115 l0 -8 ZM393 1292 q0 39 39 39 l127 0 q31 0 47 -24 l111 -150 q16 -21 16 -49 q0 -39 -39 -39 l-71 0 q-29 0 -50 21 l-159 153 q-21 21 -21 49 Z" /><glyph glyph-name="aacute" unicode="á" d="M141 256 l0 8 q0 137 98.5 207 q98.5 70 278.5 70 l211 0 l0 71 q0 88 -45 133.5 q-45 45.5 -131 45.5 q-134 0 -174 -82 q-15 -31 -43 -31 l-111 0 q-41 0 -41 20 q5 47 30.5 92.5 q25.5 45.5 71 85 q45.5 39.5 119.5 63.5 q74 24 166 24 q173 0 268 -97.5 q95 -97.5 95 -267.5 l0 -559 q0 -39 -39 -39 l-94 0 q-35 0 -41 35 l-12 55 q-107 -110 -283 -110 q-151 0 -237.5 73 q-86.5 73 -86.5 203 ZM338 268 q0 -56 39.5 -85 q39.5 -29 105.5 -29 q96 0 171 44.5 q75 44.5 75 102.5 l0 90 l-213 0 q-178 0 -178 -115 l0 -8 ZM393 1108 q0 26 17 49 l108 150 q18 24 49 24 l125 0 q39 0 39 -39 q0 -29 -20 -49 l-160 -153 q-21 -21 -49 -21 l-70 0 q-39 0 -39 39 Z" /><glyph glyph-name="acircumflex" unicode="â" d="M141 256 l0 8 q0 137 98.5 207 q98.5 70 278.5 70 l211 0 l0 71 q0 88 -45 133.5 q-45 45.5 -131 45.5 q-134 0 -174 -82 q-15 -31 -43 -31 l-111 0 q-41 0 -41 20 q5 47 30.5 92.5 q25.5 45.5 71 85 q45.5 39.5 119.5 63.5 q74 24 166 24 q173 0 268 -97.5 q95 -97.5 95 -267.5 l0 -559 q0 -39 -39 -39 l-94 0 q-35 0 -41 35 l-12 55 q-107 -110 -283 -110 q-151 0 -237.5 73 q-86.5 73 -86.5 203 ZM313 1108 q0 23 19 45 l147 158 q20 20 49 20 l68 0 q29 0 49 -20 l148 -158 q18 -21 18 -49 q0 -35 -39 -35 l-41 0 q-29 0 -47 18 l-121 103 l-123 -103 q-18 -18 -47 -18 l-41 0 q-39 0 -39 39 ZM338 268 q0 -56 39.5 -85 q39.5 -29 105.5 -29 q96 0 171 44.5 q75 44.5 75 102.5 l0 90 l-213 0 q-178 0 -178 -115 l0 -8 Z" /><glyph glyph-name="atilde" unicode="ã" d="M141 256 l0 8 q0 137 98.5 207 q98.5 70 278.5 70 l211 0 l0 71 q0 88 -45 133.5 q-45 45.5 -131 45.5 q-134 0 -174 -82 q-15 -31 -43 -31 l-111 0 q-41 0 -41 20 q5 47 30.5 92.5 q25.5 45.5 71 85 q45.5 39.5 119.5 63.5 q74 24 166 24 q173 0 268 -97.5 q95 -97.5 95 -267.5 l0 -559 q0 -39 -39 -39 l-94 0 q-35 0 -41 35 l-12 55 q-107 -110 -283 -110 q-151 0 -237.5 73 q-86.5 73 -86.5 203 ZM260 1194 q24 60 72.5 95.5 q48.5 35.5 111.5 35.5 q83 0 158 -61 q31 -26 51 -35.5 q20 -9.5 45 -9.5 q43 0 68 36 q22 28 49 21 l27 -8 q40 -10 24 -47 q-24 -61 -71.5 -97.5 q-47.5 -36.5 -110.5 -36.5 q-49 0 -84.5 15.5 q-35.5 15.5 -75.5 46.5 q-31 27 -50.5 36 q-19.5 9 -45.5 9 q-42 0 -68 -37 q-21 -27 -49 -20 l-26 8 q-40 13 -25 49 ZM338 268 q0 -56 39.5 -85 q39.5 -29 105.5 -29 q96 0 171 44.5 q75 44.5 75 102.5 l0 90 l-213 0 q-178 0 -178 -115 l0 -8 Z" /><glyph glyph-name="adieresis" unicode="ä" d="M141 256 l0 8 q0 137 98.5 207 q98.5 70 278.5 70 l211 0 l0 71 q0 88 -45 133.5 q-45 45.5 -131 45.5 q-134 0 -174 -82 q-15 -31 -43 -31 l-111 0 q-41 0 -41 20 q5 47 30.5 92.5 q25.5 45.5 71 85 q45.5 39.5 119.5 63.5 q74 24 166 24 q173 0 268 -97.5 q95 -97.5 95 -267.5 l0 -559 q0 -39 -39 -39 l-94 0 q-35 0 -41 35 l-12 55 q-107 -110 -283 -110 q-151 0 -237.5 73 q-86.5 73 -86.5 203 ZM285 1145 l0 119 q0 39 39 39 l120 0 q39 0 39 -39 l0 -119 q0 -39 -39 -39 l-120 0 q-39 0 -39 39 ZM338 268 q0 -56 39.5 -85 q39.5 -29 105.5 -29 q96 0 171 44.5 q75 44.5 75 102.5 l0 90 l-213 0 q-178 0 -178 -115 l0 -8 ZM643 1145 l0 119 q0 39 39 39 l121 0 q39 0 39 -39 l0 -119 q0 -39 -39 -39 l-121 0 q-39 0 -39 39 Z" /><glyph glyph-name="aring" unicode="å" d="M141 256 l0 8 q0 137 98.5 207 q98.5 70 278.5 70 l211 0 l0 71 q0 88 -45 133.5 q-45 45.5 -131 45.5 q-134 0 -174 -82 q-15 -31 -43 -31 l-111 0 q-41 0 -41 20 q5 47 30.5 92.5 q25.5 45.5 71 85 q45.5 39.5 119.5 63.5 q74 24 166 24 q173 0 268 -97.5 q95 -97.5 95 -267.5 l0 -559 q0 -39 -39 -39 l-94 0 q-35 0 -41 35 l-12 55 q-107 -110 -283 -110 q-151 0 -237.5 73 q-86.5 73 -86.5 203 ZM338 268 q0 -56 39.5 -85 q39.5 -29 105.5 -29 q96 0 171 44.5 q75 44.5 75 102.5 l0 90 l-213 0 q-178 0 -178 -115 l0 -8 ZM429.5 1105.5 q-52.5 50.5 -52.5 127.5 q0 77 50 129.5 q50 52.5 136 52.5 q86 0 136.5 -52.5 q50.5 -52.5 50.5 -129.5 q0 -76 -53.5 -127 q-53.5 -51 -133.5 -51 q-81 0 -133.5 50.5 ZM483 1235 q0 -32 23 -55 q23 -23 57 -23 q33 0 55.5 22.5 q22.5 22.5 22.5 55.5 q0 34 -22 56 q-22 22 -56 22 q-34 0 -57 -22 q-23 -22 -23 -56 Z" /><glyph glyph-name="ae" unicode="æ" d="M92 270 l0 9 q0 137 76.5 213.5 q76.5 76.5 228.5 76.5 l54 0 l0 13 q0 106 24 186 q-26 23 -69 23 q-79 0 -97 -76 q-6 -37 -41 -37 l-94 0 q-40 0 -37 39 q4 47 21 88.5 q17 41.5 48.5 78 q31.5 36.5 84.5 58 q53 21.5 121 21.5 q100 0 161 -45 q61 45 150 45 q130 0 200 -99.5 q70 -99.5 70 -275.5 l0 -109 q0 -39 -39 -39 l-321 0 l0 -102 q0 -93 20.5 -135.5 q20.5 -42.5 69.5 -42.5 q69 0 86 92 q3 21 12 30 q9 9 27 9 l106 -2 q40 0 37 -39 q-13 -110 -84 -190 q-71 -80 -184 -80 q-118 0 -188 79 q-79 -79 -199 -79 q-124 0 -184 75.5 q-60 75.5 -60 214.5 ZM258 283 q0 -133 107 -133 q63 0 106 40 q-20 70 -20 172 l0 78 l-54 0 q-139 0 -139 -147 l0 -10 ZM633 569 l178 0 l0 37 q0 176 -88 176 q-49 0 -69.5 -42 q-20.5 -42 -20.5 -136 l0 -35 Z" /><glyph glyph-name="ccedilla" unicode="ç" d="M141 362 l0 220 q0 182 101 281.5 q101 99.5 303 99.5 q180 0 281.5 -82 q101.5 -82 115.5 -213 q3 -39 -39 -39 l-127 0 q-32 0 -41 37 q-14 50 -63 79 q-49 29 -127 29 q-199 0 -199 -178 l0 -250 q0 -178 199 -178 q78 0 127 30 q49 30 63 81 q9 34 41 34 l127 0 q42 0 39 -39 q-11 -109 -85 -185.5 q-74 -76.5 -206 -100.5 q37 -34 37 -101 l0 -24 q0 -135 -145 -135 q-119 0 -142 86 q-4 20 6 30.5 q10 10.5 31 10.5 l33 0 q9 0 15 -3 q6 -3 14 -10.5 q8 -7.5 14 -11.5 q9 -6 29 -6 q41 0 41 39 l0 24 q0 35 -41 35 l-27 0 q-39 0 -39 39 l0 23 q-167 15 -251.5 113 q-84.5 98 -84.5 265 Z" /><glyph glyph-name="egrave" unicode="è" d="M141 362 l0 220 q0 182 101 281.5 q101 99.5 301 99.5 q201 0 301 -98.5 q100 -98.5 100 -276.5 l0 -109 q0 -39 -39 -39 l-559 0 l0 -102 q0 -178 197 -178 q77 0 126.5 26.5 q49.5 26.5 63.5 69.5 q12 35 41 35 l129 0 q42 0 39 -39 q-19 -113 -121.5 -192.5 q-102.5 -79.5 -277.5 -79.5 q-200 0 -301 99.5 q-101 99.5 -101 282.5 ZM346 569 l393 0 l0 37 q0 176 -196 176 q-197 0 -197 -178 l0 -35 ZM373 1292 q0 39 39 39 l127 0 q31 0 47 -24 l110 -150 q17 -23 17 -49 q0 -39 -39 -39 l-72 0 q-28 0 -49 21 l-160 153 q-20 20 -20 49 Z" /><glyph glyph-name="eacute" unicode="é" d="M141 362 l0 220 q0 182 101 281.5 q101 99.5 301 99.5 q201 0 301 -98.5 q100 -98.5 100 -276.5 l0 -109 q0 -39 -39 -39 l-559 0 l0 -102 q0 -178 197 -178 q77 0 126.5 26.5 q49.5 26.5 63.5 69.5 q12 35 41 35 l129 0 q42 0 39 -39 q-19 -113 -121.5 -192.5 q-102.5 -79.5 -277.5 -79.5 q-200 0 -301 99.5 q-101 99.5 -101 282.5 ZM346 569 l393 0 l0 37 q0 176 -196 176 q-197 0 -197 -178 l0 -35 ZM375 1108 q0 28 16 49 l109 150 q18 24 49 24 l125 0 q39 0 39 -39 q0 -28 -21 -49 l-160 -153 q-21 -21 -49 -21 l-69 0 q-39 0 -39 39 Z" /><glyph glyph-name="ecircumflex" unicode="ê" d="M141 362 l0 220 q0 182 101 281.5 q101 99.5 301 99.5 q201 0 301 -98.5 q100 -98.5 100 -276.5 l0 -109 q0 -39 -39 -39 l-559 0 l0 -102 q0 -178 197 -178 q77 0 126.5 26.5 q49.5 26.5 63.5 69.5 q12 35 41 35 l129 0 q42 0 39 -39 q-19 -113 -121.5 -192.5 q-102.5 -79.5 -277.5 -79.5 q-200 0 -301 99.5 q-101 99.5 -101 282.5 ZM293 1108 q0 24 18 45 l148 158 q20 20 49 20 l67 0 q30 0 50 -20 l147 -158 q19 -22 19 -49 q0 -35 -39 -35 l-41 0 q-29 0 -47 18 l-121 103 l-123 -103 q-18 -18 -47 -18 l-41 0 q-39 0 -39 39 ZM346 569 l393 0 l0 37 q0 176 -196 176 q-197 0 -197 -178 l0 -35 Z" /><glyph glyph-name="edieresis" unicode="ë" d="M141 362 l0 220 q0 182 101 281.5 q101 99.5 301 99.5 q201 0 301 -98.5 q100 -98.5 100 -276.5 l0 -109 q0 -39 -39 -39 l-559 0 l0 -102 q0 -178 197 -178 q77 0 126.5 26.5 q49.5 26.5 63.5 69.5 q12 35 41 35 l129 0 q42 0 39 -39 q-19 -113 -121.5 -192.5 q-102.5 -79.5 -277.5 -79.5 q-200 0 -301 99.5 q-101 99.5 -101 282.5 ZM264 1145 l0 119 q0 39 39 39 l121 0 q39 0 39 -39 l0 -119 q0 -39 -39 -39 l-121 0 q-39 0 -39 39 ZM346 569 l393 0 l0 37 q0 176 -196 176 q-197 0 -197 -178 l0 -35 ZM623 1145 l0 119 q0 39 39 39 l120 0 q39 0 39 -39 l0 -119 q0 -39 -39 -39 l-120 0 q-39 0 -39 39 Z" /><glyph glyph-name="igrave" unicode="ì" d="M215 39 l0 111 q0 38 39 38 l186 0 l0 566 l-186 0 q-39 0 -39 39 l0 110 q0 39 39 39 l352 0 q39 0 39 -39 l0 -715 l186 0 q39 0 39 -38 l0 -111 q0 -39 -39 -39 l-577 0 q-39 0 -39 39 ZM373 1292 q0 39 39 39 l127 0 q31 0 47 -24 l110 -150 q17 -23 17 -49 q0 -39 -39 -39 l-72 0 q-28 0 -49 21 l-160 153 q-20 20 -20 49 Z" /><glyph glyph-name="iacute" unicode="í" d="M215 39 l0 111 q0 38 39 38 l186 0 l0 566 l-186 0 q-39 0 -39 39 l0 110 q0 39 39 39 l352 0 q39 0 39 -39 l0 -715 l186 0 q39 0 39 -38 l0 -111 q0 -39 -39 -39 l-577 0 q-39 0 -39 39 ZM375 1108 q0 28 16 49 l109 150 q18 24 49 24 l125 0 q39 0 39 -39 q0 -28 -21 -49 l-160 -153 q-21 -21 -49 -21 l-69 0 q-39 0 -39 39 Z" /><glyph glyph-name="icircumflex" unicode="î" d="M215 39 l0 111 q0 38 39 38 l186 0 l0 566 l-186 0 q-39 0 -39 39 l0 110 q0 39 39 39 l352 0 q39 0 39 -39 l0 -715 l186 0 q39 0 39 -38 l0 -111 q0 -39 -39 -39 l-577 0 q-39 0 -39 39 ZM293 1108 q0 24 18 45 l148 158 q20 20 49 20 l67 0 q30 0 50 -20 l147 -158 q19 -22 19 -49 q0 -35 -39 -35 l-41 0 q-29 0 -47 18 l-121 103 l-123 -103 q-18 -18 -47 -18 l-41 0 q-39 0 -39 39 Z" /><glyph glyph-name="idieresis" unicode="ï" d="M215 39 l0 111 q0 38 39 38 l186 0 l0 566 l-186 0 q-39 0 -39 39 l0 110 q0 39 39 39 l352 0 q39 0 39 -39 l0 -715 l186 0 q39 0 39 -38 l0 -111 q0 -39 -39 -39 l-577 0 q-39 0 -39 39 ZM264 1145 l0 119 q0 39 39 39 l121 0 q39 0 39 -39 l0 -119 q0 -39 -39 -39 l-121 0 q-39 0 -39 39 ZM623 1145 l0 119 q0 39 39 39 l120 0 q39 0 39 -39 l0 -119 q0 -39 -39 -39 l-120 0 q-39 0 -39 39 Z" /><glyph glyph-name="eth" unicode="ð" d="M141 362 l0 181 q0 173 101.5 265.5 q101.5 92.5 269.5 92.5 q110 0 193 -59 q-34 109 -115 190 l-150 -69 q-37 -16 -51 20 l-31 72 q-16 36 19 51 l69 33 q-50 28 -139 63 q-36 14 -24 51 l28 88 q12 36 49 27 q170 -55 283 -137 l143 65 q37 16 52 -20 l30 -72 q16 -36 -18 -51 l-80 -37 q174 -205 174 -547 l0 -207 q0 -184 -100 -283 q-100 -99 -301 -99 q-200 0 -301 99.5 q-101 99.5 -101 282.5 ZM346 346 q0 -178 197 -178 q196 0 196 178 l0 211 l0 39 q-22 57 -75.5 87 q-53.5 30 -116.5 30 q-91 0 -146 -48.5 q-55 -48.5 -55 -138.5 l0 -180 Z" /><glyph glyph-name="ntilde" unicode="ñ" d="M152 39 l0 864 q0 39 38 39 l97 0 q35 0 41 -35 l12 -65 q105 121 278 121 q147 0 231.5 -85.5 q84.5 -85.5 84.5 -252.5 l0 -586 q0 -39 -39 -39 l-127 0 q-39 0 -39 39 l0 569 q0 166 -154 166 q-93 0 -156 -54 q-63 -54 -63 -167 l0 -514 q0 -39 -39 -39 l-127 0 q-38 0 -38 39 ZM246 1194 q24 60 72.5 95.5 q48.5 35.5 111.5 35.5 q83 0 158 -61 q31 -26 51 -35.5 q20 -9.5 45 -9.5 q43 0 68 36 q22 28 49 21 l26 -8 q41 -10 25 -47 q-24 -61 -71.5 -97.5 q-47.5 -36.5 -110.5 -36.5 q-49 0 -84.5 15.5 q-35.5 15.5 -75.5 46.5 q-31 27 -50.5 36 q-19.5 9 -45.5 9 q-42 0 -68 -37 q-21 -27 -49 -20 l-27 8 q-39 12 -24 49 Z" /><glyph glyph-name="ograve" unicode="ò" d="M141 362 l0 220 q0 182 101 281.5 q101 99.5 301 99.5 q201 0 301 -99 q100 -99 100 -282 l0 -220 q0 -184 -100 -283 q-100 -99 -301 -99 q-200 0 -301 99.5 q-101 99.5 -101 282.5 ZM346 346 q0 -178 197 -178 q196 0 196 178 l0 250 q0 178 -196 178 q-197 0 -197 -178 l0 -250 ZM371 1292 q0 39 39 39 l127 0 q31 0 47 -24 l110 -150 q17 -23 17 -49 q0 -39 -39 -39 l-72 0 q-28 0 -49 21 l-160 153 q-20 20 -20 49 Z" /><glyph glyph-name="oacute" unicode="ó" d="M141 362 l0 220 q0 182 101 281.5 q101 99.5 301 99.5 q201 0 301 -99 q100 -99 100 -282 l0 -220 q0 -184 -100 -283 q-100 -99 -301 -99 q-200 0 -301 99.5 q-101 99.5 -101 282.5 ZM346 346 q0 -178 197 -178 q196 0 196 178 l0 250 q0 178 -196 178 q-197 0 -197 -178 l0 -250 ZM377 1108 q0 28 16 49 l109 150 q18 24 49 24 l125 0 q39 0 39 -39 q0 -28 -21 -49 l-159 -156 q-21 -18 -50 -18 l-69 0 q-39 0 -39 39 Z" /><glyph glyph-name="ocircumflex" unicode="ô" d="M141 362 l0 220 q0 182 101 281.5 q101 99.5 301 99.5 q201 0 301 -99 q100 -99 100 -282 l0 -220 q0 -184 -100 -283 q-100 -99 -301 -99 q-200 0 -301 99.5 q-101 99.5 -101 282.5 ZM295 1108 q0 24 18 45 l148 158 q20 20 49 20 l68 0 q29 0 49 -20 l147 -158 q19 -22 19 -49 q0 -35 -39 -35 l-41 0 q-29 0 -47 18 l-121 103 l-123 -103 q-18 -18 -47 -18 l-41 0 q-39 0 -39 39 ZM346 346 q0 -178 197 -178 q196 0 196 178 l0 250 q0 178 -196 178 q-197 0 -197 -178 l0 -250 Z" /><glyph glyph-name="otilde" unicode="õ" d="M141 362 l0 220 q0 182 101 281.5 q101 99.5 301 99.5 q201 0 301 -99 q100 -99 100 -282 l0 -220 q0 -184 -100 -283 q-100 -99 -301 -99 q-200 0 -301 99.5 q-101 99.5 -101 282.5 ZM240 1194 q24 60 72.5 95.5 q48.5 35.5 111.5 35.5 q83 0 158 -61 q31 -26 51 -35.5 q20 -9.5 45 -9.5 q42 0 67 36 q22 28 50 21 l26 -8 q41 -10 25 -47 q-24 -61 -71.5 -97.5 q-47.5 -36.5 -110.5 -36.5 q-49 0 -84.5 15.5 q-35.5 15.5 -75.5 46.5 q-31 27 -50.5 36 q-19.5 9 -45.5 9 q-42 0 -68 -37 q-21 -27 -49 -20 l-27 8 q-39 12 -24 49 ZM346 346 q0 -178 197 -178 q196 0 196 178 l0 250 q0 178 -196 178 q-197 0 -197 -178 l0 -250 Z" /><glyph glyph-name="odieresis" unicode="ö" d="M141 362 l0 220 q0 182 101 281.5 q101 99.5 301 99.5 q201 0 301 -99 q100 -99 100 -282 l0 -220 q0 -184 -100 -283 q-100 -99 -301 -99 q-200 0 -301 99.5 q-101 99.5 -101 282.5 ZM264 1145 l0 119 q0 39 39 39 l121 0 q39 0 39 -39 l0 -119 q0 -39 -39 -39 l-121 0 q-39 0 -39 39 ZM346 346 q0 -178 197 -178 q196 0 196 178 l0 250 q0 178 -196 178 q-197 0 -197 -178 l0 -250 ZM623 1145 l0 119 q0 39 39 39 l120 0 q39 0 39 -39 l0 -119 q0 -39 -39 -39 l-120 0 q-39 0 -39 39 Z" /><glyph glyph-name="divide" unicode="÷" d="M160 563 l0 74 q0 39 39 39 l690 0 q39 0 39 -39 l0 -74 q0 -39 -39 -39 l-690 0 q-39 0 -39 39 ZM459 250 l0 92 q0 39 39 39 l92 0 q39 0 39 -39 l0 -92 q0 -39 -39 -39 l-92 0 q-39 0 -39 39 ZM459 858 l0 92 q0 39 39 39 l92 0 q39 0 39 -39 l0 -92 q0 -39 -39 -39 l-92 0 q-39 0 -39 39 Z" /><glyph glyph-name="oslash" unicode="ø" d="M141 362 l0 220 q0 182 101 281.5 q101 99.5 301 99.5 q13 0 71 -5 l4 13 q9 33 44 33 l47 0 q45 0 32 -43 l-8 -29 q211 -78 211 -350 l0 -220 q0 -184 -100 -283 q-100 -99 -301 -99 q-24 0 -70 4 l-4 -13 q-8 -32 -43 -32 l-47 0 q-22 0 -30.5 11.5 q-8.5 11.5 -2.5 31.5 l8 28 q-106 39 -159.5 129.5 q-53.5 90.5 -53.5 222.5 ZM346 346 q0 -96 62 -143 l155 571 l-20 0 q-197 0 -197 -178 l0 -250 ZM524 168 l19 0 q196 0 196 178 l0 250 q0 97 -59 141 l-156 -569 Z" /><glyph glyph-name="ugrave" unicode="ù" d="M152 317 l0 586 q0 39 38 39 l127 0 q39 0 39 -39 l0 -569 q0 -166 154 -166 q93 0 156 54 q63 54 63 167 l0 514 q0 39 39 39 l127 0 q39 0 39 -39 l0 -864 q0 -39 -39 -39 l-94 0 q-35 0 -41 35 l-12 65 q-105 -120 -279 -120 q-149 0 -233 85 q-84 85 -84 252 ZM373 1292 q0 39 39 39 l127 0 q31 0 47 -24 l110 -150 q17 -23 17 -49 q0 -39 -39 -39 l-72 0 q-28 0 -49 21 l-160 153 q-20 20 -20 49 Z" /><glyph glyph-name="uacute" unicode="ú" d="M152 317 l0 586 q0 39 38 39 l127 0 q39 0 39 -39 l0 -569 q0 -166 154 -166 q93 0 156 54 q63 54 63 167 l0 514 q0 39 39 39 l127 0 q39 0 39 -39 l0 -864 q0 -39 -39 -39 l-94 0 q-35 0 -41 35 l-12 65 q-105 -120 -279 -120 q-149 0 -233 85 q-84 85 -84 252 ZM375 1108 q0 28 16 49 l109 150 q18 24 49 24 l125 0 q39 0 39 -39 q0 -28 -21 -49 l-160 -153 q-21 -21 -49 -21 l-69 0 q-39 0 -39 39 Z" /><glyph glyph-name="ucircumflex" unicode="û" d="M152 317 l0 586 q0 39 38 39 l127 0 q39 0 39 -39 l0 -569 q0 -166 154 -166 q93 0 156 54 q63 54 63 167 l0 514 q0 39 39 39 l127 0 q39 0 39 -39 l0 -864 q0 -39 -39 -39 l-94 0 q-35 0 -41 35 l-12 65 q-105 -120 -279 -120 q-149 0 -233 85 q-84 85 -84 252 ZM293 1108 q0 24 18 45 l148 158 q20 20 49 20 l67 0 q30 0 50 -20 l147 -158 q19 -22 19 -49 q0 -35 -39 -35 l-41 0 q-29 0 -47 18 l-121 103 l-123 -103 q-18 -18 -47 -18 l-41 0 q-39 0 -39 39 Z" /><glyph glyph-name="udieresis" unicode="ü" d="M152 317 l0 586 q0 39 38 39 l127 0 q39 0 39 -39 l0 -569 q0 -166 154 -166 q93 0 156 54 q63 54 63 167 l0 514 q0 39 39 39 l127 0 q39 0 39 -39 l0 -864 q0 -39 -39 -39 l-94 0 q-35 0 -41 35 l-12 65 q-105 -120 -279 -120 q-149 0 -233 85 q-84 85 -84 252 ZM264 1145 l0 119 q0 39 39 39 l121 0 q39 0 39 -39 l0 -119 q0 -39 -39 -39 l-121 0 q-39 0 -39 39 ZM623 1145 l0 119 q0 39 39 39 l120 0 q39 0 39 -39 l0 -119 q0 -39 -39 -39 l-120 0 q-39 0 -39 39 Z" /><glyph glyph-name="yacute" unicode="ý" d="M125 799 l0 104 q0 39 39 39 l127 0 q39 0 39 -39 l0 -123 l213 -544 l213 544 l0 123 q0 39 39 39 l127 0 q39 0 39 -39 l0 -104 q0 -25 -11 -47 l-407 -967 q-12 -31 -45 -31 l-103 0 q-23 0 -31 12.5 q-8 12.5 1 32.5 l81 207 l-311 746 q-10 20 -10 47 ZM375 1108 q0 28 16 49 l109 150 q18 24 49 24 l125 0 q39 0 39 -39 q0 -28 -21 -49 l-160 -153 q-21 -21 -49 -21 l-69 0 q-39 0 -39 39 Z" /><glyph glyph-name="thorn" unicode="þ" d="M152 -207 l0 1479 q0 39 38 39 l127 0 q39 0 39 -39 l0 -404 q101 95 244 95 q154 0 249 -93 q95 -93 95 -266 l0 -266 q0 -173 -95 -265.5 q-95 -92.5 -249 -92.5 q-145 0 -244 96 l0 -283 q0 -39 -39 -39 l-127 0 q-38 0 -38 39 ZM356 354 q0 -89 60.5 -137.5 q60.5 -48.5 146.5 -48.5 q77 0 126.5 48.5 q49.5 48.5 49.5 137.5 l0 234 q0 89 -49.5 137.5 q-49.5 48.5 -126.5 48.5 q-86 0 -146.5 -48 q-60.5 -48 -60.5 -138 l0 -234 Z" /><glyph glyph-name="ydieresis" unicode="ÿ" d="M125 799 l0 104 q0 39 39 39 l127 0 q39 0 39 -39 l0 -123 l213 -544 l213 544 l0 123 q0 39 39 39 l127 0 q39 0 39 -39 l0 -104 q0 -25 -11 -47 l-407 -967 q-12 -31 -45 -31 l-103 0 q-23 0 -31 12.5 q-8 12.5 1 32.5 l81 207 l-311 746 q-10 20 -10 47 ZM264 1145 l0 119 q0 39 39 39 l121 0 q39 0 39 -39 l0 -119 q0 -39 -39 -39 l-121 0 q-39 0 -39 39 ZM623 1145 l0 119 q0 39 39 39 l120 0 q39 0 39 -39 l0 -119 q0 -39 -39 -39 l-120 0 q-39 0 -39 39 Z" /><glyph glyph-name="OE" unicode="&#x152;" d="M141 383 l0 547 q0 184 96 282.5 q96 98.5 291 98.5 l398 0 q39 0 39 -39 l0 -111 q0 -39 -39 -39 l-209 0 l0 -372 l135 0 q39 0 39 -39 l0 -111 q0 -39 -39 -39 l-135 0 l0 -373 l209 0 q39 0 39 -38 l0 -111 q0 -39 -39 -39 l-398 0 q-195 0 -291 99.5 q-96 99.5 -96 283.5 ZM346 367 q0 -179 182 -179 l0 934 q-91 0 -136.5 -43 q-45.5 -43 -45.5 -135 l0 -577 Z" /><glyph glyph-name="oe" unicode="&#x153;" d="M92 362 l0 220 q0 182 70.5 281.5 q70.5 99.5 210.5 99.5 q101 0 170 -56 q65 56 170 56 q137 0 208.5 -99 q71.5 -99 71.5 -276 l0 -109 q0 -39 -39 -39 l-340 0 l0 -102 q0 -93 22.5 -135.5 q22.5 -42.5 76.5 -42.5 q79 0 96 94 q6 37 39 37 l106 -2 q40 0 37 -39 q-13 -111 -85.5 -190.5 q-72.5 -79.5 -192.5 -79.5 q-103 0 -172 57 q-70 -57 -168 -57 q-140 0 -210.5 99.5 q-70.5 99.5 -70.5 282.5 ZM274 338 q0 -93 22.5 -135.5 q22.5 -42.5 76.5 -42.5 q54 0 76 43 q-17 80 -17 159 l0 220 q0 78 17 155 q-23 45 -76 45 q-54 0 -76.5 -42 q-22.5 -42 -22.5 -136 l0 -266 ZM614 569 l197 0 l0 37 q0 92 -23 134 q-23 42 -75 42 q-54 0 -76.5 -42 q-22.5 -42 -22.5 -136 l0 -35 Z" /><glyph glyph-name="Ydieresis" unicode="&#x178;" d="M135 1098 l0 174 q0 39 39 39 l127 0 q39 0 39 -39 l0 -158 l203 -407 l202 407 l0 158 q0 39 39 39 l127 0 q39 0 39 -39 l0 -174 q0 -25 -12 -49 l-293 -547 l0 -463 q0 -39 -39 -39 l-127 0 q-39 0 -39 39 l0 463 l-293 547 q-12 24 -12 49 ZM264 1483 l0 119 q0 38 39 38 l121 0 q39 0 39 -38 l0 -119 q0 -39 -39 -39 l-121 0 q-39 0 -39 39 ZM623 1483 l0 119 q0 38 39 38 l120 0 q39 0 39 -38 l0 -119 q0 -39 -39 -39 l-120 0 q-39 0 -39 39 Z" /><glyph glyph-name="circumflex" unicode="&#x2c6;" d="M295 1108 q0 24 18 45 l148 158 q20 20 49 20 l68 0 q29 0 49 -20 l147 -158 q19 -22 19 -49 q0 -35 -39 -35 l-41 0 q-29 0 -47 18 l-121 103 l-123 -103 q-18 -18 -47 -18 l-41 0 q-39 0 -39 39 Z" /><glyph glyph-name="tilde" unicode="&#x2dc;" d="M240 1194 q24 60 72.5 95.5 q48.5 35.5 111.5 35.5 q83 0 158 -61 q31 -26 51 -35.5 q20 -9.5 45 -9.5 q42 0 67 36 q22 28 50 21 l26 -8 q41 -10 25 -47 q-24 -61 -71.5 -97.5 q-47.5 -36.5 -110.5 -36.5 q-49 0 -84.5 15.5 q-35.5 15.5 -75.5 46.5 q-31 27 -50.5 36 q-19.5 9 -45.5 9 q-42 0 -68 -37 q-21 -27 -49 -20 l-27 8 q-39 12 -24 49 Z" /><glyph glyph-name="uni2000" unicode="&#x2000;" d="" /><glyph glyph-name="uni2001" unicode="&#x2001;" d="" /><glyph glyph-name="uni2002" unicode="&#x2002;" d="" /><glyph glyph-name="uni2003" unicode="&#x2003;" d="" /><glyph glyph-name="uni2004" unicode="&#x2004;" d="" /><glyph glyph-name="uni2005" unicode="&#x2005;" d="" /><glyph glyph-name="uni2006" unicode="&#x2006;" d="" /><glyph glyph-name="uni2007" unicode="&#x2007;" d="" /><glyph glyph-name="uni2008" unicode="&#x2008;" d="" /><glyph glyph-name="uni2009" unicode="&#x2009;" d="" /><glyph glyph-name="uni200A" unicode="&#x200a;" d="" /><glyph glyph-name="uni2010" unicode="&#x2010;" d="M299 514 l0 90 q0 39 39 39 l410 0 q38 0 38 -39 l0 -90 q0 -39 -38 -39 l-410 0 q-39 0 -39 39 Z" /><glyph glyph-name="uni2011" unicode="&#x2011;" d="M299 514 l0 90 q0 39 39 39 l410 0 q38 0 38 -39 l0 -90 q0 -39 -38 -39 l-410 0 q-39 0 -39 39 Z" /><glyph glyph-name="figuredash" unicode="&#x2012;" d="M299 514 l0 90 q0 39 39 39 l410 0 q38 0 38 -39 l0 -90 q0 -39 -38 -39 l-410 0 q-39 0 -39 39 Z" /><glyph glyph-name="endash" unicode="&#x2013;" d="M184 514 l0 90 q0 39 39 39 l639 0 q39 0 39 -39 l0 -90 q0 -39 -39 -39 l-639 0 q-39 0 -39 39 Z" /><glyph glyph-name="emdash" unicode="&#x2014;" d="M184 524 l0 70 q0 39 39 39 l1725 0 q39 0 39 -39 l0 -70 q0 -39 -39 -39 l-1725 0 q-39 0 -39 39 Z" /><glyph glyph-name="quoteleft" unicode="&#x2018;" d="M412 901 l0 127 q0 26 8 47 l106 277 q12 30 45 30 l43 0 q22 0 30.5 -11.5 q8.5 -11.5 2.5 -31.5 l-59 -215 l47 0 q39 0 39 -39 l0 -184 q0 -39 -39 -39 l-184 0 q-39 0 -39 39 Z" /><glyph glyph-name="quoteright" unicode="&#x2019;" d="M412 1087 l0 185 q0 39 39 39 l184 0 q39 0 39 -39 l0 -125 q0 -26 -8 -47 l-107 -279 q-12 -30 -45 -30 l-43 0 q-21 0 -30 11.5 q-9 11.5 -3 31.5 l62 215 l-49 0 q-39 0 -39 38 Z" /><glyph glyph-name="quotesinglbase" unicode="&#x201a;" d="M412 39 l0 184 q0 39 39 39 l184 0 q39 0 39 -39 l0 -125 q0 -26 -8 -47 l-107 -278 q-12 -31 -45 -31 l-43 0 q-21 0 -30 11.5 q-9 11.5 -3 31.5 l62 215 l-49 0 q-39 0 -39 39 Z" /><glyph glyph-name="quotedblleft" unicode="&#x201c;" d="M227 901 l0 127 q0 23 9 47 l106 277 q12 30 45 30 l43 0 q22 0 30.5 -11.5 q8.5 -11.5 2.5 -31.5 l-60 -215 l48 0 q38 0 38 -39 l0 -184 q0 -39 -38 -39 l-185 0 q-39 0 -39 39 ZM596 901 l0 127 q0 26 8 47 l107 277 q12 30 45 30 l43 0 q45 0 32 -43 l-59 -215 l47 0 q39 0 39 -39 l0 -184 q0 -39 -39 -39 l-184 0 q-39 0 -39 39 Z" /><glyph glyph-name="quotedblright" unicode="&#x201d;" d="M227 1087 l0 185 q0 39 39 39 l185 0 q38 0 38 -39 l0 -125 q0 -26 -8 -47 l-106 -279 q-12 -30 -45 -30 l-43 0 q-21 0 -30 11.5 q-9 11.5 -3 31.5 l61 215 l-49 0 q-39 0 -39 38 ZM596 1087 l0 185 q0 39 39 39 l184 0 q39 0 39 -39 l0 -125 q0 -26 -8 -47 l-107 -279 q-12 -30 -45 -30 l-43 0 q-20 0 -29 11.5 q-9 11.5 -3 31.5 l61 215 l-49 0 q-39 0 -39 38 Z" /><glyph glyph-name="quotedblbase" unicode="&#x201e;" d="M227 39 l0 184 q0 39 39 39 l185 0 q38 0 38 -39 l0 -125 q0 -26 -8 -47 l-106 -278 q-12 -31 -45 -31 l-43 0 q-21 0 -30 11.5 q-9 11.5 -3 31.5 l61 215 l-49 0 q-39 0 -39 39 ZM596 39 l0 184 q0 39 39 39 l184 0 q39 0 39 -39 l0 -125 q0 -26 -8 -47 l-107 -278 q-12 -31 -45 -31 l-43 0 q-20 0 -29 11.5 q-9 11.5 -3 31.5 l61 215 l-49 0 q-39 0 -39 39 Z" /><glyph glyph-name="bullet" unicode="&#x2022;" d="M340 582 q0 83 60 143.5 q60 60.5 143 60.5 q85 0 145 -60 q60 -60 60 -144 q0 -85 -60 -144 q-60 -59 -145 -59 q-84 0 -143.5 59.5 q-59.5 59.5 -59.5 143.5 Z" /><glyph glyph-name="ellipsis" unicode="&#x2026;" d="M100 39 l0 151 q0 39 39 39 l152 0 q39 0 39 -39 l0 -151 q0 -39 -39 -39 l-152 0 q-39 0 -39 39 ZM428 39 l0 151 q0 39 39 39 l151 0 q39 0 39 -39 l0 -151 q0 -39 -39 -39 l-151 0 q-39 0 -39 39 ZM756 39 l0 151 q0 39 39 39 l151 0 q39 0 39 -39 l0 -151 q0 -39 -39 -39 l-151 0 q-39 0 -39 39 Z" /><glyph glyph-name="uni202F" unicode="&#x202f;" d="" /><glyph glyph-name="guilsinglleft" unicode="&#x2039;" d="M309 494 q-15 26 0 53 l252 407 q24 34 53 13 l88 -52 q37 -22 15 -53 l-205 -342 l205 -342 q22 -31 -15 -53 l-88 -51 q-30 -18 -53 14 l-252 406 Z" /><glyph glyph-name="guilsinglright" unicode="&#x203a;" d="M371 178 l204 342 l-204 342 q-21 30 12 53 l88 52 q29 21 53 -13 l254 -407 q15 -27 0 -53 l-254 -406 q-23 -32 -53 -14 l-88 51 q-33 23 -12 53 Z" /><glyph glyph-name="uni205F" unicode="&#x205f;" d="" /><glyph glyph-name="Euro" unicode="&#x20ac;" d="M68 518 l0 47 q0 39 38 39 l35 0 l0 103 l-35 0 q-38 0 -38 38 l0 48 q0 38 38 38 l35 0 l0 119 q0 183 100.5 282 q100.5 99 301.5 99 q202 0 301.5 -98.5 q99.5 -98.5 99.5 -282.5 l0 -16 q0 -39 -39 -39 l-127 0 q-39 0 -39 39 l0 31 q0 178 -196 178 q-197 0 -197 -178 l0 -134 l248 0 q45 0 35 -43 l-11 -47 q-8 -34 -43 -34 l-229 0 l0 -103 l203 0 q41 0 35 -43 l-11 -47 q-8 -35 -43 -35 l-184 0 l0 -133 q0 -178 197 -178 q196 0 196 178 l0 31 q0 39 39 39 l127 0 q39 0 39 -39 l0 -15 q0 -184 -100 -283 q-100 -99 -301 -99 q-200 0 -301 99.5 q-101 99.5 -101 282.5 l0 117 l-35 0 q-38 0 -38 39 Z" /><glyph glyph-name="trademark" unicode="&#x2122;" d="M88 1249 l0 23 q0 39 39 39 l336 0 q39 0 39 -39 l0 -23 q0 -39 -39 -39 l-113 0 l0 -434 q0 -39 -39 -39 l-32 0 q-39 0 -39 39 l0 434 l-113 0 q-39 0 -39 39 ZM557 776 l0 496 q0 39 39 39 l8 0 q32 0 47 -29 l109 -227 l108 227 q14 29 47 29 l7 0 q39 0 39 -39 l0 -496 q0 -39 -39 -39 l-33 0 q-39 0 -39 39 l0 283 l-49 -94 q-15 -29 -45 -29 q-26 0 -41 29 l-49 96 l0 -285 q0 -39 -39 -39 l-31 0 q-39 0 -39 39 Z" /><glyph glyph-name="uni25FC" unicode="&#x25fc;" d="M0 0 l0 942 l942 0 l0 -942 l-942 0 Z" /></font>
</defs>
</svg>
