<?xml version="1.0" encoding="UTF-8" standalone="no"?><!DOCTYPE svg PUBLIC "-//W3C//DTD SVG 1.1//EN" "http://www.w3.org/Graphics/SVG/1.1/DTD/svg11.dtd"><svg width="100%" height="100%" viewBox="0 0 100 100" version="1.1" xmlns="http://www.w3.org/2000/svg" xmlns:xlink="http://www.w3.org/1999/xlink" xml:space="preserve" xmlns:serif="http://www.serif.com/" style="fill-rule:evenodd;clip-rule:evenodd;stroke-linejoin:round;stroke-miterlimit:1.41421;"><g><path d="M21.875,68.75l6.25,0l0,6.25l-6.25,0l0,-6.25Zm50,0l6.25,0l0,6.25l-6.25,0l0,-6.25Zm-6.25,-6.25l-31.25,0l0,6.25l-6.25,0l0,-6.25l-6.25,0l0,-6.25l-6.25,0l0,-6.25l-12.5,0l0,-6.25l25,0l0,-6.25l6.25,0l0,-6.25l6.25,0l0,6.25l18.75,0l0,-6.25l6.25,0l0,6.25l6.25,0l0,6.25l25,0l0,6.25l-12.5,0l0,6.25l-6.25,0l0,6.25l-6.25,0l0,6.25l-6.25,0l0,-6.25Zm-25,-18.75l-6.25,0l0,6.25l6.25,0l0,-6.25Zm18.75,0l0,6.25l6.25,0l0,-6.25l-6.25,0Zm-31.25,-18.75l6.25,0l0,6.25l-6.25,0l0,-6.25Zm37.5,0l6.25,0l0,6.25l-6.25,0l0,-6.25Z" style="fill:#ff9600;"/></g></svg>