<svg xmlns="http://www.w3.org/2000/svg" width="70" height="60" viewBox="0 0 70 60"><title>  thin-0719-group-users-circle</title><desc>  Created with Sketch.</desc><g fill="none"><g fill="#EF224C"><path d="M45.1 52.3C40.4 50.5 39.1 49.6 38.8 49.4L38.8 49.3C39.4 48.6 39.8 47.7 40.2 46.8 40.6 46.3 40.9 45.7 41 45 41.1 44.3 41 43.7 40.7 43.1L40.7 41.2C40.7 37.8 38.5 35.7 34.9 35.7 31.3 35.7 29.1 37.8 29.1 41.2L29.1 43.1C28.8 43.7 28.7 44.3 28.7 45 28.8 45.7 29.1 46.3 29.6 46.8 29.9 47.7 30.4 48.6 30.9 49.3L30.9 49.3C30.5 49.7 29.1 50.6 24.7 52.3 23.8 52.6 23.3 53.5 23.3 54.4L23.3 57C23.3 58.2 24.3 59.2 25.5 59.2L44.3 59.2C45.5 59.2 46.5 58.2 46.5 57L46.5 54.4C46.5 53.5 45.9 52.6 45.1 52.3ZM43.6 56.2L26.2 56.2 26.2 54.8C32.1 52.5 33.4 51.4 33.8 50.2 33.8 50.1 33.8 50 33.8 49.8L33.8 48.8C33.8 48.4 33.7 48 33.4 47.8 32.9 47.2 32.5 46.5 32.3 45.6 32.2 45.2 31.9 44.6 31.7 44.4 31.9 44.2 32 43.8 32 43.5L32 41.2C32 39.4 32.9 38.6 34.9 38.6 36.9 38.6 37.8 39.4 37.8 41.2L37.8 43.5C37.8 43.8 37.8 44.5 38.1 44.8 37.8 45 37.6 45.2 37.5 45.6 37.2 46.5 36.8 47.2 36.3 47.8 36.1 48 35.9 48.4 35.9 48.8L35.9 49.8C35.9 50 35.9 50.1 36 50.2 36.3 51.4 37.7 52.5 43.6 54.8L43.6 56.2Z"/><path d="M68.4 20.3C63.7 18.5 62.4 17.6 62.1 17.4L62.1 17.3C62.7 16.6 63.1 15.7 63.4 14.8 63.9 14.3 64.2 13.7 64.3 13 64.4 12.3 64.3 11.7 63.9 11.1L63.9 9.2C63.9 5.8 61.8 3.7 58.2 3.7 54.6 3.7 52.4 5.8 52.4 9.2L52.4 11.1C52 11.7 51.9 12.3 52 13 52.1 13.7 52.4 14.3 52.9 14.8 53.2 15.7 53.6 16.6 54.2 17.3L54.2 17.3C53.8 17.7 52.4 18.6 47.9 20.3 47.1 20.6 46.6 21.5 46.6 22.4L46.6 25C46.6 26.2 47.5 27.1 48.7 27.1L67.6 27.1C68.8 27.1 69.8 26.2 69.8 25L69.8 22.3C69.7 21.4 69.2 20.6 68.4 20.3ZM66.8 24.2L49.5 24.2 49.5 22.8C55.3 20.5 56.7 19.4 57.1 18.2 57.1 18.1 57.1 18 57.1 17.8L57.1 16.8C57.1 16.4 57 16 56.7 15.8 56.2 15.2 55.8 14.5 55.5 13.6 55.5 13.2 55.2 12.6 55 12.4 55.2 12.2 55.3 11.8 55.3 11.5L55.3 9.2C55.3 7.4 56.2 6.6 58.2 6.6 60.1 6.6 61 7.4 61 9.2L61 11.5C61 11.8 61.1 12.5 61.3 12.8 61.1 13 60.9 13.2 60.8 13.6 60.5 14.5 60.1 15.2 59.6 15.8 59.3 16 59.2 16.4 59.2 16.8L59.2 17.8C59.2 18 59.2 18.1 59.2 18.2 59.6 19.4 61 20.5 66.8 22.8L66.8 24.2 66.8 24.2Z"/><path d="M21.8 20.3C17.1 18.5 15.8 17.6 15.5 17.4L15.5 17.3C16.1 16.6 16.6 15.7 16.9 14.8 17.3 14.3 17.6 13.7 17.7 13 17.8 12.3 17.7 11.7 17.4 11.1L17.4 9.2C17.4 5.8 15.2 3.7 11.6 3.7 8 3.7 5.8 5.8 5.8 9.2L5.8 11.1C5.5 11.7 5.4 12.3 5.5 13 5.6 13.7 5.9 14.3 6.3 14.8 6.6 15.7 7.1 16.6 7.7 17.3L7.7 17.3C7.2 17.7 5.9 18.6 1.4 20.3 0.6 20.6 0 21.5 0 22.4L0 25C0 26.2 1 27.1 2.2 27.1L21 27.1C22.2 27.1 23.2 26.2 23.2 25L23.2 22.4C23.2 21.5 22.6 20.6 21.8 20.3ZM20.3 24.2L2.9 24.2 2.9 22.8C8.8 20.5 10.2 19.4 10.5 18.2 10.6 18.1 10.6 18 10.6 17.8L10.6 16.8C10.6 16.4 10.4 16 10.2 15.8 9.7 15.2 9.2 14.5 9 13.6 8.9 13.2 8.7 12.6 8.4 12.4 8.6 12.2 8.7 11.8 8.7 11.5L8.7 9.2C8.7 7.4 9.6 6.6 11.6 6.6 13.6 6.6 14.5 7.4 14.5 9.2L14.5 11.5C14.5 11.8 14.6 12.5 14.8 12.8 14.5 13 14.3 13.2 14.2 13.6 14 14.5 13.6 15.2 13 15.8 12.8 16 12.6 16.4 12.6 16.8L12.6 17.8C12.6 18 12.7 18.1 12.7 18.2 13.1 19.4 14.4 20.5 20.3 22.8L20.3 24.2Z"/><path d="M23.3 6.8C30.5 2.6 39.9 2.6 47.1 6.8 47.4 7 47.6 7 47.9 7 48.4 7 48.9 6.8 49.1 6.3 49.5 5.6 49.3 4.7 48.6 4.3 40.5-0.4 30-0.4 21.9 4.3 21.2 4.7 20.9 5.6 21.3 6.3 21.7 7 22.6 7.2 23.3 6.8Z"/><path d="M60.4 28.8C59.6 28.7 58.9 29.2 58.8 30 58 37 54.2 43.2 48.3 47.1 47.9 47.4 47.7 47.8 47.7 48.3 47.7 48.6 47.7 48.9 47.9 49.1 48.2 49.5 48.6 49.8 49.1 49.8 49.4 49.8 49.7 49.7 49.9 49.5 56.5 45.2 60.8 38.2 61.7 30.4 61.7 30.3 61.7 30.3 61.7 30.2 61.7 29.5 61.1 28.8 60.4 28.8Z"/><path d="M11.7 30C11.6 29.2 10.9 28.6 10.1 28.8 9.3 28.8 8.8 29.5 8.8 30.2 8.8 30.3 8.8 30.3 8.8 30.4 9.7 38.2 14 45.2 20.6 49.5 20.8 49.7 21.1 49.8 21.4 49.8 21.8 49.8 22.3 49.5 22.6 49.1 22.7 48.9 22.8 48.6 22.8 48.3 22.8 47.8 22.6 47.4 22.2 47.1 16.3 43.2 12.5 37 11.7 30Z"/></g></g></svg>
