<svg xmlns="http://www.w3.org/2000/svg" width="64" height="65" viewBox="0 0 64 65"><title>  thin-0277-chat-message-comment-bubble-like-favorite</title><desc>  Created with Sketch.</desc><g fill="none"><g fill="#EF224C"><path d="M42.3 0.7L22.2 0.7C10.5 0.7 0.5 11.7 0.5 24.7 0.5 36.7 8.4 45.9 16.3 48.4L16.3 62.7C16.3 63.3 16.6 63.7 17.1 63.9 17.3 64 17.5 64.1 17.7 64.1 18 64.1 18.3 64 18.5 63.8L36.4 48.7 42.3 48.7C53.7 48.7 63.4 37.7 63.4 24.7 63.4 11.7 53.7 0.7 42.3 0.7ZM42.3 46L35.9 46C35.6 46 35.3 46.1 35.1 46.3L19 59.9 19 47.4C19 46.8 18.6 46.2 18 46.1 10.7 44.4 3.2 35.9 3.2 24.7 3.2 13.3 12.1 3.3 22.2 3.3L42.3 3.3C52.3 3.3 60.7 13.1 60.7 24.7 60.7 36.2 52.3 46 42.3 46Z"/><path d="M45.1 15.1C43.5 13.5 41.3 12.6 39.1 12.6 39.1 12.6 39.1 12.6 39.1 12.6 36.8 12.6 34.7 13.5 33.1 15.1L32.4 15.9 31.6 15.1C28.4 11.9 22.9 11.9 19.7 15.1 16.4 18.5 16.4 23.9 19.7 27.3L31.4 39.3C31.7 39.5 32 39.7 32.4 39.7 32.7 39.7 33.1 39.5 33.3 39.3L45.1 27.3C48.4 23.9 48.4 18.5 45.1 15.1 45.1 15.1 45.1 15.1 45.1 15.1ZM43.2 25.4L32.4 36.5 21.6 25.4C19.3 23.1 19.3 19.3 21.6 17 22.7 15.9 24.1 15.3 25.6 15.3 27.2 15.3 28.6 15.9 29.7 17L31.4 18.7C31.9 19.2 32.8 19.2 33.3 18.7L35 17C36.1 15.9 37.5 15.3 39.1 15.3 39.1 15.3 39.1 15.3 39.1 15.3 40.6 15.3 42.1 15.9 43.2 17 45.4 19.3 45.4 23.1 43.2 25.4Z"/></g></g></svg>
