<svg xmlns="http://www.w3.org/2000/svg" width="70" height="64" viewBox="0 0 70 64"><title>  thin-0192-window-application-code-shell-terminal</title><desc>  Created with Sketch.</desc><g fill="none"><g fill="#EF224C"><path d="M68.2 0L1.5 0C0.6 0 0 0.7 0 1.5L0 62.5C0 63.3 0.6 64 1.5 64L68.2 64C69 64 69.6 63.3 69.6 62.5L69.6 1.5C69.6 0.6 69 0 68.2 0ZM66.7 2.9L66.7 17.5 2.9 17.5 2.9 2.9 66.7 2.9ZM2.9 61.1L2.9 20.4 66.7 20.4 66.7 61.1 2.9 61.1Z"/><path d="M55.5 14.2C55.8 14.5 56.1 14.6 56.5 14.6 56.9 14.6 57.3 14.4 57.6 14.2L59.5 12.2 61.4 14.2C61.7 14.4 62.1 14.6 62.5 14.6 62.9 14.6 63.3 14.5 63.6 14.2 64.1 13.6 64.2 12.7 63.6 12.1L61.6 10.1 63.6 8.1C64.2 7.5 64.1 6.6 63.6 6 63 5.5 62 5.5 61.4 6.1L59.5 8 57.6 6.1C57 5.5 56.1 5.5 55.5 6 54.9 6.6 54.9 7.5 55.4 8.1L57.4 10.1 55.4 12.1C54.9 12.7 54.9 13.6 55.5 14.2Z"/><path d="M45.3 14.6L51.3 14.6C52.1 14.6 52.8 13.9 52.8 13.1L52.8 7.1C52.8 6.3 52.1 5.6 51.3 5.6L45.3 5.6C44.5 5.6 43.8 6.3 43.8 7.1L43.8 13.1C43.8 13.9 44.5 14.6 45.3 14.6ZM46.8 8.6L49.8 8.6 49.8 11.6 46.8 11.6 46.8 8.6Z"/><path d="M34.1 14.6L40 14.6C40.9 14.6 41.5 13.8 41.5 12.9 41.5 12 40.9 11.2 40 11.2L34.1 11.2C33.2 11.2 32.6 12 32.6 12.9 32.6 13.8 33.2 14.6 34.1 14.6Z"/><path d="M42.4 49.4L28.4 49.4C27.6 49.4 26.9 50.2 26.9 51.1 26.9 52 27.6 52.8 28.4 52.8L42.4 52.8C43.1 52.8 43.8 52 43.8 51.1 43.8 50.2 43.1 49.4 42.4 49.4Z"/><path d="M15 26.3C14.4 25.7 13.5 25.7 12.9 26.2 12.2 26.7 12.2 27.6 12.7 28.2L22.3 38.7 12.7 49.3C12.2 49.9 12.2 50.8 12.9 51.3 13.2 51.5 13.5 51.6 13.9 51.6 14.3 51.6 14.7 51.5 15 51.2L25.5 39.7C25.9 39.1 25.9 38.3 25.5 37.8L15 26.3Z"/></g></g></svg>
