<?xml version="1.0" encoding="UTF-8"?>
<svg width="48px" height="40px" viewBox="0 0 48 40" version="1.1" xmlns="http://www.w3.org/2000/svg" xmlns:xlink="http://www.w3.org/1999/xlink">
    <!-- Generator: Sketch 47.1 (45422) - http://www.bohemiancoding.com/sketch -->
    <title>twitter black.1</title>
    <desc>Created with Sketch.</desc>
    <defs></defs>
    <g id="Homepage" stroke="none" stroke-width="1" fill="none" fill-rule="evenodd">
        <g transform="translate(-1013.000000, -6718.000000)" id="twitter-black.1" fill-rule="nonzero" fill="#4829A1">
            <g transform="translate(1013.000000, 6718.000000)">
                <path d="M48,4.735283 C46.236309,5.538462 44.337383,6.081618 42.345483,6.324305 C44.379644,5.076201 45.940482,3.097147 46.675823,0.739617 C44.771263,1.895269 42.666667,2.736006 40.418384,3.18671 C38.626519,1.224991 36.065504,0 33.231203,0 C27.796443,0 23.387216,4.521488 23.387216,10.097508 C23.387216,10.88913 23.471738,11.657638 23.640782,12.397255 C15.456242,11.975442 8.201444,7.959552 3.341433,1.843265 C2.493397,3.339834 2.008804,5.076201 2.008804,6.925244 C2.008804,10.426869 3.747139,13.518238 6.389857,15.329722 C4.778306,15.280607 3.256911,14.821235 1.9271,14.070061 L1.9271,14.194294 C1.9271,19.08848 5.322064,23.17082 9.8299,24.095341 C9.004402,24.33225 8.133826,24.450704 7.235077,24.450704 C6.601162,24.450704 5.981335,24.390033 5.381229,24.271578 C6.634971,28.28169 10.269414,31.2026 14.580032,31.280607 C11.210424,33.99061 6.961789,35.605634 2.349709,35.605634 C1.555203,35.605634 0.769149,35.559408 0,35.466956 C4.358514,38.327194 9.53689,40 15.095615,40 C33.211481,40 43.114633,24.615385 43.114633,11.270495 C43.114633,10.831347 43.106181,10.392199 43.089276,9.961719 C45.013559,8.537378 46.684275,6.760563 48,4.735283" id="Twitter"></path>
            </g>
        </g>
    </g>
</svg>